<svg width="202" height="90" viewBox="0 0 202 90" fill="none" xmlns="http://www.w3.org/2000/svg">
<path d="M80.3976 78.8181V46.6462H100.731V51.6135H86.2471V59.8306H99.1065V64.798H86.2471V78.8181H80.3976ZM107.929 62.7089C107.929 64.473 108.146 66.0824 108.579 67.537C109.012 68.9607 109.631 70.1832 110.436 71.2045C111.271 72.1949 112.277 72.9686 113.453 73.5257C114.629 74.0828 115.96 74.3613 117.446 74.3613C118.9 74.3613 120.216 74.0828 121.392 73.5257C122.568 72.9686 123.558 72.1949 124.363 71.2045C125.199 70.1832 125.833 68.9607 126.266 67.537C126.7 66.0824 126.916 64.473 126.916 62.7089C126.916 60.9448 126.7 59.3509 126.266 57.9272C125.833 56.4726 125.199 55.2501 124.363 54.2597C123.558 53.2384 122.568 52.4492 121.392 51.8921C120.216 51.335 118.9 51.0565 117.446 51.0565C115.96 51.0565 114.629 51.335 113.453 51.8921C112.277 52.4492 111.271 53.2384 110.436 54.2597C109.631 55.281 109.012 56.5035 108.579 57.9272C108.146 59.3509 107.929 60.9448 107.929 62.7089ZM133.044 62.7089C133.044 65.4634 132.627 67.8929 131.791 69.9975C130.986 72.102 129.872 73.8662 128.448 75.2898C127.056 76.6825 125.415 77.7348 123.527 78.4467C121.64 79.1585 119.628 79.5144 117.492 79.5144C115.357 79.5144 113.33 79.1585 111.411 78.4467C109.523 77.7348 107.867 76.6825 106.443 75.2898C105.051 73.8662 103.936 72.102 103.101 69.9975C102.265 67.8929 101.847 65.4634 101.847 62.7089C101.847 59.9544 102.265 57.5403 103.101 55.4667C103.936 53.3622 105.066 51.5981 106.49 50.1744C107.944 48.7507 109.616 47.683 111.504 46.9711C113.391 46.2593 115.388 45.9034 117.492 45.9034C119.597 45.9034 121.593 46.2593 123.481 46.9711C125.369 47.683 127.009 48.7507 128.402 50.1744C129.826 51.5981 130.955 53.3622 131.791 55.4667C132.627 57.5403 133.044 59.9544 133.044 62.7089ZM146.007 46.3212C150.65 46.3212 154.193 47.1723 156.638 48.8745C159.114 50.5767 160.352 53.1765 160.352 56.6738C160.352 61.0376 158.201 63.9933 153.899 65.5408C154.487 66.2526 155.153 67.1192 155.896 68.1405C156.638 69.1618 157.397 70.276 158.17 71.483C158.944 72.6591 159.687 73.8816 160.399 75.1506C161.11 76.3885 161.745 77.611 162.302 78.8181H155.756C155.168 77.7039 154.534 76.5897 153.853 75.4755C153.172 74.3304 152.476 73.2317 151.764 72.1794C151.083 71.0962 150.402 70.0903 149.721 69.1618C149.04 68.2024 148.406 67.3513 147.818 66.6085C147.384 66.6395 147.013 66.6549 146.704 66.6549C146.394 66.6549 146.1 66.6549 145.821 66.6549H142.99V78.8181H137.14V47.1104C138.564 46.8009 140.08 46.5997 141.69 46.5069C143.299 46.3831 144.738 46.3212 146.007 46.3212ZM146.425 51.3814C145.187 51.3814 144.042 51.4278 142.99 51.5207V61.9197H145.543C146.967 61.9197 148.22 61.8423 149.303 61.6876C150.387 61.5328 151.284 61.2543 151.996 60.8519C152.739 60.4496 153.296 59.908 153.667 59.2271C154.039 58.5462 154.224 57.6796 154.224 56.6273C154.224 55.637 154.039 54.8013 153.667 54.1204C153.296 53.4396 152.754 52.8979 152.042 52.4956C151.361 52.0933 150.541 51.8147 149.582 51.66C148.622 51.4743 147.57 51.3814 146.425 51.3814ZM171.524 46.6462C172.205 47.8222 172.963 49.2614 173.799 50.9636C174.635 52.6658 175.486 54.4609 176.352 56.3488C177.219 58.2058 178.07 60.1091 178.906 62.059C179.772 63.9778 180.561 65.7574 181.273 67.3977C181.985 65.7574 182.759 63.9778 183.594 62.059C184.43 60.1091 185.281 58.2058 186.148 56.3488C187.014 54.4609 187.865 52.6658 188.701 50.9636C189.537 49.2614 190.295 47.8222 190.976 46.6462H196.268C196.547 48.9983 196.81 51.5052 197.057 54.1669C197.305 56.7976 197.522 59.5056 197.707 62.2911C197.924 65.0456 198.11 67.831 198.264 70.6474C198.45 73.4329 198.605 76.1564 198.729 78.8181H192.972C192.848 75.0732 192.693 71.22 192.508 67.2585C192.353 63.2969 192.105 59.4592 191.765 55.7453C191.425 56.4571 191.022 57.3082 190.558 58.2986C190.094 59.289 189.599 60.3722 189.072 61.5483C188.546 62.6934 188.005 63.885 187.448 65.1229C186.921 66.3609 186.395 67.568 185.869 68.744C185.374 69.8892 184.91 70.9724 184.476 71.9937C184.043 72.9841 183.672 73.8352 183.362 74.547H178.998C178.689 73.8352 178.317 72.9686 177.884 71.9473C177.451 70.926 176.971 69.8427 176.445 68.6976C175.95 67.5215 175.424 66.3145 174.867 65.0765C174.341 63.8386 173.814 62.647 173.288 61.5019C172.762 60.3567 172.267 59.289 171.803 58.2986C171.338 57.2773 170.936 56.4262 170.596 55.7453C170.255 59.4592 169.992 63.2969 169.806 67.2585C169.652 71.22 169.512 75.0732 169.389 78.8181H163.632C163.756 76.1564 163.895 73.4019 164.05 70.5546C164.236 67.7072 164.421 64.8908 164.607 62.1054C164.824 59.289 165.056 56.5654 165.303 53.9347C165.551 51.304 165.814 48.8745 166.092 46.6462H171.524Z" fill="#322855"/>
<path d="M39.0049 0H4.42134C1.9795 0 0 1.9795 0 4.42134V85.1108C0 87.5527 1.97951 89.5322 4.42135 89.5322H69.3598C71.8016 89.5322 73.7811 87.5527 73.7811 85.1108V24.679C73.7811 23.2015 73.0431 21.8216 71.8141 21.0014L41.4592 0.743743C40.7325 0.258803 39.8785 0 39.0049 0Z" fill="#5337B1"/>
<path d="M24.6026 46.5346C29.245 46.5346 32.7887 47.3857 35.2337 49.0879C37.7097 50.7901 38.9476 53.3899 38.9476 56.8872C38.9476 61.251 36.7967 64.2067 32.4947 65.7542C33.0827 66.466 33.7481 67.3326 34.4909 68.3539C35.2337 69.3753 35.992 70.4894 36.7657 71.6965C37.5394 72.8725 38.2822 74.095 38.9941 75.364C39.7059 76.6019 40.3404 77.8244 40.8974 79.0315H34.3517C33.7636 77.9173 33.1292 76.8031 32.4483 75.6889C31.7674 74.5438 31.071 73.4451 30.3592 72.3928C29.6783 71.3096 28.9974 70.3037 28.3165 69.3753C27.6356 68.4158 27.0012 67.5647 26.4131 66.8219C25.9798 66.8529 25.6085 66.8684 25.299 66.8684C24.9895 66.8684 24.6954 66.8684 24.4169 66.8684H21.585V79.0315H15.7356V47.3238C17.1593 47.0143 18.6758 46.8132 20.2852 46.7203C21.8945 46.5965 23.3337 46.5346 24.6026 46.5346ZM25.0204 51.5948C23.7824 51.5948 22.6373 51.6413 21.585 51.7341V62.1331H24.1384C25.562 62.1331 26.8155 62.0557 27.8987 61.901C28.9819 61.7462 29.8795 61.4677 30.5913 61.0653C31.3341 60.663 31.8912 60.1214 32.2626 59.4405C32.634 58.7596 32.8197 57.893 32.8197 56.8408C32.8197 55.8504 32.634 55.0147 32.2626 54.3339C31.8912 53.653 31.3496 53.1114 30.6377 52.709C29.9568 52.3067 29.1367 52.0281 28.1772 51.8734C27.2178 51.6877 26.1655 51.5948 25.0204 51.5948Z" fill="white"/>
<path d="M43.5737 79.0315V46.8596H64.2324V51.827H49.4232V59.7655H62.6076V64.64H49.4232V74.0641H65.3466V79.0315H43.5737Z" fill="white"/>
<path d="M44.4896 23.7646L73.6816 23.7647C73.5286 23.1261 73.3753 22.7631 72.9519 22.1067C72.4364 21.4043 71.9544 21.0546 71.0176 20.4487L59.4116 12.7113L51.9506 7.73734L42.0026 1.10533L41.1736 0.552661C40.799 0.367517 40.5794 0.265805 40.0682 0.140367L40.0682 19.3433C40.0682 21.7851 42.0477 23.7646 44.4896 23.7646Z" fill="white" fill-opacity="0.53"/>
<path d="M74.057 35.0944L44.0732 23.7647H73.5044L73.7807 24.3174L74.057 35.0944Z" fill="black" fill-opacity="0.2"/>
</svg>
