<svg width="134" height="162" viewBox="0 0 134 162" fill="none" xmlns="http://www.w3.org/2000/svg">
<path d="M70.5757 0H8C3.58172 0 0 3.58172 0 8V154C0 158.418 3.58172 162 8 162H125.5C129.918 162 133.5 158.418 133.5 154V44.6544C133.5 41.9809 132.165 39.4842 129.941 38.0001L75.0165 1.34573C73.7017 0.46828 72.1564 0 70.5757 0Z" fill="#DD1350"/>
<path d="M44.516 84.2C52.916 84.2 59.328 85.74 63.752 88.82C68.232 91.9 70.472 96.604 70.472 102.932C70.472 110.828 66.58 116.176 58.796 118.976C59.86 120.264 61.064 121.832 62.408 123.68C63.752 125.528 65.124 127.544 66.524 129.728C67.924 131.856 69.268 134.068 70.556 136.364C71.844 138.604 72.992 140.816 74 143H62.156C61.092 140.984 59.944 138.968 58.712 136.952C57.48 134.88 56.22 132.892 54.932 130.988C53.7 129.028 52.468 127.208 51.236 125.528C50.004 123.792 48.856 122.252 47.792 120.908C47.008 120.964 46.336 120.992 45.776 120.992C45.216 120.992 44.684 120.992 44.18 120.992H39.056V143H28.472V85.628C31.048 85.068 33.792 84.704 36.704 84.536C39.616 84.312 42.22 84.2 44.516 84.2ZM45.272 93.356C43.032 93.356 40.96 93.44 39.056 93.608V112.424H43.676C46.252 112.424 48.52 112.284 50.48 112.004C52.44 111.724 54.064 111.22 55.352 110.492C56.696 109.764 57.704 108.784 58.376 107.552C59.048 106.32 59.384 104.752 59.384 102.848C59.384 101.056 59.048 99.544 58.376 98.312C57.704 97.08 56.724 96.1 55.436 95.372C54.204 94.644 52.72 94.14 50.984 93.86C49.248 93.524 47.344 93.356 45.272 93.356ZM78.8425 143V84.788H116.222V93.776H89.4265V108.14H113.282V116.96H89.4265V134.012H118.238V143H78.8425Z" fill="white"/>
<path d="M80.5 42.9999L133.32 43C133.043 41.8444 132.766 41.1877 132 40C131.067 38.729 130.195 38.0964 128.5 37L107.5 23L94 14L76 2L74.5 0.999998C73.8222 0.664998 73.425 0.480958 72.5 0.253988L72.5 34.9999C72.5 39.4182 76.0817 42.9999 80.5 42.9999Z" fill="white" fill-opacity="0.5"/>
<path d="M134 63.5L79.7472 43H133L133.5 44L134 63.5Z" fill="black" fill-opacity="0.2"/>
</svg>
