<svg width="116" height="35" viewBox="0 0 116 35" fill="none" xmlns="http://www.w3.org/2000/svg">
<path d="M36.9954 25V11.5546H40.6863V13.5319H40.8181C40.9763 13.1101 41.2136 12.741 41.5299 12.4246C42.2505 11.6689 43.1557 11.291 44.2454 11.291H45.8272V14.8501H43.8499C42.8481 14.8501 42.066 15.1225 41.5036 15.6673C40.9587 16.1946 40.6863 16.9328 40.6863 17.8819V25H36.9954ZM47.3898 23.3391C46.0013 21.9506 45.3071 20.2634 45.3071 18.2773C45.3071 16.2913 46.0013 14.6128 47.3898 13.2419C48.7959 11.8534 50.5183 11.1592 52.5571 11.1592C54.631 11.1592 56.3358 11.8446 57.6716 13.2155C59.0073 14.5864 59.6752 16.2737 59.6752 18.2773V19.0682H49.1298C49.2704 19.947 49.6659 20.694 50.3162 21.3091C50.9665 21.9243 51.7134 22.2318 52.5571 22.2318C53.4886 22.2318 54.2883 21.9682 54.9561 21.4409C55.2198 21.2124 55.4307 20.9488 55.5889 20.65H59.5434C59.2446 21.5464 58.8052 22.3373 58.2252 23.0227C56.8192 24.6045 54.9298 25.3955 52.5571 25.3955C50.5183 25.3955 48.7959 24.71 47.3898 23.3391ZM49.2616 16.8273H55.7207C55.5801 16.1243 55.2198 15.5355 54.6398 15.061C54.0774 14.5689 53.3831 14.3228 52.5571 14.3228C51.731 14.3228 51.028 14.5601 50.448 15.0346C49.868 15.5091 49.4725 16.1067 49.2616 16.8273ZM59.2694 14.9819V11.8183H60.9831V6.54557H68.4967V9.70918H64.674V11.8183H67.7058V14.9819H64.674V25H60.9831V14.9819H59.2694ZM69.5605 23.3391C68.1544 21.9506 67.4514 20.2634 67.4514 18.2773C67.4514 16.2913 68.1544 14.6128 69.5605 13.2419C70.9665 11.8534 72.7241 11.1592 74.8332 11.1592C76.9247 11.1592 78.6734 11.8534 80.0795 13.2419C81.5031 14.6128 82.2149 16.2913 82.2149 18.2773C82.2149 20.2634 81.5031 21.9506 80.0795 23.3391C78.6734 24.71 76.9247 25.3955 74.8332 25.3955C72.7241 25.3955 70.9665 24.71 69.5605 23.3391ZM72.3023 15.4301C71.6168 16.1682 71.2741 17.1173 71.2741 18.2773C71.2741 19.4373 71.6168 20.3864 72.3023 21.1246C72.9877 21.8627 73.8314 22.2318 74.8332 22.2318C75.835 22.2318 76.6786 21.8627 77.3641 21.1246C78.0495 20.3864 78.3922 19.4373 78.3922 18.2773C78.3922 17.1173 78.0495 16.1682 77.3641 15.4301C76.6786 14.6919 75.835 14.3228 74.8332 14.3228C73.8314 14.3228 72.9877 14.6919 72.3023 15.4301ZM82.7515 25V11.5546H86.4424V13.5319H86.5742C86.7324 13.1101 86.9696 12.741 87.286 12.4246C88.0066 11.6689 88.9117 11.291 90.0014 11.291H91.5832V14.8501H89.606C88.6042 14.8501 87.8221 15.1225 87.2596 15.6673C86.7148 16.1946 86.4424 16.9328 86.4424 17.8819V25H82.7515ZM91.8541 25V11.5546H95.545V13.4001H95.6768C95.9228 12.9607 96.2216 12.5916 96.5731 12.2928C97.4344 11.5371 98.4537 11.1592 99.6313 11.1592C101.037 11.1592 102.215 11.581 103.164 12.4246C103.551 12.7937 103.867 13.2067 104.113 13.6637H104.245C104.491 13.2067 104.807 12.7937 105.194 12.4246C106.143 11.581 107.277 11.1592 108.595 11.1592C110.212 11.1592 111.469 11.6513 112.365 12.6355C113.279 13.6022 113.736 14.9995 113.736 16.8273V25H110.045V17.2228C110.045 15.2895 109.21 14.3228 107.54 14.3228C106.732 14.3228 106.046 14.6392 105.484 15.2719C104.922 15.9046 104.64 16.7307 104.64 17.75V25H100.949V17.2228C100.949 15.2895 100.115 14.3228 98.445 14.3228C97.6365 14.3228 96.951 14.6392 96.3886 15.2719C95.8262 15.9046 95.545 16.7307 95.545 17.75V25H91.8541Z" fill="#0E0E0E"/>
<path d="M12.4417 1.74268H4.21704C1.88803 1.74268 0 3.63071 0 5.95972V27.9719C0 30.3009 1.88803 32.189 4.21704 32.189H20.873C23.202 32.189 25.09 30.3009 25.09 27.9719V11.5864C25.09 10.1772 24.3861 8.86104 23.2139 8.07876L14.7826 2.45205C14.0895 1.98952 13.2749 1.74268 12.4417 1.74268Z" fill="#DD1350"/>
<path d="M16.2617 9.82371L25.0566 9.82373C25.0046 9.60656 24.9525 9.48313 24.8085 9.25991C24.6332 9.02104 24.4693 8.90214 24.1507 8.69609L20.204 6.06493L17.6668 4.37346L14.2838 2.11818L14.0019 1.93024C13.8745 1.86728 13.7999 1.83269 13.6261 1.79004L13.6261 7.18806C13.6261 8.64369 14.8061 9.82371 16.2617 9.82371Z" fill="white" fill-opacity="0.5"/>
<path d="M25.0573 13.7374L14.9878 9.82373H24.7144L25.0573 10.9788V13.7374Z" fill="black" fill-opacity="0.2"/>
<rect x="4.59766" y="14.1973" width="15.6321" height="1.3793" rx="0.689649" fill="white" fill-opacity="0.54"/>
<rect x="4.59766" y="23.8523" width="15.6321" height="1.3793" rx="0.689649" fill="white" fill-opacity="0.54"/>
<rect x="4.59766" y="17.4155" width="4.59766" height="1.3793" rx="0.689649" fill="white" fill-opacity="0.54"/>
<rect x="10.1147" y="17.4155" width="9.65509" height="1.3793" rx="0.689649" fill="white" fill-opacity="0.54"/>
<rect x="15.1724" y="20.634" width="4.59766" height="1.3793" rx="0.689649" fill="white" fill-opacity="0.54"/>
<rect x="4.59766" y="20.6343" width="9.65509" height="1.3793" rx="0.689649" fill="white" fill-opacity="0.54"/>
</svg>
