<svg width="366" height="162" viewBox="0 0 366 162" fill="none" xmlns="http://www.w3.org/2000/svg">
<path d="M70.5757 0H8C3.58172 0 0 3.58172 0 8V154C0 158.418 3.58172 162 8 162H125.5C129.918 162 133.5 158.418 133.5 154V44.6544C133.5 41.9809 132.165 39.4842 129.941 38.0001L75.0165 1.34573C73.7017 0.46828 72.1564 0 70.5757 0Z" fill="#DD1350"/>
<path d="M45.516 84.2C52.916 84.2 59.328 85.74 63.752 88.82C68.232 91.9 70.472 96.604 70.472 102.932C70.472 110.828 66.58 116.176 58.796 118.976C59.86 120.264 61.064 121.832 62.408 123.68C63.752 125.528 65.124 127.544 66.524 129.728C67.924 131.856 69.268 134.068 70.556 136.364C71.844 138.604 72.992 140.816 74 143H62.156C61.092 140.984 59.944 138.968 58.712 136.952C57.48 134.88 56.22 132.892 54.932 130.988C53.7 129.028 52.468 127.208 51.236 125.528C50.004 123.792 48.856 122.252 47.792 120.908C47.008 120.964 46.336 120.992 45.776 120.992C45.216 120.992 44.684 120.992 44.18 120.992H39.056V143H28.472V85.628C31.048 85.068 33.792 84.704 36.704 84.536C39.616 84.312 42.22 84.2 44.516 84.2ZM45.272 93.356C43.032 93.356 40.96 93.44 39.056 93.608V112.424H43.676C46.252 112.424 48.52 112.284 50.48 112.004C52.44 111.724 54.064 111.22 55.352 110.492C56.696 109.764 57.704 108.784 58.376 107.552C59.048 106.32 59.384 104.752 59.384 102.848C59.384 101.056 59.048 99.544 58.376 98.312C57.704 97.08 56.724 96.1 55.436 95.372C54.204 94.644 52.72 94.14 50.984 93.86C49.248 93.524 47.344 93.356 45.272 93.356ZM78.8425 143V84.788H116.222V93.776H89.4265V108.14H113.282V116.96H89.4265V134.012H118.238V143H78.8425Z" fill="white"/>
<path d="M80.5 42.9999L133.32 43C133.043 41.8444 132.766 41.1877 132 40C131.067 38.729 130.195 38.0964 128.5 37L107.5 23L94 14L76 2L74.5 0.999998C73.8222 0.664998 73.425 0.480958 72.5 0.253988L72.5 34.9999C72.5 39.4182 76.0817 42.9999 80.5 42.9999Z" fill="white" fill-opacity="0.5"/>
<path d="M134 63.5L79.7472 43H133L133.5 44L134 63.5Z" fill="#fafafa" fill-opacity="0.2"/>
<path d="M145.472 143V84.788H182.264V93.776H156.056V108.644H179.324V117.632H156.056V143H145.472ZM195.287 113.852C195.287 117.044 195.679 119.956 196.463 122.588C197.247 125.164 198.367 127.376 199.823 129.224C201.335 131.016 203.155 132.416 205.283 133.424C207.411 134.432 209.819 134.936 212.507 134.936C215.139 134.936 217.519 134.432 219.647 133.424C221.775 132.416 223.567 131.016 225.023 129.224C226.535 127.376 227.683 125.164 228.467 122.588C229.251 119.956 229.643 117.044 229.643 113.852C229.643 110.66 229.251 107.776 228.467 105.2C227.683 102.568 226.535 100.356 225.023 98.564C223.567 96.716 221.775 95.288 219.647 94.28C217.519 93.272 215.139 92.768 212.507 92.768C209.819 92.768 207.411 93.272 205.283 94.28C203.155 95.288 201.335 96.716 199.823 98.564C198.367 100.412 197.247 102.624 196.463 105.2C195.679 107.776 195.287 110.66 195.287 113.852ZM240.731 113.852C240.731 118.836 239.975 123.232 238.463 127.04C237.007 130.848 234.991 134.04 232.415 136.616C229.895 139.136 226.927 141.04 223.511 142.328C220.095 143.616 216.455 144.26 212.591 144.26C208.727 144.26 205.059 143.616 201.587 142.328C198.171 141.04 195.175 139.136 192.599 136.616C190.079 134.04 188.063 130.848 186.551 127.04C185.039 123.232 184.283 118.836 184.283 113.852C184.283 108.868 185.039 104.5 186.551 100.748C188.063 96.94 190.107 93.748 192.683 91.172C195.315 88.596 198.339 86.664 201.755 85.376C205.171 84.088 208.783 83.444 212.591 83.444C216.399 83.444 220.011 84.088 223.427 85.376C226.843 86.664 229.811 88.596 232.331 91.172C234.907 93.748 236.951 96.94 238.463 100.748C239.975 104.5 240.731 108.868 240.731 113.852ZM264.186 84.2C272.586 84.2 278.998 85.74 283.422 88.82C287.902 91.9 290.142 96.604 290.142 102.932C290.142 110.828 286.25 116.176 278.466 118.976C279.53 120.264 280.734 121.832 282.078 123.68C283.422 125.528 284.794 127.544 286.194 129.728C287.594 131.856 288.938 134.068 290.226 136.364C291.514 138.604 292.662 140.816 293.67 143H281.826C280.762 140.984 279.614 138.968 278.382 136.952C277.15 134.88 275.89 132.892 274.602 130.988C273.37 129.028 272.138 127.208 270.906 125.528C269.674 123.792 268.526 122.252 267.462 120.908C266.678 120.964 266.006 120.992 265.446 120.992C264.886 120.992 264.354 120.992 263.85 120.992H258.726V143H248.142V85.628C250.718 85.068 253.462 84.704 256.374 84.536C259.286 84.312 261.89 84.2 264.186 84.2ZM264.942 93.356C262.702 93.356 260.63 93.44 258.726 93.608V112.424H263.346C265.922 112.424 268.19 112.284 270.15 112.004C272.11 111.724 273.734 111.22 275.022 110.492C276.366 109.764 277.374 108.784 278.046 107.552C278.718 106.32 279.054 104.752 279.054 102.848C279.054 101.056 278.718 99.544 278.046 98.312C277.374 97.08 276.394 96.1 275.106 95.372C273.874 94.644 272.39 94.14 270.654 93.86C268.918 93.524 267.014 93.356 264.942 93.356ZM310.357 84.788C311.589 86.916 312.961 89.52 314.473 92.6C315.985 95.68 317.525 98.928 319.093 102.344C320.661 105.704 322.201 109.148 323.713 112.676C325.281 116.148 326.709 119.368 327.997 122.336C329.285 119.368 330.685 116.148 332.197 112.676C333.709 109.148 335.249 105.704 336.817 102.344C338.385 98.928 339.925 95.68 341.437 92.6C342.949 89.52 344.321 86.916 345.553 84.788H355.129C355.633 89.044 356.109 93.58 356.557 98.396C357.005 103.156 357.397 108.056 357.733 113.096C358.125 118.08 358.461 123.12 358.741 128.216C359.077 133.256 359.357 138.184 359.581 143H349.165C348.941 136.224 348.661 129.252 348.325 122.084C348.045 114.916 347.597 107.972 346.981 101.252C346.365 102.54 345.637 104.08 344.797 105.872C343.957 107.664 343.061 109.624 342.109 111.752C341.157 113.824 340.177 115.98 339.169 118.22C338.217 120.46 337.265 122.644 336.313 124.772C335.417 126.844 334.577 128.804 333.793 130.652C333.009 132.444 332.337 133.984 331.777 135.272H323.881C323.321 133.984 322.649 132.416 321.865 130.568C321.081 128.72 320.213 126.76 319.261 124.688C318.365 122.56 317.413 120.376 316.405 118.136C315.453 115.896 314.501 113.74 313.549 111.668C312.597 109.596 311.701 107.664 310.861 105.872C310.021 104.024 309.293 102.484 308.677 101.252C308.061 107.972 307.585 114.916 307.249 122.084C306.969 129.252 306.717 136.224 306.493 143H296.077C296.301 138.184 296.553 133.2 296.833 128.048C297.169 122.896 297.505 117.8 297.841 112.76C298.233 107.664 298.653 102.736 299.101 97.976C299.549 93.216 300.025 88.82 300.529 84.788H310.357Z" fill="#fafafa"/>
</svg>
