<svg width="901" height="314" viewBox="0 0 901 314" fill="none" xmlns="http://www.w3.org/2000/svg">
<rect width="901" height="314" rx="8" fill="white"/>
<path d="M401.702 72H374.48C372.558 72 371 73.5581 371 75.4802V138.993C371 140.915 372.558 142.473 374.48 142.473H425.595C427.517 142.473 429.075 140.915 429.075 138.993V91.4256C429.075 90.2626 428.494 89.1764 427.527 88.5308L403.634 72.5854C403.062 72.2037 402.39 72 401.702 72Z" fill="#DD1350"/>
<path d="M390.365 108.629C394.02 108.629 396.809 109.299 398.733 110.638C400.682 111.978 401.657 114.025 401.657 116.778C401.657 120.212 399.964 122.539 396.578 123.757C397.04 124.317 397.564 124.999 398.149 125.803C398.733 126.607 399.33 127.484 399.939 128.434C400.548 129.36 401.133 130.322 401.693 131.321C402.254 132.296 402.753 133.258 403.192 134.208H398.039C397.576 133.331 397.077 132.454 396.541 131.577C396.005 130.676 395.457 129.811 394.897 128.982C394.361 128.13 393.825 127.338 393.289 126.607C392.753 125.852 392.253 125.182 391.791 124.597C391.449 124.622 391.157 124.634 390.914 124.634C390.67 124.634 390.439 124.634 390.219 124.634H387.99V134.208H383.386V109.25C384.507 109.006 385.7 108.848 386.967 108.775C388.234 108.677 389.367 108.629 390.365 108.629ZM390.694 112.612C389.72 112.612 388.818 112.648 387.99 112.721V120.907H390C391.121 120.907 392.107 120.846 392.96 120.724C393.813 120.602 394.519 120.383 395.079 120.066C395.664 119.75 396.102 119.323 396.395 118.787C396.687 118.251 396.833 117.569 396.833 116.741C396.833 115.961 396.687 115.304 396.395 114.768C396.102 114.232 395.676 113.805 395.116 113.489C394.58 113.172 393.934 112.953 393.179 112.831C392.424 112.685 391.596 112.612 390.694 112.612Z" fill="white"/>
<path d="M405.298 134.208V108.884H421.559V112.794H409.902V119.043H420.28V122.88H409.902V130.298H422.436V134.208H405.298Z" fill="white"/>
<path d="M406.019 90.7058L428.997 90.7059C428.877 90.2032 428.756 89.9175 428.423 89.4008C428.017 88.8479 427.638 88.5727 426.9 88.0957L417.765 82.0054L411.892 78.0903L404.062 72.87L403.409 72.435C403.114 72.2893 402.941 72.2092 402.539 72.1105L402.539 87.2256C402.539 89.1477 404.097 90.7058 406.019 90.7058Z" fill="white" fill-opacity="0.5"/>
<path d="M429.293 99.6238L405.692 90.7059H428.858L429.075 91.1409L429.293 99.6238Z" fill="black" fill-opacity="0.2"/>
<path d="M434.283 134.406V109.083H450.289V112.993H438.888V119.461H449.01V123.371H438.888V134.406H434.283ZM455.954 121.726C455.954 123.115 456.125 124.382 456.466 125.527C456.807 126.647 457.294 127.61 457.927 128.413C458.585 129.193 459.377 129.802 460.302 130.241C461.228 130.679 462.276 130.898 463.445 130.898C464.59 130.898 465.625 130.679 466.551 130.241C467.477 129.802 468.256 129.193 468.89 128.413C469.548 127.61 470.047 126.647 470.388 125.527C470.729 124.382 470.9 123.115 470.9 121.726C470.9 120.338 470.729 119.083 470.388 117.963C470.047 116.818 469.548 115.855 468.89 115.076C468.256 114.272 467.477 113.651 466.551 113.212C465.625 112.774 464.59 112.554 463.445 112.554C462.276 112.554 461.228 112.774 460.302 113.212C459.377 113.651 458.585 114.272 457.927 115.076C457.294 115.88 456.807 116.842 456.466 117.963C456.125 119.083 455.954 120.338 455.954 121.726ZM475.723 121.726C475.723 123.894 475.394 125.807 474.736 127.463C474.103 129.12 473.226 130.508 472.105 131.629C471.009 132.725 469.718 133.554 468.232 134.114C466.746 134.674 465.163 134.954 463.482 134.954C461.801 134.954 460.205 134.674 458.695 134.114C457.209 133.554 455.905 132.725 454.785 131.629C453.688 130.508 452.811 129.12 452.154 127.463C451.496 125.807 451.167 123.894 451.167 121.726C451.167 119.558 451.496 117.658 452.154 116.026C452.811 114.369 453.701 112.981 454.821 111.86C455.966 110.739 457.282 109.899 458.768 109.339C460.254 108.778 461.825 108.498 463.482 108.498C465.138 108.498 466.709 108.778 468.195 109.339C469.682 109.899 470.973 110.739 472.069 111.86C473.19 112.981 474.079 114.369 474.736 116.026C475.394 117.658 475.723 119.558 475.723 121.726ZM485.926 108.827C489.581 108.827 492.37 109.497 494.295 110.837C496.243 112.177 497.218 114.223 497.218 116.976C497.218 120.411 495.525 122.737 492.139 123.955C492.601 124.516 493.125 125.198 493.71 126.002C494.295 126.806 494.891 127.683 495.5 128.633C496.109 129.558 496.694 130.521 497.254 131.519C497.815 132.494 498.314 133.456 498.753 134.406H493.6C493.137 133.529 492.638 132.652 492.102 131.775C491.566 130.874 491.018 130.009 490.458 129.181C489.922 128.328 489.386 127.536 488.85 126.806C488.314 126.05 487.814 125.38 487.352 124.796C487.011 124.82 486.718 124.832 486.475 124.832C486.231 124.832 486 124.832 485.78 124.832H483.551V134.406H478.947V109.448C480.068 109.205 481.261 109.046 482.528 108.973C483.795 108.876 484.928 108.827 485.926 108.827ZM486.255 112.81C485.281 112.81 484.38 112.847 483.551 112.92V121.105H485.561C486.682 121.105 487.668 121.044 488.521 120.922C489.374 120.801 490.08 120.581 490.64 120.265C491.225 119.948 491.664 119.522 491.956 118.986C492.248 118.45 492.394 117.768 492.394 116.939C492.394 116.16 492.248 115.502 491.956 114.966C491.664 114.43 491.237 114.004 490.677 113.687C490.141 113.37 489.495 113.151 488.74 113.029C487.985 112.883 487.157 112.81 486.255 112.81ZM506.012 109.083C506.548 110.009 507.144 111.141 507.802 112.481C508.46 113.821 509.13 115.234 509.812 116.72C510.494 118.182 511.164 119.68 511.822 121.215C512.504 122.725 513.125 124.126 513.685 125.417C514.246 124.126 514.855 122.725 515.512 121.215C516.17 119.68 516.84 118.182 517.522 116.72C518.204 115.234 518.874 113.821 519.532 112.481C520.19 111.141 520.787 110.009 521.323 109.083H525.488C525.708 110.934 525.915 112.908 526.11 115.003C526.304 117.073 526.475 119.205 526.621 121.397C526.792 123.566 526.938 125.758 527.06 127.975C527.206 130.167 527.328 132.311 527.425 134.406H522.894C522.796 131.459 522.675 128.426 522.528 125.307C522.407 122.189 522.212 119.168 521.944 116.245C521.676 116.805 521.359 117.475 520.994 118.255C520.628 119.034 520.239 119.887 519.824 120.813C519.41 121.714 518.984 122.652 518.545 123.626C518.131 124.601 517.717 125.551 517.303 126.477C516.913 127.378 516.548 128.231 516.207 129.035C515.866 129.814 515.573 130.484 515.33 131.044H511.895C511.651 130.484 511.359 129.802 511.018 128.998C510.677 128.194 510.299 127.342 509.885 126.44C509.495 125.514 509.081 124.564 508.643 123.59C508.228 122.615 507.814 121.678 507.4 120.776C506.986 119.875 506.596 119.034 506.231 118.255C505.865 117.451 505.549 116.781 505.281 116.245C505.013 119.168 504.806 122.189 504.66 125.307C504.538 128.426 504.428 131.459 504.331 134.406H499.8C499.897 132.311 500.007 130.143 500.128 127.902C500.275 125.661 500.421 123.444 500.567 121.251C500.737 119.034 500.92 116.891 501.115 114.82C501.31 112.749 501.517 110.837 501.736 109.083H506.012Z" fill="#0E0E0E"/>
<path d="M214.335 181.309C217.03 181.309 219.094 181.793 220.528 182.761C221.961 183.711 222.678 185.196 222.678 187.217C222.678 188.478 222.385 189.506 221.797 190.301C221.227 191.078 220.398 191.691 219.31 192.14C219.673 192.59 220.053 193.108 220.45 193.695C220.847 194.265 221.236 194.87 221.616 195.509C222.013 196.131 222.393 196.787 222.756 197.478C223.119 198.152 223.456 198.817 223.767 199.473H219.232C218.904 198.886 218.567 198.29 218.222 197.685C217.893 197.081 217.548 196.494 217.185 195.923C216.84 195.353 216.494 194.818 216.149 194.317C215.803 193.799 215.458 193.332 215.112 192.918H213.117V199.473H209.075V181.776C209.956 181.603 210.863 181.482 211.796 181.413C212.746 181.344 213.592 181.309 214.335 181.309ZM214.568 184.756C214.274 184.756 214.007 184.764 213.765 184.782C213.54 184.799 213.324 184.816 213.117 184.833V189.705H214.257C215.777 189.705 216.866 189.515 217.522 189.135C218.178 188.755 218.507 188.107 218.507 187.191C218.507 186.31 218.17 185.689 217.496 185.326C216.84 184.946 215.864 184.756 214.568 184.756ZM223.497 192.762C223.497 191.553 223.679 190.499 224.041 189.601C224.421 188.686 224.914 187.926 225.518 187.321C226.123 186.716 226.814 186.259 227.591 185.948C228.386 185.637 229.198 185.481 230.027 185.481C231.962 185.481 233.49 186.077 234.613 187.269C235.736 188.444 236.297 190.18 236.297 192.477C236.297 192.702 236.289 192.952 236.271 193.229C236.254 193.488 236.237 193.721 236.22 193.928H227.462C227.548 194.723 227.919 195.353 228.576 195.82C229.232 196.286 230.113 196.519 231.219 196.519C231.927 196.519 232.618 196.459 233.292 196.338C233.983 196.2 234.544 196.036 234.976 195.846L235.494 198.981C235.287 199.085 235.01 199.188 234.665 199.292C234.319 199.396 233.931 199.482 233.499 199.551C233.084 199.637 232.635 199.707 232.152 199.758C231.668 199.81 231.184 199.836 230.701 199.836C229.474 199.836 228.403 199.655 227.488 199.292C226.589 198.929 225.838 198.437 225.233 197.815C224.646 197.176 224.205 196.424 223.912 195.561C223.635 194.697 223.497 193.764 223.497 192.762ZM232.566 191.285C232.549 190.957 232.488 190.638 232.385 190.327C232.298 190.016 232.152 189.739 231.944 189.497C231.754 189.256 231.504 189.057 231.193 188.902C230.899 188.746 230.528 188.668 230.079 188.668C229.647 188.668 229.275 188.746 228.964 188.902C228.654 189.04 228.394 189.23 228.187 189.472C227.98 189.713 227.816 189.998 227.695 190.327C227.591 190.638 227.513 190.957 227.462 191.285H232.566ZM243.189 196.779C243.569 196.779 243.932 196.77 244.278 196.753C244.623 196.735 244.9 196.709 245.107 196.675V193.747C244.951 193.712 244.718 193.678 244.407 193.643C244.096 193.609 243.811 193.591 243.552 193.591C243.189 193.591 242.844 193.617 242.516 193.669C242.205 193.704 241.928 193.781 241.687 193.902C241.445 194.023 241.255 194.187 241.116 194.395C240.978 194.602 240.909 194.861 240.909 195.172C240.909 195.777 241.108 196.2 241.505 196.442C241.92 196.666 242.481 196.779 243.189 196.779ZM242.878 185.481C244.019 185.481 244.969 185.611 245.729 185.87C246.489 186.129 247.093 186.5 247.542 186.984C248.009 187.468 248.337 188.055 248.527 188.746C248.717 189.437 248.812 190.206 248.812 191.052V199.085C248.259 199.206 247.491 199.344 246.506 199.499C245.521 199.672 244.329 199.758 242.93 199.758C242.049 199.758 241.246 199.681 240.521 199.525C239.812 199.37 239.199 199.119 238.681 198.774C238.163 198.411 237.765 197.945 237.489 197.375C237.213 196.804 237.074 196.105 237.074 195.276C237.074 194.481 237.23 193.807 237.541 193.255C237.869 192.702 238.301 192.261 238.836 191.933C239.372 191.605 239.985 191.372 240.676 191.234C241.367 191.078 242.084 191 242.827 191C243.328 191 243.768 191.026 244.148 191.078C244.545 191.113 244.865 191.164 245.107 191.234V190.871C245.107 190.214 244.908 189.687 244.511 189.29C244.114 188.893 243.423 188.694 242.438 188.694C241.782 188.694 241.134 188.746 240.495 188.85C239.855 188.936 239.303 189.066 238.836 189.238L238.344 186.129C238.569 186.06 238.845 185.991 239.173 185.922C239.519 185.835 239.89 185.766 240.287 185.714C240.685 185.645 241.099 185.594 241.531 185.559C241.98 185.507 242.429 185.481 242.878 185.481ZM254.92 196.701C255.629 196.701 256.13 196.632 256.423 196.494C256.717 196.355 256.864 196.088 256.864 195.69C256.864 195.379 256.674 195.112 256.294 194.887C255.914 194.645 255.335 194.377 254.558 194.084C253.953 193.859 253.4 193.626 252.899 193.384C252.416 193.142 252.001 192.857 251.655 192.529C251.31 192.184 251.042 191.778 250.852 191.311C250.662 190.845 250.567 190.283 250.567 189.627C250.567 188.349 251.042 187.338 251.992 186.595C252.942 185.853 254.247 185.481 255.905 185.481C256.734 185.481 257.529 185.559 258.289 185.714C259.049 185.853 259.653 186.008 260.103 186.181L259.429 189.187C258.98 189.031 258.487 188.893 257.952 188.772C257.434 188.651 256.846 188.591 256.19 188.591C254.981 188.591 254.376 188.927 254.376 189.601C254.376 189.757 254.402 189.895 254.454 190.016C254.506 190.137 254.609 190.258 254.765 190.378C254.92 190.482 255.128 190.603 255.387 190.741C255.663 190.862 256.009 191 256.423 191.156C257.27 191.467 257.969 191.778 258.522 192.089C259.075 192.382 259.507 192.71 259.818 193.073C260.146 193.419 260.37 193.807 260.491 194.239C260.629 194.671 260.699 195.172 260.699 195.742C260.699 197.089 260.189 198.109 259.17 198.8C258.168 199.491 256.743 199.836 254.894 199.836C253.685 199.836 252.675 199.732 251.863 199.525C251.068 199.318 250.515 199.145 250.204 199.007L250.852 195.872C251.509 196.131 252.182 196.338 252.873 196.494C253.564 196.632 254.247 196.701 254.92 196.701ZM275.037 192.633C275.037 193.704 274.881 194.688 274.57 195.587C274.259 196.468 273.81 197.228 273.223 197.867C272.635 198.489 271.927 198.972 271.098 199.318C270.286 199.663 269.371 199.836 268.351 199.836C267.35 199.836 266.434 199.663 265.605 199.318C264.793 198.972 264.093 198.489 263.506 197.867C262.919 197.228 262.461 196.468 262.133 195.587C261.805 194.688 261.64 193.704 261.64 192.633C261.64 191.562 261.805 190.586 262.133 189.705C262.478 188.824 262.945 188.072 263.532 187.45C264.137 186.829 264.845 186.345 265.657 185.999C266.486 185.654 267.384 185.481 268.351 185.481C269.336 185.481 270.234 185.654 271.046 185.999C271.875 186.345 272.584 186.829 273.171 187.45C273.758 188.072 274.216 188.824 274.544 189.705C274.873 190.586 275.037 191.562 275.037 192.633ZM271.098 192.633C271.098 191.441 270.856 190.508 270.373 189.834C269.906 189.143 269.232 188.798 268.351 188.798C267.471 188.798 266.788 189.143 266.304 189.834C265.821 190.508 265.579 191.441 265.579 192.633C265.579 193.825 265.821 194.775 266.304 195.483C266.788 196.174 267.471 196.519 268.351 196.519C269.232 196.519 269.906 196.174 270.373 195.483C270.856 194.775 271.098 193.825 271.098 192.633ZM276.732 186.31C277.388 186.12 278.235 185.948 279.271 185.792C280.308 185.619 281.396 185.533 282.536 185.533C283.693 185.533 284.652 185.689 285.412 185.999C286.189 186.293 286.803 186.716 287.252 187.269C287.701 187.822 288.02 188.478 288.21 189.238C288.401 189.998 288.496 190.845 288.496 191.778V199.473H284.635V192.244C284.635 191 284.471 190.119 284.142 189.601C283.814 189.083 283.201 188.824 282.303 188.824C282.026 188.824 281.733 188.841 281.422 188.876C281.111 188.893 280.834 188.919 280.593 188.953V199.473H276.732V186.31ZM295.903 196.779C296.283 196.779 296.645 196.77 296.991 196.753C297.336 196.735 297.613 196.709 297.82 196.675V193.747C297.665 193.712 297.431 193.678 297.121 193.643C296.81 193.609 296.525 193.591 296.265 193.591C295.903 193.591 295.557 193.617 295.229 193.669C294.918 193.704 294.642 193.781 294.4 193.902C294.158 194.023 293.968 194.187 293.83 194.395C293.692 194.602 293.623 194.861 293.623 195.172C293.623 195.777 293.821 196.2 294.218 196.442C294.633 196.666 295.194 196.779 295.903 196.779ZM295.592 185.481C296.732 185.481 297.682 185.611 298.442 185.87C299.202 186.129 299.807 186.5 300.256 186.984C300.722 187.468 301.05 188.055 301.24 188.746C301.43 189.437 301.525 190.206 301.525 191.052V199.085C300.973 199.206 300.204 199.344 299.219 199.499C298.235 199.672 297.043 199.758 295.644 199.758C294.763 199.758 293.959 199.681 293.234 199.525C292.526 199.37 291.912 199.119 291.394 198.774C290.876 198.411 290.479 197.945 290.202 197.375C289.926 196.804 289.788 196.105 289.788 195.276C289.788 194.481 289.943 193.807 290.254 193.255C290.582 192.702 291.014 192.261 291.55 191.933C292.085 191.605 292.698 191.372 293.389 191.234C294.08 191.078 294.797 191 295.54 191C296.041 191 296.481 191.026 296.861 191.078C297.259 191.113 297.578 191.164 297.82 191.234V190.871C297.82 190.214 297.621 189.687 297.224 189.29C296.827 188.893 296.136 188.694 295.151 188.694C294.495 188.694 293.847 188.746 293.208 188.85C292.569 188.936 292.016 189.066 291.55 189.238L291.057 186.129C291.282 186.06 291.558 185.991 291.886 185.922C292.232 185.835 292.603 185.766 293.001 185.714C293.398 185.645 293.813 185.594 294.244 185.559C294.694 185.507 295.143 185.481 295.592 185.481ZM312.453 192.555C312.453 190.068 311.538 188.824 309.707 188.824C309.309 188.824 308.912 188.876 308.515 188.979C308.135 189.083 307.824 189.212 307.582 189.368V196.39C307.772 196.424 308.014 196.459 308.307 196.494C308.601 196.511 308.921 196.519 309.266 196.519C310.32 196.519 311.114 196.157 311.65 195.431C312.185 194.706 312.453 193.747 312.453 192.555ZM316.392 192.659C316.392 193.747 316.228 194.732 315.899 195.613C315.588 196.494 315.131 197.245 314.526 197.867C313.921 198.489 313.179 198.972 312.298 199.318C311.417 199.646 310.415 199.81 309.292 199.81C308.826 199.81 308.333 199.784 307.815 199.732C307.314 199.698 306.813 199.646 306.312 199.577C305.828 199.508 305.362 199.43 304.913 199.344C304.464 199.24 304.067 199.136 303.721 199.033V179.988L307.582 179.366V186.155C308.014 185.965 308.463 185.818 308.929 185.714C309.396 185.611 309.897 185.559 310.432 185.559C311.399 185.559 312.254 185.732 312.997 186.077C313.74 186.405 314.362 186.88 314.863 187.502C315.364 188.124 315.744 188.876 316.003 189.757C316.262 190.62 316.392 191.588 316.392 192.659ZM323.505 199.732C322.382 199.715 321.466 199.594 320.758 199.37C320.067 199.145 319.514 198.834 319.1 198.437C318.702 198.022 318.426 197.53 318.271 196.96C318.132 196.373 318.063 195.716 318.063 194.991V179.988L321.924 179.366V194.213C321.924 194.559 321.95 194.87 322.002 195.146C322.054 195.423 322.149 195.656 322.287 195.846C322.442 196.036 322.658 196.191 322.935 196.312C323.211 196.433 323.582 196.511 324.049 196.545L323.505 199.732ZM336.789 185.844C336.011 188.47 335.199 190.931 334.353 193.229C333.506 195.526 332.582 197.755 331.58 199.914C331.218 200.691 330.855 201.348 330.492 201.883C330.129 202.436 329.732 202.885 329.3 203.23C328.868 203.593 328.376 203.852 327.823 204.008C327.288 204.181 326.657 204.267 325.932 204.267C325.327 204.267 324.766 204.206 324.247 204.086C323.746 203.982 323.332 203.861 323.004 203.723L323.677 200.639C324.075 200.778 324.429 200.873 324.74 200.924C325.051 200.976 325.379 201.002 325.724 201.002C326.415 201.002 326.942 200.812 327.305 200.432C327.685 200.069 328.005 199.56 328.264 198.903C327.383 197.176 326.502 195.241 325.621 193.099C324.74 190.94 323.911 188.521 323.133 185.844H327.227C327.4 186.518 327.599 187.252 327.823 188.046C328.065 188.824 328.316 189.618 328.575 190.43C328.834 191.225 329.093 192.002 329.352 192.762C329.628 193.522 329.887 194.213 330.129 194.835C330.354 194.213 330.587 193.522 330.829 192.762C331.071 192.002 331.304 191.225 331.529 190.43C331.77 189.618 331.995 188.824 332.202 188.046C332.427 187.252 332.625 186.518 332.798 185.844H336.789ZM349.98 192.244C349.98 191 349.816 190.119 349.488 189.601C349.177 189.083 348.633 188.824 347.855 188.824C347.614 188.824 347.363 188.841 347.104 188.876C346.845 188.893 346.594 188.919 346.353 188.953V199.473H342.492V186.31C342.82 186.224 343.2 186.138 343.632 186.051C344.081 185.948 344.547 185.861 345.031 185.792C345.532 185.706 346.042 185.645 346.56 185.611C347.078 185.559 347.588 185.533 348.089 185.533C349.073 185.533 349.868 185.663 350.473 185.922C351.094 186.164 351.604 186.457 352.001 186.803C352.554 186.405 353.185 186.094 353.893 185.87C354.618 185.645 355.283 185.533 355.888 185.533C356.976 185.533 357.866 185.689 358.557 185.999C359.265 186.293 359.827 186.716 360.241 187.269C360.656 187.822 360.941 188.478 361.096 189.238C361.252 189.998 361.329 190.845 361.329 191.778V199.473H357.469V192.244C357.469 191 357.304 190.119 356.976 189.601C356.665 189.083 356.121 188.824 355.344 188.824C355.137 188.824 354.843 188.876 354.463 188.979C354.1 189.083 353.798 189.212 353.556 189.368C353.677 189.765 353.755 190.188 353.789 190.638C353.824 191.069 353.841 191.536 353.841 192.037V199.473H349.98V192.244ZM368.748 196.779C369.128 196.779 369.491 196.77 369.836 196.753C370.182 196.735 370.458 196.709 370.665 196.675V193.747C370.51 193.712 370.277 193.678 369.966 193.643C369.655 193.609 369.37 193.591 369.111 193.591C368.748 193.591 368.402 193.617 368.074 193.669C367.763 193.704 367.487 193.781 367.245 193.902C367.003 194.023 366.813 194.187 366.675 194.395C366.537 194.602 366.468 194.861 366.468 195.172C366.468 195.777 366.666 196.2 367.064 196.442C367.478 196.666 368.04 196.779 368.748 196.779ZM368.437 185.481C369.577 185.481 370.527 185.611 371.287 185.87C372.047 186.129 372.652 186.5 373.101 186.984C373.567 187.468 373.896 188.055 374.086 188.746C374.276 189.437 374.371 190.206 374.371 191.052V199.085C373.818 199.206 373.049 199.344 372.065 199.499C371.08 199.672 369.888 199.758 368.489 199.758C367.608 199.758 366.805 199.681 366.079 199.525C365.371 199.37 364.758 199.119 364.239 198.774C363.721 198.411 363.324 197.945 363.047 197.375C362.771 196.804 362.633 196.105 362.633 195.276C362.633 194.481 362.788 193.807 363.099 193.255C363.427 192.702 363.859 192.261 364.395 191.933C364.93 191.605 365.544 191.372 366.234 191.234C366.925 191.078 367.642 191 368.385 191C368.886 191 369.327 191.026 369.707 191.078C370.104 191.113 370.423 191.164 370.665 191.234V190.871C370.665 190.214 370.467 189.687 370.069 189.29C369.672 188.893 368.981 188.694 367.996 188.694C367.34 188.694 366.692 188.746 366.053 188.85C365.414 188.936 364.861 189.066 364.395 189.238L363.902 186.129C364.127 186.06 364.403 185.991 364.732 185.922C365.077 185.835 365.449 185.766 365.846 185.714C366.243 185.645 366.658 185.594 367.09 185.559C367.539 185.507 367.988 185.481 368.437 185.481ZM380.427 190.767C380.807 190.353 381.196 189.921 381.593 189.472C382.008 189.022 382.405 188.582 382.785 188.15C383.165 187.701 383.519 187.278 383.847 186.88C384.193 186.483 384.486 186.138 384.728 185.844H389.315C388.399 186.898 387.501 187.908 386.62 188.876C385.756 189.826 384.806 190.81 383.77 191.829C384.288 192.296 384.823 192.857 385.376 193.514C385.929 194.153 386.464 194.818 386.983 195.509C387.501 196.2 387.976 196.891 388.408 197.582C388.84 198.273 389.202 198.903 389.496 199.473H385.065C384.789 199.024 384.469 198.532 384.106 197.996C383.761 197.444 383.39 196.899 382.992 196.364C382.595 195.811 382.172 195.284 381.723 194.783C381.291 194.282 380.859 193.859 380.427 193.514V199.473H376.566V179.988L380.427 179.366V190.767ZM394.137 199.473H390.276V185.844H394.137V199.473ZM394.499 181.905C394.499 182.614 394.266 183.175 393.8 183.59C393.351 183.987 392.815 184.186 392.193 184.186C391.572 184.186 391.027 183.987 390.561 183.59C390.112 183.175 389.887 182.614 389.887 181.905C389.887 181.197 390.112 180.644 390.561 180.247C391.027 179.833 391.572 179.625 392.193 179.625C392.815 179.625 393.351 179.833 393.8 180.247C394.266 180.644 394.499 181.197 394.499 181.905ZM396.47 186.31C397.127 186.12 397.973 185.948 399.01 185.792C400.046 185.619 401.134 185.533 402.274 185.533C403.432 185.533 404.391 185.689 405.151 185.999C405.928 186.293 406.541 186.716 406.99 187.269C407.439 187.822 407.759 188.478 407.949 189.238C408.139 189.998 408.234 190.845 408.234 191.778V199.473H404.373V192.244C404.373 191 404.209 190.119 403.881 189.601C403.553 189.083 402.94 188.824 402.041 188.824C401.765 188.824 401.471 188.841 401.16 188.876C400.849 188.893 400.573 188.919 400.331 188.953V199.473H396.47V186.31ZM413.724 192.218C413.724 194.377 414.596 195.457 416.341 195.457C416.738 195.457 417.11 195.405 417.455 195.302C417.801 195.198 418.094 195.077 418.336 194.939V188.772C418.146 188.737 417.921 188.711 417.662 188.694C417.403 188.66 417.101 188.642 416.755 188.642C415.736 188.642 414.976 188.979 414.475 189.653C413.974 190.327 413.724 191.182 413.724 192.218ZM422.197 197.763C422.197 199.992 421.627 201.641 420.487 202.712C419.364 203.801 417.619 204.345 415.253 204.345C414.423 204.345 413.594 204.267 412.765 204.111C411.936 203.973 411.167 203.783 410.459 203.541L411.133 200.302C411.737 200.544 412.368 200.734 413.024 200.873C413.698 201.011 414.458 201.08 415.304 201.08C416.41 201.08 417.187 200.838 417.636 200.354C418.103 199.871 418.336 199.249 418.336 198.489V197.996C417.921 198.186 417.49 198.333 417.04 198.437C416.609 198.523 416.134 198.566 415.615 198.566C413.732 198.566 412.29 198.014 411.288 196.908C410.286 195.785 409.785 194.222 409.785 192.218C409.785 191.216 409.941 190.309 410.252 189.497C410.563 188.668 411.012 187.96 411.599 187.373C412.204 186.785 412.938 186.336 413.802 186.025C414.665 185.697 415.641 185.533 416.73 185.533C417.196 185.533 417.671 185.559 418.155 185.611C418.656 185.645 419.148 185.697 419.632 185.766C420.115 185.835 420.573 185.922 421.005 186.025C421.454 186.112 421.851 186.207 422.197 186.31V197.763ZM435.359 179.366C436.085 179.366 436.75 179.444 437.355 179.599C437.959 179.738 438.426 179.876 438.754 180.014L438.002 183.097C437.657 182.942 437.277 182.83 436.862 182.761C436.465 182.674 436.094 182.631 435.748 182.631C435.282 182.631 434.884 182.7 434.556 182.838C434.245 182.959 433.995 183.132 433.805 183.356C433.632 183.581 433.502 183.849 433.416 184.16C433.347 184.471 433.312 184.808 433.312 185.17V185.844H438.08V189.057H433.312V199.473H429.452V185.118C429.452 183.356 429.944 181.957 430.929 180.921C431.93 179.884 433.407 179.366 435.359 179.366ZM451.633 192.633C451.633 193.704 451.478 194.688 451.167 195.587C450.856 196.468 450.407 197.228 449.82 197.867C449.232 198.489 448.524 198.972 447.695 199.318C446.883 199.663 445.967 199.836 444.948 199.836C443.946 199.836 443.031 199.663 442.202 199.318C441.39 198.972 440.69 198.489 440.103 197.867C439.515 197.228 439.058 196.468 438.729 195.587C438.401 194.688 438.237 193.704 438.237 192.633C438.237 191.562 438.401 190.586 438.729 189.705C439.075 188.824 439.541 188.072 440.129 187.45C440.733 186.829 441.442 186.345 442.253 185.999C443.083 185.654 443.981 185.481 444.948 185.481C445.933 185.481 446.831 185.654 447.643 185.999C448.472 186.345 449.18 186.829 449.768 187.45C450.355 188.072 450.813 188.824 451.141 189.705C451.469 190.586 451.633 191.562 451.633 192.633ZM447.695 192.633C447.695 191.441 447.453 190.508 446.969 189.834C446.503 189.143 445.829 188.798 444.948 188.798C444.067 188.798 443.385 189.143 442.901 189.834C442.418 190.508 442.176 191.441 442.176 192.633C442.176 193.825 442.418 194.775 442.901 195.483C443.385 196.174 444.067 196.519 444.948 196.519C445.829 196.519 446.503 196.174 446.969 195.483C447.453 194.775 447.695 193.825 447.695 192.633ZM461.542 189.264C461.197 189.178 460.791 189.092 460.325 189.005C459.858 188.902 459.357 188.85 458.822 188.85C458.58 188.85 458.286 188.876 457.941 188.927C457.612 188.962 457.362 189.005 457.189 189.057V199.473H453.328V186.569C454.019 186.328 454.831 186.103 455.764 185.896C456.714 185.671 457.768 185.559 458.925 185.559C459.133 185.559 459.383 185.576 459.677 185.611C459.97 185.628 460.264 185.663 460.558 185.714C460.851 185.749 461.145 185.801 461.439 185.87C461.732 185.922 461.983 185.991 462.19 186.077L461.542 189.264ZM470.453 192.244C470.453 191 470.289 190.119 469.96 189.601C469.649 189.083 469.105 188.824 468.328 188.824C468.086 188.824 467.836 188.841 467.576 188.876C467.317 188.893 467.067 188.919 466.825 188.953V199.473H462.964V186.31C463.292 186.224 463.672 186.138 464.104 186.051C464.553 185.948 465.02 185.861 465.504 185.792C466.005 185.706 466.514 185.645 467.032 185.611C467.551 185.559 468.06 185.533 468.561 185.533C469.546 185.533 470.34 185.663 470.945 185.922C471.567 186.164 472.076 186.457 472.474 186.803C473.026 186.405 473.657 186.094 474.365 185.87C475.091 185.645 475.756 185.533 476.36 185.533C477.449 185.533 478.338 185.689 479.029 185.999C479.737 186.293 480.299 186.716 480.713 187.269C481.128 187.822 481.413 188.478 481.569 189.238C481.724 189.998 481.802 190.845 481.802 191.778V199.473H477.941V192.244C477.941 191 477.777 190.119 477.449 189.601C477.138 189.083 476.594 188.824 475.816 188.824C475.609 188.824 475.315 188.876 474.935 188.979C474.573 189.083 474.27 189.212 474.028 189.368C474.149 189.765 474.227 190.188 474.262 190.638C474.296 191.069 474.313 191.536 474.313 192.037V199.473H470.453V192.244ZM487.925 196.701C488.633 196.701 489.134 196.632 489.428 196.494C489.721 196.355 489.868 196.088 489.868 195.69C489.868 195.379 489.678 195.112 489.298 194.887C488.918 194.645 488.339 194.377 487.562 194.084C486.957 193.859 486.405 193.626 485.904 193.384C485.42 193.142 485.005 192.857 484.66 192.529C484.314 192.184 484.047 191.778 483.857 191.311C483.667 190.845 483.572 190.283 483.572 189.627C483.572 188.349 484.047 187.338 484.997 186.595C485.947 185.853 487.251 185.481 488.909 185.481C489.739 185.481 490.533 185.559 491.293 185.714C492.053 185.853 492.658 186.008 493.107 186.181L492.433 189.187C491.984 189.031 491.492 188.893 490.956 188.772C490.438 188.651 489.851 188.591 489.194 188.591C487.985 188.591 487.381 188.927 487.381 189.601C487.381 189.757 487.407 189.895 487.458 190.016C487.51 190.137 487.614 190.258 487.769 190.378C487.925 190.482 488.132 190.603 488.391 190.741C488.668 190.862 489.013 191 489.428 191.156C490.274 191.467 490.974 191.778 491.526 192.089C492.079 192.382 492.511 192.71 492.822 193.073C493.15 193.419 493.375 193.807 493.496 194.239C493.634 194.671 493.703 195.172 493.703 195.742C493.703 197.089 493.193 198.109 492.174 198.8C491.172 199.491 489.747 199.836 487.899 199.836C486.69 199.836 485.679 199.732 484.867 199.525C484.073 199.318 483.52 199.145 483.209 199.007L483.857 195.872C484.513 196.131 485.187 196.338 485.878 196.494C486.569 196.632 487.251 196.701 487.925 196.701ZM508.513 191.648C508.168 192.961 507.797 194.265 507.399 195.561C507.019 196.856 506.613 198.16 506.181 199.473H503.176C502.865 198.748 502.528 197.884 502.165 196.882C501.802 195.88 501.422 194.792 501.025 193.617C500.645 192.425 500.248 191.173 499.833 189.86C499.436 188.53 499.047 187.191 498.667 185.844H502.735C502.873 186.466 503.02 187.148 503.176 187.891C503.349 188.616 503.521 189.368 503.694 190.145C503.884 190.923 504.074 191.709 504.264 192.503C504.471 193.281 504.679 194.032 504.886 194.757C505.11 193.997 505.326 193.22 505.534 192.425C505.758 191.631 505.966 190.853 506.156 190.093C506.363 189.316 506.553 188.573 506.726 187.865C506.916 187.14 507.08 186.466 507.218 185.844H510.016C510.155 186.466 510.31 187.14 510.483 187.865C510.655 188.573 510.837 189.316 511.027 190.093C511.217 190.853 511.416 191.631 511.623 192.425C511.83 193.22 512.046 193.997 512.271 194.757C512.478 194.032 512.685 193.281 512.893 192.503C513.1 191.709 513.29 190.923 513.463 190.145C513.653 189.368 513.825 188.616 513.981 187.891C514.154 187.148 514.309 186.466 514.447 185.844H518.463C518.083 187.191 517.686 188.53 517.272 189.86C516.874 191.173 516.477 192.425 516.08 193.617C515.7 194.792 515.32 195.88 514.939 196.882C514.577 197.884 514.24 198.748 513.929 199.473H510.923C510.491 198.16 510.068 196.856 509.654 195.561C509.239 194.265 508.859 192.961 508.513 191.648ZM523.106 199.473H519.245V185.844H523.106V199.473ZM523.469 181.905C523.469 182.614 523.236 183.175 522.769 183.59C522.32 183.987 521.785 184.186 521.163 184.186C520.541 184.186 519.997 183.987 519.53 183.59C519.081 183.175 518.857 182.614 518.857 181.905C518.857 181.197 519.081 180.644 519.53 180.247C519.997 179.833 520.541 179.625 521.163 179.625C521.785 179.625 522.32 179.833 522.769 180.247C523.236 180.644 523.469 181.197 523.469 181.905ZM525.31 182.45L529.171 181.828V185.844H533.809V189.057H529.171V193.851C529.171 194.662 529.309 195.31 529.586 195.794C529.879 196.278 530.458 196.519 531.322 196.519C531.736 196.519 532.16 196.485 532.591 196.416C533.041 196.329 533.446 196.217 533.809 196.079L534.353 199.085C533.887 199.275 533.369 199.439 532.799 199.577C532.229 199.715 531.529 199.784 530.7 199.784C529.646 199.784 528.774 199.646 528.083 199.37C527.392 199.076 526.839 198.679 526.424 198.178C526.01 197.66 525.716 197.038 525.544 196.312C525.388 195.587 525.31 194.783 525.31 193.902V182.45ZM535.658 199.473V179.988L539.518 179.366V185.896C539.778 185.809 540.106 185.732 540.503 185.663C540.918 185.576 541.315 185.533 541.695 185.533C542.8 185.533 543.716 185.689 544.442 185.999C545.184 186.293 545.772 186.716 546.204 187.269C546.653 187.822 546.964 188.478 547.136 189.238C547.326 189.998 547.421 190.845 547.421 191.778V199.473H543.561V192.244C543.561 191 543.396 190.119 543.068 189.601C542.757 189.083 542.17 188.824 541.306 188.824C540.961 188.824 540.633 188.858 540.322 188.927C540.028 188.979 539.76 189.04 539.518 189.109V199.473H535.658ZM659.688 196.779C660.068 196.779 660.431 196.77 660.777 196.753C661.122 196.735 661.399 196.709 661.606 196.675V193.747C661.45 193.712 661.217 193.678 660.906 193.643C660.595 193.609 660.31 193.591 660.051 193.591C659.688 193.591 659.343 193.617 659.015 193.669C658.704 193.704 658.427 193.781 658.186 193.902C657.944 194.023 657.754 194.187 657.615 194.395C657.477 194.602 657.408 194.861 657.408 195.172C657.408 195.777 657.607 196.2 658.004 196.442C658.419 196.666 658.98 196.779 659.688 196.779ZM659.377 185.481C660.518 185.481 661.468 185.611 662.228 185.87C662.988 186.129 663.592 186.5 664.041 186.984C664.508 187.468 664.836 188.055 665.026 188.746C665.216 189.437 665.311 190.206 665.311 191.052V199.085C664.758 199.206 663.99 199.344 663.005 199.499C662.02 199.672 660.828 199.758 659.429 199.758C658.548 199.758 657.745 199.681 657.02 199.525C656.311 199.37 655.698 199.119 655.18 198.774C654.662 198.411 654.264 197.945 653.988 197.375C653.712 196.804 653.573 196.105 653.573 195.276C653.573 194.481 653.729 193.807 654.04 193.255C654.368 192.702 654.8 192.261 655.335 191.933C655.871 191.605 656.484 191.372 657.175 191.234C657.866 191.078 658.583 191 659.326 191C659.827 191 660.267 191.026 660.647 191.078C661.044 191.113 661.364 191.164 661.606 191.234V190.871C661.606 190.214 661.407 189.687 661.01 189.29C660.613 188.893 659.922 188.694 658.937 188.694C658.281 188.694 657.633 188.746 656.994 188.85C656.354 188.936 655.802 189.066 655.335 189.238L654.843 186.129C655.068 186.06 655.344 185.991 655.672 185.922C656.018 185.835 656.389 185.766 656.786 185.714C657.184 185.645 657.598 185.594 658.03 185.559C658.479 185.507 658.928 185.481 659.377 185.481ZM667.507 186.31C668.163 186.12 669.01 185.948 670.046 185.792C671.082 185.619 672.171 185.533 673.311 185.533C674.468 185.533 675.427 185.689 676.187 185.999C676.964 186.293 677.578 186.716 678.027 187.269C678.476 187.822 678.795 188.478 678.985 189.238C679.175 189.998 679.27 190.845 679.27 191.778V199.473H675.41V192.244C675.41 191 675.246 190.119 674.917 189.601C674.589 189.083 673.976 188.824 673.078 188.824C672.801 188.824 672.508 188.841 672.197 188.876C671.886 188.893 671.609 188.919 671.367 188.953V199.473H667.507V186.31ZM684.76 192.555C684.76 193.747 685.028 194.706 685.563 195.431C686.099 196.157 686.894 196.519 687.947 196.519C688.293 196.519 688.612 196.511 688.906 196.494C689.2 196.459 689.442 196.424 689.632 196.39V189.368C689.39 189.212 689.07 189.083 688.673 188.979C688.293 188.876 687.904 188.824 687.507 188.824C685.676 188.824 684.76 190.068 684.76 192.555ZM693.492 199.033C693.147 199.136 692.75 199.24 692.3 199.344C691.851 199.43 691.376 199.508 690.875 199.577C690.392 199.646 689.891 199.698 689.372 199.732C688.871 199.784 688.388 199.81 687.921 199.81C686.799 199.81 685.797 199.646 684.916 199.318C684.035 198.99 683.292 198.523 682.687 197.919C682.083 197.297 681.616 196.554 681.288 195.69C680.977 194.809 680.822 193.825 680.822 192.736C680.822 191.631 680.96 190.638 681.236 189.757C681.513 188.858 681.91 188.098 682.428 187.476C682.946 186.855 683.577 186.379 684.32 186.051C685.08 185.723 685.943 185.559 686.911 185.559C687.446 185.559 687.921 185.611 688.336 185.714C688.768 185.818 689.2 185.965 689.632 186.155V179.988L693.492 179.366V199.033ZM424.958 226.701C425.666 226.701 426.167 226.632 426.461 226.494C426.755 226.355 426.902 226.088 426.902 225.69C426.902 225.379 426.712 225.112 426.332 224.887C425.951 224.645 425.373 224.377 424.595 224.084C423.991 223.859 423.438 223.626 422.937 223.384C422.453 223.142 422.039 222.857 421.693 222.529C421.348 222.184 421.08 221.778 420.89 221.311C420.7 220.845 420.605 220.283 420.605 219.627C420.605 218.349 421.08 217.338 422.03 216.595C422.98 215.853 424.285 215.481 425.943 215.481C426.772 215.481 427.567 215.559 428.327 215.714C429.087 215.853 429.691 216.008 430.14 216.181L429.467 219.187C429.018 219.031 428.525 218.893 427.99 218.772C427.472 218.651 426.884 218.591 426.228 218.591C425.019 218.591 424.414 218.927 424.414 219.601C424.414 219.757 424.44 219.895 424.492 220.016C424.544 220.137 424.647 220.258 424.803 220.378C424.958 220.482 425.166 220.603 425.425 220.741C425.701 220.862 426.047 221 426.461 221.156C427.308 221.467 428.007 221.778 428.56 222.089C429.113 222.382 429.545 222.71 429.855 223.073C430.184 223.419 430.408 223.807 430.529 224.239C430.667 224.671 430.736 225.172 430.736 225.742C430.736 227.089 430.227 228.109 429.208 228.8C428.206 229.491 426.781 229.836 424.932 229.836C423.723 229.836 422.713 229.732 421.901 229.525C421.106 229.318 420.553 229.145 420.242 229.007L420.89 225.872C421.547 226.131 422.22 226.338 422.911 226.494C423.602 226.632 424.285 226.701 424.958 226.701ZM445.075 222.633C445.075 223.704 444.919 224.688 444.608 225.587C444.297 226.468 443.848 227.228 443.261 227.867C442.673 228.489 441.965 228.972 441.136 229.318C440.324 229.663 439.409 229.836 438.389 229.836C437.387 229.836 436.472 229.663 435.643 229.318C434.831 228.972 434.131 228.489 433.544 227.867C432.957 227.228 432.499 226.468 432.171 225.587C431.842 224.688 431.678 223.704 431.678 222.633C431.678 221.562 431.842 220.586 432.171 219.705C432.516 218.824 432.983 218.072 433.57 217.45C434.174 216.829 434.883 216.345 435.695 215.999C436.524 215.654 437.422 215.481 438.389 215.481C439.374 215.481 440.272 215.654 441.084 215.999C441.913 216.345 442.622 216.829 443.209 217.45C443.796 218.072 444.254 218.824 444.582 219.705C444.91 220.586 445.075 221.562 445.075 222.633ZM441.136 222.633C441.136 221.441 440.894 220.508 440.41 219.834C439.944 219.143 439.27 218.798 438.389 218.798C437.508 218.798 436.826 219.143 436.342 219.834C435.859 220.508 435.617 221.441 435.617 222.633C435.617 223.825 435.859 224.775 436.342 225.483C436.826 226.174 437.508 226.519 438.389 226.519C439.27 226.519 439.944 226.174 440.41 225.483C440.894 224.775 441.136 223.825 441.136 222.633ZM458.404 229.007C457.747 229.197 456.901 229.37 455.865 229.525C454.828 229.698 453.74 229.784 452.6 229.784C451.442 229.784 450.475 229.629 449.698 229.318C448.938 229.007 448.333 228.575 447.884 228.022C447.435 227.452 447.115 226.779 446.925 226.001C446.735 225.224 446.64 224.369 446.64 223.436V215.844H450.501V222.97C450.501 224.213 450.665 225.112 450.993 225.664C451.321 226.217 451.935 226.494 452.833 226.494C453.109 226.494 453.403 226.485 453.714 226.468C454.025 226.433 454.301 226.399 454.543 226.364V215.844H458.404V229.007ZM460.732 216.31C461.389 216.12 462.235 215.948 463.272 215.792C464.308 215.619 465.396 215.533 466.537 215.533C467.694 215.533 468.653 215.689 469.413 215.999C470.19 216.293 470.803 216.716 471.252 217.269C471.702 217.822 472.021 218.478 472.211 219.238C472.401 219.998 472.496 220.845 472.496 221.778V229.473H468.635V222.244C468.635 221 468.471 220.119 468.143 219.601C467.815 219.083 467.202 218.824 466.303 218.824C466.027 218.824 465.733 218.841 465.422 218.876C465.111 218.893 464.835 218.919 464.593 218.953V229.473H460.732V216.31ZM477.986 222.555C477.986 223.747 478.254 224.706 478.789 225.431C479.325 226.157 480.119 226.519 481.173 226.519C481.519 226.519 481.838 226.511 482.132 226.494C482.425 226.459 482.667 226.424 482.857 226.39V219.368C482.615 219.212 482.296 219.083 481.899 218.979C481.519 218.876 481.13 218.824 480.733 218.824C478.901 218.824 477.986 220.068 477.986 222.555ZM486.718 229.033C486.373 229.136 485.975 229.24 485.526 229.344C485.077 229.43 484.602 229.508 484.101 229.577C483.617 229.646 483.116 229.698 482.598 229.732C482.097 229.784 481.614 229.81 481.147 229.81C480.024 229.81 479.022 229.646 478.141 229.318C477.26 228.99 476.518 228.523 475.913 227.919C475.308 227.297 474.842 226.554 474.514 225.69C474.203 224.809 474.047 223.825 474.047 222.736C474.047 221.631 474.186 220.638 474.462 219.757C474.738 218.858 475.136 218.098 475.654 217.476C476.172 216.855 476.803 216.379 477.545 216.051C478.306 215.723 479.169 215.559 480.137 215.559C480.672 215.559 481.147 215.611 481.562 215.714C481.994 215.818 482.425 215.965 482.857 216.155V209.988L486.718 209.366V229.033ZM497.257 222.218C497.257 224.377 498.13 225.457 499.874 225.457C500.272 225.457 500.643 225.405 500.989 225.302C501.334 225.198 501.628 225.077 501.87 224.939V218.772C501.68 218.737 501.455 218.711 501.196 218.694C500.937 218.66 500.635 218.642 500.289 218.642C499.27 218.642 498.51 218.979 498.009 219.653C497.508 220.327 497.257 221.182 497.257 222.218ZM505.73 227.763C505.73 229.992 505.16 231.641 504.02 232.712C502.897 233.801 501.153 234.345 498.786 234.345C497.957 234.345 497.128 234.267 496.299 234.111C495.47 233.973 494.701 233.783 493.993 233.541L494.666 230.302C495.271 230.544 495.901 230.734 496.558 230.873C497.232 231.011 497.992 231.08 498.838 231.08C499.944 231.08 500.721 230.838 501.17 230.354C501.636 229.871 501.87 229.249 501.87 228.489V227.996C501.455 228.186 501.023 228.333 500.574 228.437C500.142 228.523 499.667 228.566 499.149 228.566C497.266 228.566 495.824 228.014 494.822 226.908C493.82 225.785 493.319 224.222 493.319 222.218C493.319 221.216 493.474 220.309 493.785 219.497C494.096 218.668 494.545 217.96 495.133 217.373C495.737 216.785 496.471 216.336 497.335 216.025C498.199 215.697 499.175 215.533 500.263 215.533C500.73 215.533 501.205 215.559 501.688 215.611C502.189 215.645 502.682 215.697 503.165 215.766C503.649 215.835 504.107 215.922 504.539 216.025C504.988 216.112 505.385 216.207 505.73 216.31V227.763ZM520.804 222.633C520.804 223.704 520.649 224.688 520.338 225.587C520.027 226.468 519.578 227.228 518.991 227.867C518.403 228.489 517.695 228.972 516.866 229.318C516.054 229.663 515.138 229.836 514.119 229.836C513.117 229.836 512.202 229.663 511.373 229.318C510.561 228.972 509.861 228.489 509.274 227.867C508.686 227.228 508.229 226.468 507.901 225.587C507.572 224.688 507.408 223.704 507.408 222.633C507.408 221.562 507.572 220.586 507.901 219.705C508.246 218.824 508.712 218.072 509.3 217.45C509.904 216.829 510.613 216.345 511.424 215.999C512.254 215.654 513.152 215.481 514.119 215.481C515.104 215.481 516.002 215.654 516.814 215.999C517.643 216.345 518.351 216.829 518.939 217.45C519.526 218.072 519.984 218.824 520.312 219.705C520.64 220.586 520.804 221.562 520.804 222.633ZM516.866 222.633C516.866 221.441 516.624 220.508 516.14 219.834C515.674 219.143 515 218.798 514.119 218.798C513.238 218.798 512.556 219.143 512.072 219.834C511.589 220.508 511.347 221.441 511.347 222.633C511.347 223.825 511.589 224.775 512.072 225.483C512.556 226.174 513.238 226.519 514.119 226.519C515 226.519 515.674 226.174 516.14 225.483C516.624 224.775 516.866 223.825 516.866 222.633ZM535.248 222.633C535.248 223.704 535.092 224.688 534.781 225.587C534.471 226.468 534.021 227.228 533.434 227.867C532.847 228.489 532.139 228.972 531.309 229.318C530.497 229.663 529.582 229.836 528.563 229.836C527.561 229.836 526.645 229.663 525.816 229.318C525.004 228.972 524.305 228.489 523.717 227.867C523.13 227.228 522.672 226.468 522.344 225.587C522.016 224.688 521.852 223.704 521.852 222.633C521.852 221.562 522.016 220.586 522.344 219.705C522.69 218.824 523.156 218.072 523.743 217.45C524.348 216.829 525.056 216.345 525.868 215.999C526.697 215.654 527.595 215.481 528.563 215.481C529.547 215.481 530.446 215.654 531.258 215.999C532.087 216.345 532.795 216.829 533.382 217.45C533.97 218.072 534.427 218.824 534.756 219.705C535.084 220.586 535.248 221.562 535.248 222.633ZM531.309 222.633C531.309 221.441 531.068 220.508 530.584 219.834C530.117 219.143 529.444 218.798 528.563 218.798C527.682 218.798 526.999 219.143 526.516 219.834C526.032 220.508 525.79 221.441 525.79 222.633C525.79 223.825 526.032 224.775 526.516 225.483C526.999 226.174 527.682 226.519 528.563 226.519C529.444 226.519 530.117 226.174 530.584 225.483C531.068 224.775 531.309 223.825 531.309 222.633ZM540.234 222.555C540.234 223.747 540.502 224.706 541.037 225.431C541.573 226.157 542.367 226.519 543.421 226.519C543.766 226.519 544.086 226.511 544.38 226.494C544.673 226.459 544.915 226.424 545.105 226.39V219.368C544.863 219.212 544.544 219.083 544.146 218.979C543.766 218.876 543.378 218.824 542.98 218.824C541.149 218.824 540.234 220.068 540.234 222.555ZM548.966 229.033C548.62 229.136 548.223 229.24 547.774 229.344C547.325 229.43 546.85 229.508 546.349 229.577C545.865 229.646 545.364 229.698 544.846 229.732C544.345 229.784 543.861 229.81 543.395 229.81C542.272 229.81 541.27 229.646 540.389 229.318C539.508 228.99 538.765 228.523 538.161 227.919C537.556 227.297 537.09 226.554 536.762 225.69C536.451 224.809 536.295 223.825 536.295 222.736C536.295 221.631 536.433 220.638 536.71 219.757C536.986 218.858 537.384 218.098 537.902 217.476C538.42 216.855 539.051 216.379 539.793 216.051C540.553 215.723 541.417 215.559 542.384 215.559C542.92 215.559 543.395 215.611 543.81 215.714C544.241 215.818 544.673 215.965 545.105 216.155V209.988L548.966 209.366V229.033Z" fill="black"/>
<path d="M560.069 181.309C562.763 181.309 564.828 181.793 566.261 182.761C567.695 183.711 568.412 185.196 568.412 187.217C568.412 188.478 568.118 189.506 567.531 190.301C566.961 191.078 566.132 191.691 565.044 192.14C565.406 192.59 565.786 193.108 566.184 193.695C566.581 194.265 566.97 194.87 567.35 195.509C567.747 196.131 568.127 196.787 568.49 197.478C568.853 198.152 569.189 198.817 569.5 199.473H564.966C564.638 198.886 564.301 198.29 563.955 197.685C563.627 197.081 563.282 196.494 562.919 195.923C562.573 195.353 562.228 194.818 561.882 194.317C561.537 193.799 561.192 193.332 560.846 192.918H558.851V199.473H554.809V181.776C555.69 181.603 556.597 181.482 557.529 181.413C558.479 181.344 559.326 181.309 560.069 181.309ZM560.302 184.756C560.008 184.756 559.74 184.764 559.499 184.782C559.274 184.799 559.058 184.816 558.851 184.833V189.705H559.991C561.511 189.705 562.599 189.515 563.256 189.135C563.912 188.755 564.24 188.107 564.24 187.191C564.24 186.31 563.904 185.689 563.23 185.326C562.573 184.946 561.597 184.756 560.302 184.756ZM569.231 192.762C569.231 191.553 569.412 190.499 569.775 189.601C570.155 188.686 570.647 187.926 571.252 187.321C571.857 186.716 572.548 186.259 573.325 185.948C574.12 185.637 574.931 185.481 575.761 185.481C577.695 185.481 579.224 186.077 580.347 187.269C581.47 188.444 582.031 190.18 582.031 192.477C582.031 192.702 582.023 192.952 582.005 193.229C581.988 193.488 581.971 193.721 581.953 193.928H573.195C573.282 194.723 573.653 195.353 574.31 195.82C574.966 196.286 575.847 196.519 576.953 196.519C577.661 196.519 578.352 196.459 579.025 196.338C579.716 196.2 580.278 196.036 580.71 195.846L581.228 198.981C581.021 199.085 580.744 199.188 580.399 199.292C580.053 199.396 579.665 199.482 579.233 199.551C578.818 199.637 578.369 199.707 577.885 199.758C577.402 199.81 576.918 199.836 576.434 199.836C575.208 199.836 574.137 199.655 573.221 199.292C572.323 198.929 571.572 198.437 570.967 197.815C570.38 197.176 569.939 196.424 569.646 195.561C569.369 194.697 569.231 193.764 569.231 192.762ZM578.3 191.285C578.283 190.957 578.222 190.638 578.119 190.327C578.032 190.016 577.885 189.739 577.678 189.497C577.488 189.256 577.238 189.057 576.927 188.902C576.633 188.746 576.262 188.668 575.812 188.668C575.381 188.668 575.009 188.746 574.698 188.902C574.387 189.04 574.128 189.23 573.921 189.472C573.714 189.713 573.55 189.998 573.429 190.327C573.325 190.638 573.247 190.957 573.195 191.285H578.3ZM588.871 196.39C589.441 196.39 589.908 196.347 590.271 196.26C590.651 196.157 590.953 196.027 591.177 195.872C591.402 195.699 591.557 195.5 591.644 195.276C591.73 195.051 591.773 194.801 591.773 194.524C591.773 193.937 591.497 193.453 590.944 193.073C590.391 192.676 589.441 192.253 588.094 191.804C587.507 191.596 586.919 191.363 586.332 191.104C585.745 190.828 585.218 190.491 584.751 190.093C584.285 189.679 583.905 189.187 583.611 188.616C583.318 188.029 583.171 187.321 583.171 186.492C583.171 185.663 583.326 184.92 583.637 184.263C583.948 183.59 584.389 183.02 584.959 182.553C585.529 182.087 586.22 181.733 587.032 181.491C587.844 181.232 588.759 181.102 589.778 181.102C590.987 181.102 592.033 181.232 592.913 181.491C593.794 181.75 594.52 182.035 595.09 182.346L593.924 185.533C593.423 185.274 592.862 185.049 592.24 184.859C591.635 184.652 590.901 184.548 590.037 184.548C589.07 184.548 588.37 184.687 587.939 184.963C587.524 185.222 587.317 185.628 587.317 186.181C587.317 186.509 587.394 186.785 587.55 187.01C587.705 187.235 587.921 187.442 588.198 187.632C588.491 187.805 588.82 187.969 589.182 188.124C589.562 188.262 589.977 188.409 590.426 188.565C591.359 188.91 592.171 189.256 592.862 189.601C593.553 189.929 594.123 190.318 594.572 190.767C595.038 191.216 595.384 191.743 595.608 192.348C595.833 192.952 595.945 193.686 595.945 194.55C595.945 196.226 595.358 197.53 594.183 198.463C593.008 199.378 591.238 199.836 588.871 199.836C588.077 199.836 587.36 199.784 586.721 199.681C586.082 199.594 585.511 199.482 585.011 199.344C584.527 199.206 584.104 199.059 583.741 198.903C583.395 198.748 583.102 198.601 582.86 198.463L584 195.25C584.536 195.543 585.192 195.811 585.969 196.053C586.764 196.278 587.731 196.39 588.871 196.39ZM596.853 192.659C596.853 191.674 597.008 190.75 597.319 189.886C597.647 189.005 598.114 188.245 598.718 187.606C599.323 186.95 600.057 186.431 600.921 186.051C601.785 185.671 602.769 185.481 603.875 185.481C604.6 185.481 605.265 185.55 605.87 185.689C606.475 185.809 607.062 185.991 607.632 186.233L606.829 189.316C606.466 189.178 606.069 189.057 605.637 188.953C605.205 188.85 604.721 188.798 604.186 188.798C603.046 188.798 602.191 189.152 601.621 189.86C601.068 190.568 600.791 191.501 600.791 192.659C600.791 193.885 601.05 194.835 601.569 195.509C602.104 196.183 603.028 196.519 604.341 196.519C604.808 196.519 605.309 196.476 605.844 196.39C606.38 196.304 606.872 196.165 607.321 195.975L607.865 199.136C607.416 199.326 606.855 199.491 606.181 199.629C605.507 199.767 604.764 199.836 603.953 199.836C602.709 199.836 601.638 199.655 600.74 199.292C599.841 198.912 599.098 198.402 598.511 197.763C597.941 197.124 597.518 196.373 597.242 195.509C596.982 194.628 596.853 193.678 596.853 192.659ZM617.375 189.264C617.029 189.178 616.623 189.092 616.157 189.005C615.69 188.902 615.189 188.85 614.654 188.85C614.412 188.85 614.118 188.876 613.773 188.927C613.445 188.962 613.194 189.005 613.022 189.057V199.473H609.161V186.569C609.852 186.328 610.664 186.103 611.596 185.896C612.546 185.671 613.6 185.559 614.758 185.559C614.965 185.559 615.215 185.576 615.509 185.611C615.803 185.628 616.096 185.663 616.39 185.714C616.684 185.749 616.977 185.801 617.271 185.87C617.565 185.922 617.815 185.991 618.022 186.077L617.375 189.264ZM622.657 199.473H618.796V185.844H622.657V199.473ZM623.02 181.905C623.02 182.614 622.787 183.175 622.32 183.59C621.871 183.987 621.336 184.186 620.714 184.186C620.092 184.186 619.548 183.987 619.081 183.59C618.632 183.175 618.408 182.614 618.408 181.905C618.408 181.197 618.632 180.644 619.081 180.247C619.548 179.833 620.092 179.625 620.714 179.625C621.336 179.625 621.871 179.833 622.32 180.247C622.787 180.644 623.02 181.197 623.02 181.905ZM633.723 192.762C633.723 191.57 633.455 190.62 632.92 189.912C632.384 189.187 631.59 188.824 630.536 188.824C630.19 188.824 629.871 188.841 629.577 188.876C629.284 188.893 629.042 188.919 628.852 188.953V195.923C629.094 196.079 629.404 196.209 629.784 196.312C630.182 196.416 630.579 196.468 630.976 196.468C632.807 196.468 633.723 195.233 633.723 192.762ZM637.662 192.659C637.662 193.712 637.532 194.671 637.273 195.535C637.014 196.399 636.634 197.141 636.133 197.763C635.632 198.385 635.01 198.869 634.267 199.214C633.524 199.56 632.669 199.732 631.702 199.732C631.166 199.732 630.665 199.681 630.199 199.577C629.733 199.473 629.284 199.326 628.852 199.136V204.267H624.991V186.31C625.336 186.207 625.734 186.112 626.183 186.025C626.632 185.922 627.098 185.835 627.582 185.766C628.083 185.697 628.584 185.645 629.085 185.611C629.603 185.559 630.095 185.533 630.562 185.533C631.685 185.533 632.687 185.706 633.568 186.051C634.449 186.379 635.191 186.855 635.796 187.476C636.4 188.081 636.858 188.824 637.169 189.705C637.497 190.586 637.662 191.57 637.662 192.659ZM639.204 182.45L643.064 181.828V185.844H647.703V189.057H643.064V193.851C643.064 194.662 643.203 195.31 643.479 195.794C643.773 196.278 644.351 196.519 645.215 196.519C645.63 196.519 646.053 196.485 646.485 196.416C646.934 196.329 647.34 196.217 647.703 196.079L648.247 199.085C647.78 199.275 647.262 199.439 646.692 199.577C646.122 199.715 645.422 199.784 644.593 199.784C643.539 199.784 642.667 199.646 641.976 199.37C641.285 199.076 640.732 198.679 640.318 198.178C639.903 197.66 639.61 197.038 639.437 196.312C639.281 195.587 639.204 194.783 639.204 193.902V182.45ZM357.566 211.309C360.261 211.309 362.325 211.793 363.759 212.761C365.192 213.711 365.909 215.196 365.909 217.217C365.909 218.478 365.616 219.506 365.028 220.301C364.458 221.078 363.629 221.691 362.541 222.14C362.903 222.59 363.284 223.108 363.681 223.695C364.078 224.265 364.467 224.87 364.847 225.509C365.244 226.131 365.624 226.787 365.987 227.478C366.35 228.152 366.687 228.817 366.997 229.473H362.463C362.135 228.886 361.798 228.29 361.452 227.685C361.124 227.081 360.779 226.494 360.416 225.923C360.071 225.353 359.725 224.818 359.38 224.317C359.034 223.799 358.689 223.332 358.343 222.918H356.348V229.473H352.306V211.776C353.187 211.603 354.094 211.482 355.026 211.413C355.977 211.344 356.823 211.309 357.566 211.309ZM357.799 214.756C357.505 214.756 357.238 214.764 356.996 214.782C356.771 214.799 356.555 214.816 356.348 214.833V219.705H357.488C359.008 219.705 360.096 219.515 360.753 219.135C361.409 218.755 361.737 218.107 361.737 217.191C361.737 216.31 361.401 215.689 360.727 215.326C360.071 214.946 359.095 214.756 357.799 214.756ZM366.728 222.762C366.728 221.553 366.909 220.499 367.272 219.601C367.652 218.686 368.145 217.926 368.749 217.321C369.354 216.716 370.045 216.259 370.822 215.948C371.617 215.637 372.429 215.481 373.258 215.481C375.192 215.481 376.721 216.077 377.844 217.269C378.967 218.444 379.528 220.18 379.528 222.477C379.528 222.702 379.52 222.952 379.502 223.229C379.485 223.488 379.468 223.721 379.45 223.928H370.692C370.779 224.723 371.15 225.353 371.807 225.82C372.463 226.286 373.344 226.519 374.45 226.519C375.158 226.519 375.849 226.459 376.523 226.338C377.213 226.2 377.775 226.036 378.207 225.846L378.725 228.981C378.518 229.085 378.241 229.188 377.896 229.292C377.55 229.396 377.162 229.482 376.73 229.551C376.315 229.637 375.866 229.707 375.382 229.758C374.899 229.81 374.415 229.836 373.931 229.836C372.705 229.836 371.634 229.655 370.718 229.292C369.82 228.929 369.069 228.437 368.464 227.815C367.877 227.176 367.436 226.424 367.143 225.561C366.866 224.697 366.728 223.764 366.728 222.762ZM375.797 221.285C375.78 220.957 375.719 220.638 375.616 220.327C375.529 220.016 375.382 219.739 375.175 219.497C374.985 219.256 374.735 219.057 374.424 218.902C374.13 218.746 373.759 218.668 373.31 218.668C372.878 218.668 372.506 218.746 372.195 218.902C371.884 219.04 371.625 219.23 371.418 219.472C371.211 219.713 371.047 219.998 370.926 220.327C370.822 220.638 370.744 220.957 370.692 221.285H375.797ZM386.42 226.779C386.8 226.779 387.163 226.77 387.508 226.753C387.854 226.735 388.13 226.709 388.338 226.675V223.747C388.182 223.712 387.949 223.678 387.638 223.643C387.327 223.609 387.042 223.591 386.783 223.591C386.42 223.591 386.075 223.617 385.747 223.669C385.436 223.704 385.159 223.781 384.917 223.902C384.676 224.023 384.486 224.187 384.347 224.395C384.209 224.602 384.14 224.861 384.14 225.172C384.14 225.777 384.339 226.2 384.736 226.442C385.151 226.666 385.712 226.779 386.42 226.779ZM386.109 215.481C387.249 215.481 388.199 215.611 388.96 215.87C389.72 216.129 390.324 216.5 390.773 216.984C391.24 217.468 391.568 218.055 391.758 218.746C391.948 219.437 392.043 220.206 392.043 221.052V229.085C391.49 229.206 390.721 229.344 389.737 229.499C388.752 229.672 387.56 229.758 386.161 229.758C385.28 229.758 384.477 229.681 383.751 229.525C383.043 229.37 382.43 229.119 381.912 228.774C381.393 228.411 380.996 227.945 380.72 227.375C380.443 226.804 380.305 226.105 380.305 225.276C380.305 224.481 380.461 223.807 380.772 223.255C381.1 222.702 381.532 222.261 382.067 221.933C382.603 221.605 383.216 221.372 383.907 221.234C384.598 221.078 385.315 221 386.057 221C386.558 221 386.999 221.026 387.379 221.078C387.776 221.113 388.096 221.164 388.338 221.234V220.871C388.338 220.214 388.139 219.687 387.742 219.29C387.344 218.893 386.653 218.694 385.669 218.694C385.012 218.694 384.365 218.746 383.725 218.85C383.086 218.936 382.534 219.066 382.067 219.238L381.575 216.129C381.799 216.06 382.076 215.991 382.404 215.922C382.749 215.835 383.121 215.766 383.518 215.714C383.915 215.645 384.33 215.594 384.762 215.559C385.211 215.507 385.66 215.481 386.109 215.481ZM393.591 222.659C393.591 221.674 393.746 220.75 394.057 219.886C394.385 219.005 394.852 218.245 395.456 217.606C396.061 216.95 396.795 216.431 397.659 216.051C398.523 215.671 399.507 215.481 400.613 215.481C401.338 215.481 402.003 215.55 402.608 215.689C403.213 215.809 403.8 215.991 404.37 216.233L403.567 219.316C403.204 219.178 402.807 219.057 402.375 218.953C401.943 218.85 401.459 218.798 400.924 218.798C399.784 218.798 398.928 219.152 398.358 219.86C397.806 220.568 397.529 221.501 397.529 222.659C397.529 223.885 397.788 224.835 398.307 225.509C398.842 226.183 399.766 226.519 401.079 226.519C401.546 226.519 402.046 226.476 402.582 226.39C403.117 226.304 403.61 226.165 404.059 225.975L404.603 229.136C404.154 229.326 403.593 229.491 402.919 229.629C402.245 229.767 401.502 229.836 400.69 229.836C399.447 229.836 398.376 229.655 397.477 229.292C396.579 228.912 395.836 228.402 395.249 227.763C394.679 227.124 394.256 226.373 393.979 225.509C393.72 224.628 393.591 223.678 393.591 222.659ZM405.769 212.45L409.63 211.828V215.844H414.268V219.057H409.63V223.851C409.63 224.662 409.768 225.31 410.044 225.794C410.338 226.278 410.917 226.519 411.78 226.519C412.195 226.519 412.618 226.485 413.05 226.416C413.499 226.329 413.905 226.217 414.268 226.079L414.812 229.085C414.346 229.275 413.827 229.439 413.257 229.577C412.687 229.715 411.988 229.784 411.159 229.784C410.105 229.784 409.233 229.646 408.542 229.37C407.851 229.076 407.298 228.679 406.883 228.178C406.469 227.66 406.175 227.038 406.002 226.312C405.847 225.587 405.769 224.783 405.769 223.902V212.45Z" fill="#DD1350"/>
</svg>
