<svg width="1280" height="640" viewBox="0 0 1280 640" fill="none" xmlns="http://www.w3.org/2000/svg">
<rect width="1280" height="640" rx="32" fill="#FAFAFA"/>
<rect width="1280" height="640" rx="32" fill="#FAFAFA"/>
<path d="M563.427 261V211.418H577.038V218.709H577.524C578.107 217.154 578.982 215.793 580.149 214.626C582.806 211.839 586.144 210.446 590.162 210.446H595.995V223.57H588.704C585.01 223.57 582.125 224.575 580.051 226.584C578.042 228.528 577.038 231.251 577.038 234.751V261H563.427ZM601.758 254.875C596.638 249.755 594.078 243.533 594.078 236.209C594.078 228.885 596.638 222.695 601.758 217.64C606.943 212.52 613.295 209.959 620.813 209.959C628.461 209.959 634.748 212.487 639.674 217.543C644.6 222.598 647.063 228.82 647.063 236.209V239.125H608.175C608.693 242.366 610.151 245.121 612.549 247.389C614.948 249.658 617.702 250.792 620.813 250.792C624.248 250.792 627.197 249.82 629.66 247.875C630.632 247.033 631.41 246.06 631.994 244.959H646.577C645.475 248.264 643.854 251.181 641.716 253.708C636.53 259.542 629.563 262.458 620.813 262.458C613.295 262.458 606.943 259.931 601.758 254.875ZM608.661 230.862H632.48C631.961 228.269 630.632 226.098 628.494 224.348C626.42 222.533 623.859 221.626 620.813 221.626C617.767 221.626 615.174 222.501 613.036 224.251C610.897 226.001 609.438 228.204 608.661 230.862ZM645.566 224.056V212.39H651.886V192.946H679.593V204.612H665.496V212.39H676.677V224.056H665.496V261H651.886V224.056H645.566ZM683.516 254.875C678.331 249.755 675.739 243.533 675.739 236.209C675.739 228.885 678.331 222.695 683.516 217.64C688.701 212.52 695.183 209.959 702.96 209.959C710.673 209.959 717.122 212.52 722.307 217.64C727.557 222.695 730.182 228.885 730.182 236.209C730.182 243.533 727.557 249.755 722.307 254.875C717.122 259.931 710.673 262.458 702.96 262.458C695.183 262.458 688.701 259.931 683.516 254.875ZM693.627 225.709C691.1 228.431 689.836 231.931 689.836 236.209C689.836 240.487 691.1 243.986 693.627 246.709C696.155 249.431 699.266 250.792 702.96 250.792C706.655 250.792 709.766 249.431 712.294 246.709C714.821 243.986 716.085 240.487 716.085 236.209C716.085 231.931 714.821 228.431 712.294 225.709C709.766 222.987 706.655 221.626 702.96 221.626C699.266 221.626 696.155 222.987 693.627 225.709ZM732.161 261V211.418H745.772V218.709H746.258C746.841 217.154 747.716 215.793 748.883 214.626C751.54 211.839 754.878 210.446 758.896 210.446H764.729V223.57H757.438C753.744 223.57 750.859 224.575 748.785 226.584C746.776 228.528 745.772 231.251 745.772 234.751V261H732.161ZM765.728 261V211.418H779.339V218.223H779.825C780.733 216.603 781.834 215.242 783.131 214.14C786.307 211.353 790.066 209.959 794.408 209.959C799.593 209.959 803.936 211.515 807.436 214.626C808.862 215.987 810.028 217.51 810.936 219.195H811.422C812.329 217.51 813.496 215.987 814.922 214.626C818.422 211.515 822.602 209.959 827.463 209.959C833.426 209.959 838.06 211.774 841.366 215.404C844.736 218.968 846.421 224.121 846.421 230.862V261H832.81V232.32C832.81 225.191 829.732 221.626 823.574 221.626C820.593 221.626 818.065 222.792 815.991 225.126C813.917 227.459 812.88 230.505 812.88 234.264V261H799.269V232.32C799.269 225.191 796.191 221.626 790.033 221.626C787.052 221.626 784.524 222.792 782.45 225.126C780.376 227.459 779.339 230.505 779.339 234.264V261H765.728Z" fill="#0E0E0E"/>
<path d="M472.881 175.426H442.551C433.962 175.426 427 182.388 427 190.977V272.151C427 280.74 433.962 287.702 442.551 287.702H503.973C512.562 287.702 519.524 280.74 519.524 272.151V211.727C519.524 206.53 516.928 201.676 512.605 198.791L481.514 178.042C478.958 176.336 475.954 175.426 472.881 175.426Z" fill="#DD1350"/>
<path d="M486.967 205.228L519.4 205.228C519.208 204.427 519.016 203.972 518.485 203.148C517.838 202.268 517.234 201.829 516.059 201.069L501.505 191.366L492.148 185.129L479.673 176.812L478.634 176.119C478.164 175.887 477.889 175.759 477.248 175.602L477.248 195.508C477.248 200.876 481.599 205.228 486.967 205.228Z" fill="white" fill-opacity="0.5"/>
<path d="M519.403 219.66L482.27 205.228H518.139L519.403 209.487V219.66Z" fill="black" fill-opacity="0.2"/>
<rect x="443.955" y="221.355" width="57.6461" height="5.08642" rx="2.54321" fill="white" fill-opacity="0.54"/>
<rect x="443.955" y="256.96" width="57.6461" height="5.08642" rx="2.54321" fill="white" fill-opacity="0.54"/>
<rect x="443.955" y="233.224" width="16.9547" height="5.08642" rx="2.54321" fill="white" fill-opacity="0.54"/>
<rect x="464.3" y="233.224" width="35.6049" height="5.08642" rx="2.54321" fill="white" fill-opacity="0.54"/>
<rect x="482.951" y="245.092" width="16.9547" height="5.08642" rx="2.54321" fill="white" fill-opacity="0.54"/>
<rect x="443.955" y="245.092" width="35.6049" height="5.08642" rx="2.54321" fill="white" fill-opacity="0.54"/>
<path d="M153.356 379.689V340.489H170.436C175.065 340.489 178.742 341.684 181.468 344.073C184.193 346.463 185.556 349.468 185.556 353.089C185.556 355.964 184.66 358.503 182.868 360.705C181.113 362.871 178.649 364.345 175.476 365.129L185.276 379.689H177.716L168.476 365.689H159.796V379.689H153.356ZM159.796 359.529H170.436C176.036 359.529 178.836 357.383 178.836 353.089C178.836 348.796 176.036 346.649 170.436 346.649H159.796V359.529ZM190.926 375.993C188.126 373.119 186.726 369.591 186.726 365.409C186.726 361.228 188.126 357.719 190.926 354.881C193.763 352.007 197.217 350.569 201.286 350.569C205.355 350.569 208.79 352.007 211.59 354.881C214.427 357.719 215.846 361.228 215.846 365.409V367.369H192.606C193.054 369.721 194.081 371.569 195.686 372.913C197.291 374.257 199.158 374.929 201.286 374.929C203.899 374.929 205.99 374.276 207.558 372.969C208.267 372.447 208.883 371.793 209.406 371.009H215.566C214.782 372.839 213.793 374.388 212.598 375.657C209.537 378.719 205.766 380.249 201.286 380.249C197.217 380.249 193.763 378.831 190.926 375.993ZM192.886 362.609H209.686C209.35 360.743 208.454 359.156 206.998 357.849C205.579 356.543 203.675 355.889 201.286 355.889C199.27 355.889 197.478 356.505 195.91 357.737C194.342 358.932 193.334 360.556 192.886 362.609ZM221.058 376.161C218.52 373.399 217.25 369.815 217.25 365.409C217.25 361.004 218.52 357.439 221.058 354.713C223.634 351.951 226.845 350.569 230.69 350.569C233.117 350.569 235.338 351.279 237.354 352.697C238.213 353.295 238.978 353.985 239.65 354.769H239.93V351.129H245.81V379.689H239.93V375.769H239.65C239.09 376.553 238.325 377.3 237.354 378.009C235.338 379.503 233.117 380.249 230.69 380.249C226.845 380.249 223.634 378.887 221.058 376.161ZM225.65 358.353C224.157 359.996 223.41 362.348 223.41 365.409C223.41 368.471 224.157 370.823 225.65 372.465C227.144 374.108 229.197 374.929 231.81 374.929C234.274 374.929 236.234 374.108 237.69 372.465C239.184 370.785 239.93 368.433 239.93 365.409C239.93 362.385 239.184 360.052 237.69 358.409C236.234 356.729 234.274 355.889 231.81 355.889C229.197 355.889 227.144 356.711 225.65 358.353ZM248.589 370.729H255.029C255.29 371.476 255.757 372.185 256.429 372.857C257.81 374.239 259.677 374.929 262.029 374.929C264.082 374.929 265.575 374.612 266.509 373.977C267.442 373.343 267.909 372.54 267.909 371.569C267.909 371.233 267.834 370.935 267.685 370.673C267.535 370.375 267.274 370.113 266.901 369.889C266.527 369.665 266.173 369.479 265.837 369.329C265.501 369.143 264.997 368.975 264.325 368.825C263.653 368.639 263.111 368.508 262.701 368.433C262.29 368.321 261.655 368.172 260.797 367.985C259.975 367.799 259.359 367.668 258.949 367.593C252.975 366.249 249.989 363.375 249.989 358.969C249.989 356.729 251.015 354.769 253.069 353.089C255.122 351.409 257.829 350.569 261.189 350.569C265.855 350.569 269.346 352.063 271.661 355.049C272.706 356.356 273.415 357.849 273.789 359.529H267.629C267.33 358.783 266.919 358.185 266.397 357.737C265.09 356.505 263.354 355.889 261.189 355.889C259.509 355.889 258.239 356.188 257.381 356.785C256.559 357.383 256.149 358.129 256.149 359.025C256.149 359.361 256.223 359.679 256.373 359.977C256.522 360.239 256.783 360.481 257.157 360.705C257.53 360.929 257.885 361.116 258.221 361.265C258.594 361.415 259.098 361.583 259.733 361.769C260.367 361.919 260.909 362.049 261.357 362.161C261.805 362.236 262.421 362.367 263.205 362.553C264.026 362.703 264.661 362.833 265.109 362.945C271.082 364.289 274.069 367.164 274.069 371.569C274.069 373.959 272.986 376.012 270.821 377.729C268.693 379.409 265.762 380.249 262.029 380.249C257.175 380.249 253.461 378.663 250.885 375.489C249.727 374.033 248.962 372.447 248.589 370.729ZM279.711 375.993C276.874 373.119 275.455 369.591 275.455 365.409C275.455 361.228 276.874 357.719 279.711 354.881C282.586 352.007 286.114 350.569 290.295 350.569C294.477 350.569 297.986 352.007 300.823 354.881C303.698 357.719 305.135 361.228 305.135 365.409C305.135 369.591 303.698 373.119 300.823 375.993C297.986 378.831 294.477 380.249 290.295 380.249C286.114 380.249 282.586 378.831 279.711 375.993ZM284.023 358.521C282.418 360.239 281.615 362.535 281.615 365.409C281.615 368.284 282.418 370.599 284.023 372.353C285.629 374.071 287.719 374.929 290.295 374.929C292.871 374.929 294.962 374.071 296.567 372.353C298.173 370.599 298.975 368.284 298.975 365.409C298.975 362.535 298.173 360.239 296.567 358.521C294.962 356.767 292.871 355.889 290.295 355.889C287.719 355.889 285.629 356.767 284.023 358.521ZM308.207 379.689V351.129H314.087V355.049H314.367C314.815 354.303 315.505 353.556 316.439 352.809C318.455 351.316 320.751 350.569 323.327 350.569C326.873 350.569 329.617 351.596 331.559 353.649C333.537 355.703 334.527 358.689 334.527 362.609V379.689H328.647V363.169C328.647 360.668 328.087 358.839 326.967 357.681C325.884 356.487 324.204 355.889 321.927 355.889C319.649 355.889 317.764 356.673 316.271 358.241C314.815 359.772 314.087 361.788 314.087 364.289V379.689H308.207ZM341.133 376.161C338.594 373.399 337.325 369.815 337.325 365.409C337.325 361.004 338.594 357.439 341.133 354.713C343.709 351.951 346.919 350.569 350.765 350.569C353.191 350.569 355.413 351.279 357.429 352.697C358.287 353.295 359.053 353.985 359.725 354.769H360.005V351.129H365.885V379.689H360.005V375.769H359.725C359.165 376.553 358.399 377.3 357.429 378.009C355.413 379.503 353.191 380.249 350.765 380.249C346.919 380.249 343.709 378.887 341.133 376.161ZM345.725 358.353C344.231 359.996 343.485 362.348 343.485 365.409C343.485 368.471 344.231 370.823 345.725 372.465C347.218 374.108 349.271 374.929 351.885 374.929C354.349 374.929 356.309 374.108 357.765 372.465C359.258 370.785 360.005 368.433 360.005 365.409C360.005 362.385 359.258 360.052 357.765 358.409C356.309 356.729 354.349 355.889 351.885 355.889C349.271 355.889 347.218 356.711 345.725 358.353ZM370.623 379.689V340.489H376.503V354.769H376.783C377.455 353.985 378.22 353.295 379.079 352.697C381.095 351.279 383.316 350.569 385.743 350.569C389.588 350.569 392.78 351.951 395.319 354.713C397.895 357.439 399.183 361.004 399.183 365.409C399.183 369.815 397.895 373.399 395.319 376.161C392.78 378.887 389.588 380.249 385.743 380.249C383.279 380.249 381.057 379.559 379.079 378.177C378.183 377.543 377.417 376.833 376.783 376.049H376.503V379.689H370.623ZM378.687 358.409C377.231 360.052 376.503 362.385 376.503 365.409C376.503 368.433 377.231 370.785 378.687 372.465C380.18 374.108 382.159 374.929 384.623 374.929C387.236 374.929 389.289 374.108 390.783 372.465C392.276 370.823 393.023 368.471 393.023 365.409C393.023 362.348 392.276 359.996 390.783 358.353C389.289 356.711 387.236 355.889 384.623 355.889C382.159 355.889 380.18 356.729 378.687 358.409ZM402.241 379.689V340.489H408.121V374.369H414.561V379.689H402.241ZM413.723 351.129H419.883L426.043 374.089H429.123L435.843 351.129H442.003L430.243 390.329H424.083L427.443 379.689H421.563L413.723 351.129ZM456.845 379.689V351.129H462.725V355.049H463.005C463.491 354.228 464.125 353.481 464.909 352.809C466.701 351.316 468.867 350.569 471.405 350.569C474.429 350.569 476.875 351.465 478.741 353.257C479.525 354.004 480.16 354.881 480.645 355.889H480.925C481.448 354.919 482.176 354.041 483.109 353.257C485.125 351.465 487.664 350.569 490.725 350.569C494.048 350.569 496.643 351.615 498.509 353.705C500.413 355.759 501.365 358.727 501.365 362.609V379.689H495.485V362.889C495.485 358.223 493.432 355.889 489.325 355.889C487.347 355.889 485.629 356.673 484.173 358.241C482.755 359.772 482.045 361.695 482.045 364.009V379.689H476.165V362.889C476.165 358.223 474.112 355.889 470.005 355.889C468.027 355.889 466.309 356.673 464.853 358.241C463.435 359.772 462.725 361.695 462.725 364.009V379.689H456.845ZM507.982 376.161C505.443 373.399 504.174 369.815 504.174 365.409C504.174 361.004 505.443 357.439 507.982 354.713C510.558 351.951 513.769 350.569 517.614 350.569C520.041 350.569 522.262 351.279 524.278 352.697C525.137 353.295 525.902 353.985 526.574 354.769H526.854V351.129H532.734V379.689H526.854V375.769H526.574C526.014 376.553 525.249 377.3 524.278 378.009C522.262 379.503 520.041 380.249 517.614 380.249C513.769 380.249 510.558 378.887 507.982 376.161ZM512.574 358.353C511.081 359.996 510.334 362.348 510.334 365.409C510.334 368.471 511.081 370.823 512.574 372.465C514.067 374.108 516.121 374.929 518.734 374.929C521.198 374.929 523.158 374.108 524.614 372.465C526.107 370.785 526.854 368.433 526.854 365.409C526.854 362.385 526.107 360.052 524.614 358.409C523.158 356.729 521.198 355.889 518.734 355.889C516.121 355.889 514.067 356.711 512.574 358.353ZM537.472 379.689V340.489H543.352V362.329H547.552L556.232 351.129H562.952L552.592 364.289L563.792 379.689H556.512L547.832 367.649H543.352V379.689H537.472ZM565.655 345.921C564.983 345.249 564.647 344.428 564.647 343.457C564.647 342.487 564.983 341.665 565.655 340.993C566.327 340.284 567.149 339.929 568.119 339.929C569.09 339.929 569.911 340.284 570.583 340.993C571.293 341.665 571.647 342.487 571.647 343.457C571.647 344.428 571.293 345.249 570.583 345.921C569.911 346.593 569.09 346.929 568.119 346.929C567.149 346.929 566.327 346.593 565.655 345.921ZM565.207 379.689V351.129H571.087V379.689H565.207ZM575.825 379.689V351.129H581.705V355.049H581.985C582.433 354.303 583.124 353.556 584.057 352.809C586.073 351.316 588.369 350.569 590.945 350.569C594.492 350.569 597.236 351.596 599.177 353.649C601.156 355.703 602.145 358.689 602.145 362.609V379.689H596.265V363.169C596.265 360.668 595.705 358.839 594.585 357.681C593.503 356.487 591.823 355.889 589.545 355.889C587.268 355.889 585.383 356.673 583.889 358.241C582.433 359.772 581.705 361.788 581.705 364.289V379.689H575.825ZM608.751 376.161C606.213 373.399 604.943 369.815 604.943 365.409C604.943 361.004 606.213 357.439 608.751 354.713C611.327 351.951 614.538 350.569 618.383 350.569C620.81 350.569 623.031 351.279 625.047 352.697C625.943 353.332 626.709 354.041 627.343 354.825H627.623V351.129H633.503V390.329H609.143V385.009H627.623V376.049H627.343C626.709 376.833 625.943 377.543 625.047 378.177C623.069 379.559 620.847 380.249 618.383 380.249C614.538 380.249 611.327 378.887 608.751 376.161ZM613.343 358.353C611.85 359.996 611.103 362.348 611.103 365.409C611.103 368.471 611.85 370.823 613.343 372.465C614.837 374.108 616.89 374.929 619.503 374.929C621.967 374.929 623.927 374.108 625.383 372.465C626.877 370.785 627.623 368.433 627.623 365.409C627.623 362.385 626.877 360.052 625.383 358.409C623.927 356.729 621.967 355.889 619.503 355.889C616.89 355.889 614.837 356.711 613.343 358.353ZM649.737 356.449V351.129H653.097V340.489H667.377V345.809H658.977V351.129H665.697V356.449H658.977V379.689H653.097V356.449H649.737ZM670.804 375.993C667.966 373.119 666.548 369.591 666.548 365.409C666.548 361.228 667.966 357.719 670.804 354.881C673.678 352.007 677.206 350.569 681.388 350.569C685.569 350.569 689.078 352.007 691.916 354.881C694.79 357.719 696.228 361.228 696.228 365.409C696.228 369.591 694.79 373.119 691.916 375.993C689.078 378.831 685.569 380.249 681.388 380.249C677.206 380.249 673.678 378.831 670.804 375.993ZM675.116 358.521C673.51 360.239 672.708 362.535 672.708 365.409C672.708 368.284 673.51 370.599 675.116 372.353C676.721 374.071 678.812 374.929 681.388 374.929C683.964 374.929 686.054 374.071 687.66 372.353C689.265 370.599 690.068 368.284 690.068 365.409C690.068 362.535 689.265 360.239 687.66 358.521C686.054 356.767 683.964 355.889 681.388 355.889C678.812 355.889 676.721 356.767 675.116 358.521ZM699.299 379.689V351.129H705.179V355.329H705.459C705.87 354.545 706.467 353.799 707.251 353.089C708.968 351.596 710.984 350.849 713.299 350.849H716.659V356.449H713.019C710.742 356.449 708.856 357.177 707.363 358.633C705.907 360.052 705.179 361.937 705.179 364.289V379.689H699.299ZM719.159 379.689V351.129H725.039V355.049H725.319C725.805 354.228 726.439 353.481 727.223 352.809C729.015 351.316 731.181 350.569 733.719 350.569C736.743 350.569 739.189 351.465 741.055 353.257C741.839 354.004 742.474 354.881 742.959 355.889H743.239C743.762 354.919 744.49 354.041 745.423 353.257C747.439 351.465 749.978 350.569 753.039 350.569C756.362 350.569 758.957 351.615 760.823 353.705C762.727 355.759 763.679 358.727 763.679 362.609V379.689H757.799V362.889C757.799 358.223 755.746 355.889 751.639 355.889C749.661 355.889 747.943 356.673 746.487 358.241C745.069 359.772 744.359 361.695 744.359 364.009V379.689H738.479V362.889C738.479 358.223 736.426 355.889 732.319 355.889C730.341 355.889 728.623 356.673 727.167 358.241C725.749 359.772 725.039 361.695 725.039 364.009V379.689H719.159ZM766.208 370.729H772.648C772.909 371.476 773.376 372.185 774.048 372.857C775.429 374.239 777.296 374.929 779.648 374.929C781.701 374.929 783.195 374.612 784.128 373.977C785.061 373.343 785.528 372.54 785.528 371.569C785.528 371.233 785.453 370.935 785.304 370.673C785.155 370.375 784.893 370.113 784.52 369.889C784.147 369.665 783.792 369.479 783.456 369.329C783.12 369.143 782.616 368.975 781.944 368.825C781.272 368.639 780.731 368.508 780.32 368.433C779.909 368.321 779.275 368.172 778.416 367.985C777.595 367.799 776.979 367.668 776.568 367.593C770.595 366.249 767.608 363.375 767.608 358.969C767.608 356.729 768.635 354.769 770.688 353.089C772.741 351.409 775.448 350.569 778.808 350.569C783.475 350.569 786.965 352.063 789.28 355.049C790.325 356.356 791.035 357.849 791.408 359.529H785.248C784.949 358.783 784.539 358.185 784.016 357.737C782.709 356.505 780.973 355.889 778.808 355.889C777.128 355.889 775.859 356.188 775 356.785C774.179 357.383 773.768 358.129 773.768 359.025C773.768 359.361 773.843 359.679 773.992 359.977C774.141 360.239 774.403 360.481 774.776 360.705C775.149 360.929 775.504 361.116 775.84 361.265C776.213 361.415 776.717 361.583 777.352 361.769C777.987 361.919 778.528 362.049 778.976 362.161C779.424 362.236 780.04 362.367 780.824 362.553C781.645 362.703 782.28 362.833 782.728 362.945C788.701 364.289 791.688 367.164 791.688 371.569C791.688 373.959 790.605 376.012 788.44 377.729C786.312 379.409 783.381 380.249 779.648 380.249C774.795 380.249 771.08 378.663 768.504 375.489C767.347 374.033 766.581 372.447 766.208 370.729ZM806.25 351.129H812.41L817.17 374.369H818.01L822.77 351.129H831.17L835.93 374.369H836.77L841.53 351.129H847.69L841.53 379.689H831.45L827.25 357.849H826.69L822.49 379.689H812.41L806.25 351.129ZM850.673 345.921C850.001 345.249 849.665 344.428 849.665 343.457C849.665 342.487 850.001 341.665 850.673 340.993C851.345 340.284 852.167 339.929 853.137 339.929C854.108 339.929 854.929 340.284 855.601 340.993C856.311 341.665 856.665 342.487 856.665 343.457C856.665 344.428 856.311 345.249 855.601 345.921C854.929 346.593 854.108 346.929 853.137 346.929C852.167 346.929 851.345 346.593 850.673 345.921ZM850.225 379.689V351.129H856.105V379.689H850.225ZM858.604 356.449V351.129H861.964V344.969H867.844V351.129H876.524V356.449H867.844V374.369H876.804V379.689H861.964V356.449H858.604ZM879.884 379.689V340.489H885.764V355.049H886.044C886.492 354.303 887.182 353.556 888.116 352.809C890.132 351.316 892.428 350.569 895.004 350.569C898.55 350.569 901.294 351.596 903.236 353.649C905.214 355.703 906.204 358.689 906.204 362.609V379.689H900.324V363.169C900.324 360.668 899.764 358.839 898.644 357.681C897.561 356.487 895.881 355.889 893.604 355.889C891.326 355.889 889.441 356.673 887.948 358.241C886.492 359.772 885.764 361.788 885.764 364.289V379.689H879.884ZM361.006 448.161C358.467 445.399 357.198 441.815 357.198 437.409C357.198 433.004 358.467 429.439 361.006 426.713C363.582 423.951 366.793 422.569 370.638 422.569C373.065 422.569 375.286 423.279 377.302 424.697C378.161 425.295 378.926 425.985 379.598 426.769H379.878V423.129H385.758V451.689H379.878V447.769H379.598C379.038 448.553 378.273 449.3 377.302 450.009C375.286 451.503 373.065 452.249 370.638 452.249C366.793 452.249 363.582 450.887 361.006 448.161ZM365.598 430.353C364.105 431.996 363.358 434.348 363.358 437.409C363.358 440.471 364.105 442.823 365.598 444.465C367.091 446.108 369.145 446.929 371.758 446.929C374.222 446.929 376.182 446.108 377.638 444.465C379.131 442.785 379.878 440.433 379.878 437.409C379.878 434.385 379.131 432.052 377.638 430.409C376.182 428.729 374.222 427.889 371.758 427.889C369.145 427.889 367.091 428.711 365.598 430.353ZM390.496 451.689V423.129H396.376V427.049H396.656C397.104 426.303 397.795 425.556 398.728 424.809C400.744 423.316 403.04 422.569 405.616 422.569C409.163 422.569 411.907 423.596 413.848 425.649C415.827 427.703 416.816 430.689 416.816 434.609V451.689H410.936V435.169C410.936 432.668 410.376 430.839 409.256 429.681C408.173 428.487 406.493 427.889 404.216 427.889C401.939 427.889 400.053 428.673 398.56 430.241C397.104 431.772 396.376 433.788 396.376 436.289V451.689H390.496ZM423.422 448.161C420.883 445.399 419.614 441.815 419.614 437.409C419.614 433.004 420.883 429.439 423.422 426.713C425.998 423.951 429.209 422.569 433.054 422.569C435.481 422.569 437.702 423.279 439.718 424.697C440.577 425.295 441.342 425.985 442.014 426.769H442.294V412.489H448.174V451.689H442.294V448.049H442.014C441.379 448.833 440.614 449.543 439.718 450.177C437.739 451.559 435.518 452.249 433.054 452.249C429.209 452.249 425.998 450.887 423.422 448.161ZM428.014 430.353C426.521 431.996 425.774 434.348 425.774 437.409C425.774 440.471 426.521 442.823 428.014 444.465C429.507 446.108 431.561 446.929 434.174 446.929C436.638 446.929 438.598 446.108 440.054 444.465C441.547 442.785 442.294 440.433 442.294 437.409C442.294 434.385 441.547 432.052 440.054 430.409C438.598 428.729 436.638 427.889 434.174 427.889C431.561 427.889 429.507 428.711 428.014 430.353ZM624.318 442.729H630.758C631.019 443.476 631.486 444.185 632.158 444.857C633.539 446.239 635.406 446.929 637.758 446.929C639.811 446.929 641.305 446.612 642.238 445.977C643.171 445.343 643.638 444.54 643.638 443.569C643.638 443.233 643.563 442.935 643.414 442.673C643.265 442.375 643.003 442.113 642.63 441.889C642.257 441.665 641.902 441.479 641.566 441.329C641.23 441.143 640.726 440.975 640.054 440.825C639.382 440.639 638.841 440.508 638.43 440.433C638.019 440.321 637.385 440.172 636.526 439.985C635.705 439.799 635.089 439.668 634.678 439.593C628.705 438.249 625.718 435.375 625.718 430.969C625.718 428.729 626.745 426.769 628.798 425.089C630.851 423.409 633.558 422.569 636.918 422.569C641.585 422.569 645.075 424.063 647.39 427.049C648.435 428.356 649.145 429.849 649.518 431.529H643.358C643.059 430.783 642.649 430.185 642.126 429.737C640.819 428.505 639.083 427.889 636.918 427.889C635.238 427.889 633.969 428.188 633.11 428.785C632.289 429.383 631.878 430.129 631.878 431.025C631.878 431.361 631.953 431.679 632.102 431.977C632.251 432.239 632.513 432.481 632.886 432.705C633.259 432.929 633.614 433.116 633.95 433.265C634.323 433.415 634.827 433.583 635.462 433.769C636.097 433.919 636.638 434.049 637.086 434.161C637.534 434.236 638.15 434.367 638.934 434.553C639.755 434.703 640.39 434.833 640.838 434.945C646.811 436.289 649.798 439.164 649.798 443.569C649.798 445.959 648.715 448.012 646.55 449.729C644.422 451.409 641.491 452.249 637.758 452.249C632.905 452.249 629.19 450.663 626.614 447.489C625.457 446.033 624.691 444.447 624.318 442.729ZM655.441 447.993C652.604 445.119 651.185 441.591 651.185 437.409C651.185 433.228 652.604 429.719 655.441 426.881C658.316 424.007 661.844 422.569 666.025 422.569C670.206 422.569 673.716 424.007 676.553 426.881C679.428 429.719 680.865 433.228 680.865 437.409C680.865 441.591 679.428 445.119 676.553 447.993C673.716 450.831 670.206 452.249 666.025 452.249C661.844 452.249 658.316 450.831 655.441 447.993ZM659.753 430.521C658.148 432.239 657.345 434.535 657.345 437.409C657.345 440.284 658.148 442.599 659.753 444.353C661.358 446.071 663.449 446.929 666.025 446.929C668.601 446.929 670.692 446.071 672.297 444.353C673.902 442.599 674.705 440.284 674.705 437.409C674.705 434.535 673.902 432.239 672.297 430.521C670.692 428.767 668.601 427.889 666.025 427.889C663.449 427.889 661.358 428.767 659.753 430.521ZM683.936 440.209V423.129H689.816V439.649C689.816 442.151 690.357 443.999 691.44 445.193C692.56 446.351 694.259 446.929 696.536 446.929C698.813 446.929 700.68 446.164 702.136 444.633C703.629 443.065 704.376 441.031 704.376 438.529V423.129H710.256V451.689H704.376V447.769H704.096C703.648 448.516 702.957 449.263 702.024 450.009C700.008 451.503 697.712 452.249 695.136 452.249C691.589 452.249 688.827 451.223 686.848 449.169C684.907 447.116 683.936 444.129 683.936 440.209ZM715.007 451.689V423.129H720.887V427.049H721.167C721.615 426.303 722.306 425.556 723.239 424.809C725.255 423.316 727.551 422.569 730.127 422.569C733.674 422.569 736.418 423.596 738.359 425.649C740.338 427.703 741.327 430.689 741.327 434.609V451.689H735.447V435.169C735.447 432.668 734.887 430.839 733.767 429.681C732.685 428.487 731.005 427.889 728.727 427.889C726.45 427.889 724.565 428.673 723.071 430.241C721.615 431.772 720.887 433.788 720.887 436.289V451.689H715.007ZM747.933 448.161C745.395 445.399 744.125 441.815 744.125 437.409C744.125 433.004 745.395 429.439 747.933 426.713C750.509 423.951 753.72 422.569 757.565 422.569C759.992 422.569 762.213 423.279 764.229 424.697C765.088 425.295 765.853 425.985 766.525 426.769H766.805V412.489H772.685V451.689H766.805V448.049H766.525C765.891 448.833 765.125 449.543 764.229 450.177C762.251 451.559 760.029 452.249 757.565 452.249C753.72 452.249 750.509 450.887 747.933 448.161ZM752.525 430.353C751.032 431.996 750.285 434.348 750.285 437.409C750.285 440.471 751.032 442.823 752.525 444.465C754.019 446.108 756.072 446.929 758.685 446.929C761.149 446.929 763.109 446.108 764.565 444.465C766.059 442.785 766.805 440.433 766.805 437.409C766.805 434.385 766.059 432.052 764.565 430.409C763.109 428.729 761.149 427.889 758.685 427.889C756.072 427.889 754.019 428.711 752.525 430.353ZM793.287 448.161C790.748 445.399 789.479 441.815 789.479 437.409C789.479 433.004 790.748 429.439 793.287 426.713C795.863 423.951 799.073 422.569 802.919 422.569C805.345 422.569 807.567 423.279 809.583 424.697C810.479 425.332 811.244 426.041 811.879 426.825H812.159V423.129H818.039V462.329H793.679V457.009H812.159V448.049H811.879C811.244 448.833 810.479 449.543 809.583 450.177C807.604 451.559 805.383 452.249 802.919 452.249C799.073 452.249 795.863 450.887 793.287 448.161ZM797.879 430.353C796.385 431.996 795.639 434.348 795.639 437.409C795.639 440.471 796.385 442.823 797.879 444.465C799.372 446.108 801.425 446.929 804.039 446.929C806.503 446.929 808.463 446.108 809.919 444.465C811.412 442.785 812.159 440.433 812.159 437.409C812.159 434.385 811.412 432.052 809.919 430.409C808.463 428.729 806.503 427.889 804.039 427.889C801.425 427.889 799.372 428.711 797.879 430.353ZM825.353 447.993C822.515 445.119 821.097 441.591 821.097 437.409C821.097 433.228 822.515 429.719 825.353 426.881C828.227 424.007 831.755 422.569 835.937 422.569C840.118 422.569 843.627 424.007 846.465 426.881C849.339 429.719 850.777 433.228 850.777 437.409C850.777 441.591 849.339 445.119 846.465 447.993C843.627 450.831 840.118 452.249 835.937 452.249C831.755 452.249 828.227 450.831 825.353 447.993ZM829.665 430.521C828.059 432.239 827.257 434.535 827.257 437.409C827.257 440.284 828.059 442.599 829.665 444.353C831.27 446.071 833.361 446.929 835.937 446.929C838.513 446.929 840.603 446.071 842.209 444.353C843.814 442.599 844.617 440.284 844.617 437.409C844.617 434.535 843.814 432.239 842.209 430.521C840.603 428.767 838.513 427.889 835.937 427.889C833.361 427.889 831.27 428.767 829.665 430.521ZM856.424 447.993C853.587 445.119 852.168 441.591 852.168 437.409C852.168 433.228 853.587 429.719 856.424 426.881C859.299 424.007 862.827 422.569 867.008 422.569C871.189 422.569 874.699 424.007 877.536 426.881C880.411 429.719 881.848 433.228 881.848 437.409C881.848 441.591 880.411 445.119 877.536 447.993C874.699 450.831 871.189 452.249 867.008 452.249C862.827 452.249 859.299 450.831 856.424 447.993ZM860.736 430.521C859.131 432.239 858.328 434.535 858.328 437.409C858.328 440.284 859.131 442.599 860.736 444.353C862.341 446.071 864.432 446.929 867.008 446.929C869.584 446.929 871.675 446.071 873.28 444.353C874.885 442.599 875.688 440.284 875.688 437.409C875.688 434.535 874.885 432.239 873.28 430.521C871.675 428.767 869.584 427.889 867.008 427.889C864.432 427.889 862.341 428.767 860.736 430.521ZM887.047 448.161C884.509 445.399 883.239 441.815 883.239 437.409C883.239 433.004 884.509 429.439 887.047 426.713C889.623 423.951 892.834 422.569 896.679 422.569C899.106 422.569 901.327 423.279 903.343 424.697C904.202 425.295 904.967 425.985 905.639 426.769H905.919V412.489H911.799V451.689H905.919V448.049H905.639C905.005 448.833 904.239 449.543 903.343 450.177C901.365 451.559 899.143 452.249 896.679 452.249C892.834 452.249 889.623 450.887 887.047 448.161ZM891.639 430.353C890.146 431.996 889.399 434.348 889.399 437.409C889.399 440.471 890.146 442.823 891.639 444.465C893.133 446.108 895.186 446.929 897.799 446.929C900.263 446.929 902.223 446.108 903.679 444.465C905.173 442.785 905.919 440.433 905.919 437.409C905.919 434.385 905.173 432.052 903.679 430.409C902.223 428.729 900.263 427.889 897.799 427.889C895.186 427.889 893.133 428.711 891.639 430.353ZM916.537 451.409C915.791 450.663 915.417 449.729 915.417 448.609C915.417 447.489 915.791 446.556 916.537 445.809C917.284 445.063 918.217 444.689 919.337 444.689C920.457 444.689 921.391 445.063 922.137 445.809C922.884 446.556 923.257 447.489 923.257 448.609C923.257 449.729 922.884 450.663 922.137 451.409C921.391 452.156 920.457 452.529 919.337 452.529C918.217 452.529 917.284 452.156 916.537 451.409Z" fill="#0E0E0E"/>
<path d="M924.977 379.689V340.489H942.057C946.686 340.489 950.363 341.684 953.089 344.073C955.814 346.463 957.177 349.468 957.177 353.089C957.177 355.964 956.281 358.503 954.489 360.705C952.734 362.871 950.27 364.345 947.097 365.129L956.897 379.689H949.337L940.097 365.689H931.417V379.689H924.977ZM931.417 359.529H942.057C947.657 359.529 950.457 357.383 950.457 353.089C950.457 348.796 947.657 346.649 942.057 346.649H931.417V359.529ZM962.547 375.993C959.747 373.119 958.347 369.591 958.347 365.409C958.347 361.228 959.747 357.719 962.547 354.881C965.384 352.007 968.838 350.569 972.907 350.569C976.976 350.569 980.411 352.007 983.211 354.881C986.048 357.719 987.467 361.228 987.467 365.409V367.369H964.227C964.675 369.721 965.702 371.569 967.307 372.913C968.912 374.257 970.779 374.929 972.907 374.929C975.52 374.929 977.611 374.276 979.179 372.969C979.888 372.447 980.504 371.793 981.027 371.009H987.187C986.403 372.839 985.414 374.388 984.219 375.657C981.158 378.719 977.387 380.249 972.907 380.249C968.838 380.249 965.384 378.831 962.547 375.993ZM964.507 362.609H981.307C980.971 360.743 980.075 359.156 978.619 357.849C977.2 356.543 975.296 355.889 972.907 355.889C970.891 355.889 969.099 356.505 967.531 357.737C965.963 358.932 964.955 360.556 964.507 362.609ZM989.151 367.929H995.871C996.133 369.236 996.674 370.412 997.495 371.457C999.287 373.772 1002.01 374.929 1005.67 374.929C1008.62 374.929 1010.8 374.407 1012.22 373.361C1013.64 372.279 1014.35 370.841 1014.35 369.049C1014.35 367.631 1013.7 366.492 1012.39 365.633C1011.12 364.775 1009.29 364.028 1006.9 363.393C1002.24 362.199 999.101 361.209 997.495 360.425C993.053 358.372 990.831 355.273 990.831 351.129C990.831 347.956 992.175 345.212 994.863 342.897C997.551 340.545 1001.06 339.369 1005.39 339.369C1011.14 339.369 1015.42 341.292 1018.22 345.137C1019.41 346.78 1020.27 348.684 1020.79 350.849H1014.07C1013.81 349.804 1013.34 348.871 1012.67 348.049C1011.1 346.183 1008.68 345.249 1005.39 345.249C1002.85 345.249 1000.91 345.772 999.567 346.817C998.223 347.863 997.551 349.207 997.551 350.849C997.551 353.313 1000.03 355.217 1005 356.561C1005.41 356.673 1006.19 356.897 1007.35 357.233C1008.51 357.532 1009.33 357.775 1009.82 357.961C1010.34 358.111 1011.12 358.372 1012.17 358.745C1013.25 359.081 1014.05 359.399 1014.58 359.697C1015.1 359.996 1015.77 360.388 1016.59 360.873C1017.41 361.321 1018.03 361.807 1018.44 362.329C1018.89 362.815 1019.34 363.375 1019.78 364.009C1020.27 364.644 1020.6 365.372 1020.79 366.193C1020.98 366.977 1021.07 367.836 1021.07 368.769C1021.07 372.129 1019.67 374.985 1016.87 377.337C1014.11 379.652 1010.38 380.809 1005.67 380.809C999.399 380.809 994.789 378.663 991.839 374.369C990.495 372.54 989.599 370.393 989.151 367.929ZM1027.09 376.049C1024.37 373.249 1023.01 369.703 1023.01 365.409C1023.01 361.116 1024.37 357.569 1027.09 354.769C1029.82 351.969 1033.22 350.569 1037.29 350.569C1041.84 350.569 1045.55 352.305 1048.43 355.777C1049.66 357.383 1050.52 359.1 1051.01 360.929H1044.85C1044.58 359.996 1044.1 359.156 1043.39 358.409C1041.93 356.729 1039.9 355.889 1037.29 355.889C1034.97 355.889 1033.03 356.767 1031.46 358.521C1029.93 360.276 1029.17 362.572 1029.17 365.409C1029.17 368.247 1029.93 370.543 1031.46 372.297C1033.03 374.052 1034.97 374.929 1037.29 374.929C1039.97 374.929 1042.08 374.089 1043.61 372.409C1044.29 371.663 1044.79 370.823 1045.13 369.889H1051.01C1050.52 371.793 1049.66 373.529 1048.43 375.097C1045.59 378.532 1041.88 380.249 1037.29 380.249C1033.22 380.249 1029.82 378.849 1027.09 376.049ZM1053.79 379.689V351.129H1059.67V355.329H1059.95C1060.36 354.545 1060.96 353.799 1061.74 353.089C1063.46 351.596 1065.47 350.849 1067.79 350.849H1071.15V356.449H1067.51C1065.23 356.449 1063.35 357.177 1061.85 358.633C1060.4 360.052 1059.67 361.937 1059.67 364.289V379.689H1053.79ZM1074.1 345.921C1073.42 345.249 1073.09 344.428 1073.09 343.457C1073.09 342.487 1073.42 341.665 1074.1 340.993C1074.77 340.284 1075.59 339.929 1076.56 339.929C1077.53 339.929 1078.35 340.284 1079.02 340.993C1079.73 341.665 1080.09 342.487 1080.09 343.457C1080.09 344.428 1079.73 345.249 1079.02 345.921C1078.35 346.593 1077.53 346.929 1076.56 346.929C1075.59 346.929 1074.77 346.593 1074.1 345.921ZM1073.65 379.689V351.129H1079.53V379.689H1073.65ZM1084.27 390.329V351.129H1090.15V354.769H1090.43C1091.1 353.985 1091.86 353.295 1092.72 352.697C1094.74 351.279 1096.96 350.569 1099.39 350.569C1103.23 350.569 1106.42 351.951 1108.96 354.713C1111.54 357.439 1112.83 361.004 1112.83 365.409C1112.83 369.815 1111.54 373.399 1108.96 376.161C1106.42 378.887 1103.23 380.249 1099.39 380.249C1096.92 380.249 1094.7 379.559 1092.72 378.177C1091.83 377.543 1091.06 376.833 1090.43 376.049H1090.15V390.329H1084.27ZM1092.33 358.409C1090.87 360.052 1090.15 362.385 1090.15 365.409C1090.15 368.433 1090.87 370.785 1092.33 372.465C1093.82 374.108 1095.8 374.929 1098.27 374.929C1100.88 374.929 1102.93 374.108 1104.43 372.465C1105.92 370.823 1106.67 368.471 1106.67 365.409C1106.67 362.348 1105.92 359.996 1104.43 358.353C1102.93 356.711 1100.88 355.889 1098.27 355.889C1095.8 355.889 1093.82 356.729 1092.33 358.409ZM1113.64 356.449V351.129H1117V344.969H1122.88V351.129H1131.56V356.449H1122.88V374.369H1131.84V379.689H1117V356.449H1113.64ZM467.207 451.689V412.489H484.287C488.917 412.489 492.594 413.684 495.319 416.073C498.045 418.463 499.407 421.468 499.407 425.089C499.407 427.964 498.511 430.503 496.719 432.705C494.965 434.871 492.501 436.345 489.327 437.129L499.127 451.689H491.567L482.327 437.689H473.647V451.689H467.207ZM473.647 431.529H484.287C489.887 431.529 492.687 429.383 492.687 425.089C492.687 420.796 489.887 418.649 484.287 418.649H473.647V431.529ZM504.778 447.993C501.978 445.119 500.578 441.591 500.578 437.409C500.578 433.228 501.978 429.719 504.778 426.881C507.615 424.007 511.068 422.569 515.138 422.569C519.207 422.569 522.642 424.007 525.442 426.881C528.279 429.719 529.698 433.228 529.698 437.409V439.369H506.458C506.906 441.721 507.932 443.569 509.538 444.913C511.143 446.257 513.01 446.929 515.138 446.929C517.751 446.929 519.842 446.276 521.41 444.969C522.119 444.447 522.735 443.793 523.258 443.009H529.418C528.634 444.839 527.644 446.388 526.45 447.657C523.388 450.719 519.618 452.249 515.138 452.249C511.068 452.249 507.615 450.831 504.778 447.993ZM506.738 434.609H523.538C523.202 432.743 522.306 431.156 520.85 429.849C519.431 428.543 517.527 427.889 515.138 427.889C513.122 427.889 511.33 428.505 509.762 429.737C508.194 430.932 507.186 432.556 506.738 434.609ZM534.91 448.161C532.371 445.399 531.102 441.815 531.102 437.409C531.102 433.004 532.371 429.439 534.91 426.713C537.486 423.951 540.697 422.569 544.542 422.569C546.969 422.569 549.19 423.279 551.206 424.697C552.065 425.295 552.83 425.985 553.502 426.769H553.782V423.129H559.662V451.689H553.782V447.769H553.502C552.942 448.553 552.177 449.3 551.206 450.009C549.19 451.503 546.969 452.249 544.542 452.249C540.697 452.249 537.486 450.887 534.91 448.161ZM539.502 430.353C538.009 431.996 537.262 434.348 537.262 437.409C537.262 440.471 538.009 442.823 539.502 444.465C540.995 446.108 543.049 446.929 545.662 446.929C548.126 446.929 550.086 446.108 551.542 444.465C553.035 442.785 553.782 440.433 553.782 437.409C553.782 434.385 553.035 432.052 551.542 430.409C550.086 428.729 548.126 427.889 545.662 427.889C543.049 427.889 540.995 428.711 539.502 430.353ZM566.808 448.049C564.083 445.249 562.72 441.703 562.72 437.409C562.72 433.116 564.083 429.569 566.808 426.769C569.533 423.969 572.931 422.569 577 422.569C581.555 422.569 585.269 424.305 588.144 427.777C589.376 429.383 590.235 431.1 590.72 432.929H584.56C584.299 431.996 583.813 431.156 583.104 430.409C581.648 428.729 579.613 427.889 577 427.889C574.685 427.889 572.744 428.767 571.176 430.521C569.645 432.276 568.88 434.572 568.88 437.409C568.88 440.247 569.645 442.543 571.176 444.297C572.744 446.052 574.685 446.929 577 446.929C579.688 446.929 581.797 446.089 583.328 444.409C584 443.663 584.504 442.823 584.84 441.889H590.72C590.235 443.793 589.376 445.529 588.144 447.097C585.307 450.532 581.592 452.249 577 452.249C572.931 452.249 569.533 450.849 566.808 448.049ZM591.263 428.449V423.129H594.623V416.969H600.503V423.129H609.183V428.449H600.503V446.369H609.463V451.689H594.623V428.449H591.263Z" fill="#DD1350"/>
</svg>
