<svg width="1141" height="294" viewBox="0 0 1141 294" fill="none" xmlns="http://www.w3.org/2000/svg">
<path d="M458.576 0H396C391.582 0 388 3.58172 388 8V154C388 158.418 391.582 162 396 162H513.5C517.918 162 521.5 158.418 521.5 154V44.6544C521.5 41.9809 520.165 39.4842 517.941 38.0001L463.016 1.34573C461.702 0.46828 460.156 0 458.576 0Z" fill="#5337B1"/>
<path d="M432.516 84.2C440.916 84.2 447.328 85.74 451.752 88.82C456.232 91.9 458.472 96.604 458.472 102.932C458.472 110.828 454.58 116.176 446.796 118.976C447.86 120.264 449.064 121.832 450.408 123.68C451.752 125.528 453.124 127.544 454.524 129.728C455.924 131.856 457.268 134.068 458.556 136.364C459.844 138.604 460.992 140.816 462 143H450.156C449.092 140.984 447.944 138.968 446.712 136.952C445.48 134.88 444.22 132.892 442.932 130.988C441.7 129.028 440.468 127.208 439.236 125.528C438.004 123.792 436.856 122.252 435.792 120.908C435.008 120.964 434.336 120.992 433.776 120.992C433.216 120.992 432.684 120.992 432.18 120.992H427.056V143H416.472V85.628C419.048 85.068 421.792 84.704 424.704 84.536C427.616 84.312 430.22 84.2 432.516 84.2ZM433.272 93.356C431.032 93.356 428.96 93.44 427.056 93.608V112.424H431.676C434.252 112.424 436.52 112.284 438.48 112.004C440.44 111.724 442.064 111.22 443.352 110.492C444.696 109.764 445.704 108.784 446.376 107.552C447.048 106.32 447.384 104.752 447.384 102.848C447.384 101.056 447.048 99.544 446.376 98.312C445.704 97.08 444.724 96.1 443.436 95.372C442.204 94.644 440.72 94.14 438.984 93.86C437.248 93.524 435.344 93.356 433.272 93.356ZM466.842 143V84.788H504.222V93.776H477.426V108.14H501.282V116.96H477.426V134.012H506.238V143H466.842Z" fill="white"/>
<path d="M533.472 143V84.788H570.264V93.776H544.056V108.644H567.324V117.632H544.056V143H533.472ZM583.287 113.852C583.287 117.044 583.679 119.956 584.463 122.588C585.247 125.164 586.367 127.376 587.823 129.224C589.335 131.016 591.155 132.416 593.283 133.424C595.411 134.432 597.819 134.936 600.507 134.936C603.139 134.936 605.519 134.432 607.647 133.424C609.775 132.416 611.567 131.016 613.023 129.224C614.535 127.376 615.683 125.164 616.467 122.588C617.251 119.956 617.643 117.044 617.643 113.852C617.643 110.66 617.251 107.776 616.467 105.2C615.683 102.568 614.535 100.356 613.023 98.564C611.567 96.716 609.775 95.288 607.647 94.28C605.519 93.272 603.139 92.768 600.507 92.768C597.819 92.768 595.411 93.272 593.283 94.28C591.155 95.288 589.335 96.716 587.823 98.564C586.367 100.412 585.247 102.624 584.463 105.2C583.679 107.776 583.287 110.66 583.287 113.852ZM628.731 113.852C628.731 118.836 627.975 123.232 626.463 127.04C625.007 130.848 622.991 134.04 620.415 136.616C617.895 139.136 614.927 141.04 611.511 142.328C608.095 143.616 604.455 144.26 600.591 144.26C596.727 144.26 593.059 143.616 589.587 142.328C586.171 141.04 583.175 139.136 580.599 136.616C578.079 134.04 576.063 130.848 574.551 127.04C573.039 123.232 572.283 118.836 572.283 113.852C572.283 108.868 573.039 104.5 574.551 100.748C576.063 96.94 578.107 93.748 580.683 91.172C583.315 88.596 586.339 86.664 589.755 85.376C593.171 84.088 596.783 83.444 600.591 83.444C604.399 83.444 608.011 84.088 611.427 85.376C614.843 86.664 617.811 88.596 620.331 91.172C622.907 93.748 624.951 96.94 626.463 100.748C627.975 104.5 628.731 108.868 628.731 113.852ZM652.186 84.2C660.586 84.2 666.998 85.74 671.422 88.82C675.902 91.9 678.142 96.604 678.142 102.932C678.142 110.828 674.25 116.176 666.466 118.976C667.53 120.264 668.734 121.832 670.078 123.68C671.422 125.528 672.794 127.544 674.194 129.728C675.594 131.856 676.938 134.068 678.226 136.364C679.514 138.604 680.662 140.816 681.67 143H669.826C668.762 140.984 667.614 138.968 666.382 136.952C665.15 134.88 663.89 132.892 662.602 130.988C661.37 129.028 660.138 127.208 658.906 125.528C657.674 123.792 656.526 122.252 655.462 120.908C654.678 120.964 654.006 120.992 653.446 120.992C652.886 120.992 652.354 120.992 651.85 120.992H646.726V143H636.142V85.628C638.718 85.068 641.462 84.704 644.374 84.536C647.286 84.312 649.89 84.2 652.186 84.2ZM652.942 93.356C650.702 93.356 648.63 93.44 646.726 93.608V112.424H651.346C653.922 112.424 656.19 112.284 658.15 112.004C660.11 111.724 661.734 111.22 663.022 110.492C664.366 109.764 665.374 108.784 666.046 107.552C666.718 106.32 667.054 104.752 667.054 102.848C667.054 101.056 666.718 99.544 666.046 98.312C665.374 97.08 664.394 96.1 663.106 95.372C661.874 94.644 660.39 94.14 658.654 93.86C656.918 93.524 655.014 93.356 652.942 93.356ZM698.357 84.788C699.589 86.916 700.961 89.52 702.473 92.6C703.985 95.68 705.525 98.928 707.093 102.344C708.661 105.704 710.201 109.148 711.713 112.676C713.281 116.148 714.709 119.368 715.997 122.336C717.285 119.368 718.685 116.148 720.197 112.676C721.709 109.148 723.249 105.704 724.817 102.344C726.385 98.928 727.925 95.68 729.437 92.6C730.949 89.52 732.321 86.916 733.553 84.788H743.129C743.633 89.044 744.109 93.58 744.557 98.396C745.005 103.156 745.397 108.056 745.733 113.096C746.125 118.08 746.461 123.12 746.741 128.216C747.077 133.256 747.357 138.184 747.581 143H737.165C736.941 136.224 736.661 129.252 736.325 122.084C736.045 114.916 735.597 107.972 734.981 101.252C734.365 102.54 733.637 104.08 732.797 105.872C731.957 107.664 731.061 109.624 730.109 111.752C729.157 113.824 728.177 115.98 727.169 118.22C726.217 120.46 725.265 122.644 724.313 124.772C723.417 126.844 722.577 128.804 721.793 130.652C721.009 132.444 720.337 133.984 719.777 135.272H711.881C711.321 133.984 710.649 132.416 709.865 130.568C709.081 128.72 708.213 126.76 707.261 124.688C706.365 122.56 705.413 120.376 704.405 118.136C703.453 115.896 702.501 113.74 701.549 111.668C700.597 109.596 699.701 107.664 698.861 105.872C698.021 104.024 697.293 102.484 696.677 101.252C696.061 107.972 695.585 114.916 695.249 122.084C694.969 129.252 694.717 136.224 694.493 143H684.077C684.301 138.184 684.553 133.2 684.833 128.048C685.169 122.896 685.505 117.8 685.841 112.76C686.233 107.664 686.653 102.736 687.101 97.976C687.549 93.216 688.025 88.82 688.529 84.788H698.357Z" fill="#322855"/>
<path d="M468.5 42.9999L521.32 43C521.043 41.8444 520.766 41.1877 520 40C519.067 38.729 518.195 38.0964 516.5 37L495.5 23L482 14L464 2L462.5 0.999998C461.822 0.664998 461.425 0.480958 460.5 0.253988L460.5 34.9999C460.5 39.4182 464.082 42.9999 468.5 42.9999Z" fill="white" fill-opacity="0.53"/>
<path d="M522 63.5L467.747 43H521L521.5 44L522 63.5Z" fill="black" fill-opacity="0.2"/>
<path d="M75.3824 278L67.2064 263.16H64.9104V278H55.3344V238.688H71.4064C74.505 238.688 77.137 239.229 79.3024 240.312C81.505 241.395 83.1477 242.888 84.2304 244.792C85.313 246.659 85.8544 248.749 85.8544 251.064C85.8544 253.677 85.1077 256.011 83.6144 258.064C82.1584 260.117 79.993 261.573 77.1184 262.432L86.1904 278H75.3824ZM64.9104 256.384H70.8464C72.601 256.384 73.9077 255.955 74.7664 255.096C75.6624 254.237 76.1104 253.024 76.1104 251.456C76.1104 249.963 75.6624 248.787 74.7664 247.928C73.9077 247.069 72.601 246.64 70.8464 246.64H64.9104V256.384ZM119.082 261.872C119.082 262.768 119.026 263.701 118.914 264.672H97.2416C97.3909 266.613 98.0069 268.107 99.0896 269.152C100.21 270.16 101.572 270.664 103.178 270.664C105.567 270.664 107.228 269.656 108.162 267.64H118.354C117.831 269.693 116.879 271.541 115.498 273.184C114.154 274.827 112.455 276.115 110.402 277.048C108.348 277.981 106.052 278.448 103.514 278.448C100.452 278.448 97.7269 277.795 95.3376 276.488C92.9483 275.181 91.0816 273.315 89.7376 270.888C88.3936 268.461 87.7216 265.624 87.7216 262.376C87.7216 259.128 88.3749 256.291 89.6816 253.864C91.0256 251.437 92.8923 249.571 95.2816 248.264C97.6709 246.957 100.415 246.304 103.514 246.304C106.538 246.304 109.226 246.939 111.578 248.208C113.93 249.477 115.759 251.288 117.066 253.64C118.41 255.992 119.082 258.736 119.082 261.872ZM109.282 259.352C109.282 257.709 108.722 256.403 107.602 255.432C106.482 254.461 105.082 253.976 103.402 253.976C101.796 253.976 100.434 254.443 99.3136 255.376C98.2309 256.309 97.5589 257.635 97.2976 259.352H109.282ZM119.989 262.32C119.989 259.109 120.587 256.291 121.781 253.864C123.013 251.437 124.675 249.571 126.765 248.264C128.856 246.957 131.189 246.304 133.765 246.304C135.968 246.304 137.891 246.752 139.533 247.648C141.213 248.544 142.501 249.72 143.397 251.176V246.752H152.973V278H143.397V273.576C142.464 275.032 141.157 276.208 139.477 277.104C137.835 278 135.912 278.448 133.709 278.448C131.171 278.448 128.856 277.795 126.765 276.488C124.675 275.144 123.013 273.259 121.781 270.832C120.587 268.368 119.989 265.531 119.989 262.32ZM143.397 262.376C143.397 259.987 142.725 258.101 141.381 256.72C140.075 255.339 138.469 254.648 136.565 254.648C134.661 254.648 133.037 255.339 131.693 256.72C130.387 258.064 129.733 259.931 129.733 262.32C129.733 264.709 130.387 266.613 131.693 268.032C133.037 269.413 134.661 270.104 136.565 270.104C138.469 270.104 140.075 269.413 141.381 268.032C142.725 266.651 143.397 264.765 143.397 262.376ZM170.373 278.448C167.648 278.448 165.221 277.981 163.093 277.048C160.965 276.115 159.285 274.845 158.053 273.24C156.821 271.597 156.131 269.768 155.981 267.752H165.445C165.557 268.835 166.061 269.712 166.957 270.384C167.853 271.056 168.955 271.392 170.261 271.392C171.456 271.392 172.371 271.168 173.005 270.72C173.677 270.235 174.013 269.619 174.013 268.872C174.013 267.976 173.547 267.323 172.613 266.912C171.68 266.464 170.168 265.979 168.077 265.456C165.837 264.933 163.971 264.392 162.477 263.832C160.984 263.235 159.696 262.32 158.613 261.088C157.531 259.819 156.989 258.12 156.989 255.992C156.989 254.2 157.475 252.576 158.445 251.12C159.453 249.627 160.909 248.451 162.813 247.592C164.755 246.733 167.051 246.304 169.701 246.304C173.621 246.304 176.701 247.275 178.941 249.216C181.219 251.157 182.525 253.733 182.861 256.944H174.013C173.864 255.861 173.379 255.003 172.557 254.368C171.773 253.733 170.728 253.416 169.421 253.416C168.301 253.416 167.443 253.64 166.845 254.088C166.248 254.499 165.949 255.077 165.949 255.824C165.949 256.72 166.416 257.392 167.349 257.84C168.32 258.288 169.813 258.736 171.829 259.184C174.144 259.781 176.029 260.379 177.485 260.976C178.941 261.536 180.211 262.469 181.293 263.776C182.413 265.045 182.992 266.763 183.029 268.928C183.029 270.757 182.507 272.4 181.461 273.856C180.453 275.275 178.979 276.395 177.037 277.216C175.133 278.037 172.912 278.448 170.373 278.448ZM200.872 278.448C197.81 278.448 195.048 277.795 192.584 276.488C190.157 275.181 188.234 273.315 186.816 270.888C185.434 268.461 184.744 265.624 184.744 262.376C184.744 259.165 185.453 256.347 186.872 253.92C188.29 251.456 190.232 249.571 192.696 248.264C195.16 246.957 197.922 246.304 200.984 246.304C204.045 246.304 206.808 246.957 209.272 248.264C211.736 249.571 213.677 251.456 215.096 253.92C216.514 256.347 217.224 259.165 217.224 262.376C217.224 265.587 216.496 268.424 215.04 270.888C213.621 273.315 211.661 275.181 209.16 276.488C206.696 277.795 203.933 278.448 200.872 278.448ZM200.872 270.16C202.701 270.16 204.25 269.488 205.52 268.144C206.826 266.8 207.48 264.877 207.48 262.376C207.48 259.875 206.845 257.952 205.576 256.608C204.344 255.264 202.813 254.592 200.984 254.592C199.117 254.592 197.568 255.264 196.336 256.608C195.104 257.915 194.488 259.837 194.488 262.376C194.488 264.877 195.085 266.8 196.28 268.144C197.512 269.488 199.042 270.16 200.872 270.16ZM239.104 246.416C242.763 246.416 245.675 247.611 247.84 250C250.043 252.352 251.144 255.6 251.144 259.744V278H241.624V261.032C241.624 258.941 241.083 257.317 240 256.16C238.917 255.003 237.461 254.424 235.632 254.424C233.803 254.424 232.347 255.003 231.264 256.16C230.181 257.317 229.64 258.941 229.64 261.032V278H220.064V246.752H229.64V250.896C230.611 249.515 231.917 248.432 233.56 247.648C235.203 246.827 237.051 246.416 239.104 246.416ZM253.654 262.32C253.654 259.109 254.252 256.291 255.446 253.864C256.678 251.437 258.34 249.571 260.43 248.264C262.521 246.957 264.854 246.304 267.43 246.304C269.633 246.304 271.556 246.752 273.198 247.648C274.878 248.544 276.166 249.72 277.062 251.176V246.752H286.638V278H277.062V273.576C276.129 275.032 274.822 276.208 273.142 277.104C271.5 278 269.577 278.448 267.374 278.448C264.836 278.448 262.521 277.795 260.43 276.488C258.34 275.144 256.678 273.259 255.446 270.832C254.252 268.368 253.654 265.531 253.654 262.32ZM277.062 262.376C277.062 259.987 276.39 258.101 275.046 256.72C273.74 255.339 272.134 254.648 270.23 254.648C268.326 254.648 266.702 255.339 265.358 256.72C264.052 258.064 263.398 259.931 263.398 262.32C263.398 264.709 264.052 266.613 265.358 268.032C266.702 269.413 268.326 270.104 270.23 270.104C272.134 270.104 273.74 269.413 275.046 268.032C276.39 266.651 277.062 264.765 277.062 262.376ZM300.902 251.176C301.798 249.72 303.086 248.544 304.766 247.648C306.446 246.752 308.369 246.304 310.534 246.304C313.11 246.304 315.444 246.957 317.534 248.264C319.625 249.571 321.268 251.437 322.462 253.864C323.694 256.291 324.31 259.109 324.31 262.32C324.31 265.531 323.694 268.368 322.462 270.832C321.268 273.259 319.625 275.144 317.534 276.488C315.444 277.795 313.11 278.448 310.534 278.448C308.332 278.448 306.409 278.019 304.766 277.16C303.124 276.264 301.836 275.088 300.902 273.632V278H291.326V236.56H300.902V251.176ZM314.566 262.32C314.566 259.931 313.894 258.064 312.55 256.72C311.244 255.339 309.62 254.648 307.678 254.648C305.774 254.648 304.15 255.339 302.806 256.72C301.5 258.101 300.846 259.987 300.846 262.376C300.846 264.765 301.5 266.651 302.806 268.032C304.15 269.413 305.774 270.104 307.678 270.104C309.582 270.104 311.206 269.413 312.55 268.032C313.894 266.613 314.566 264.709 314.566 262.32ZM336.67 236.56V278H327.094V236.56H336.67ZM373.29 246.752L353.69 292.84H343.386L350.554 276.936L337.842 246.752H348.538L355.762 266.296L362.93 246.752H373.29ZM424.012 246.416C427.894 246.416 430.974 247.592 433.252 249.944C435.566 252.296 436.724 255.563 436.724 259.744V278H427.204V261.032C427.204 259.016 426.662 257.467 425.58 256.384C424.534 255.264 423.078 254.704 421.212 254.704C419.345 254.704 417.87 255.264 416.788 256.384C415.742 257.467 415.22 259.016 415.22 261.032V278H405.7V261.032C405.7 259.016 405.158 257.467 404.076 256.384C403.03 255.264 401.574 254.704 399.708 254.704C397.841 254.704 396.366 255.264 395.284 256.384C394.238 257.467 393.716 259.016 393.716 261.032V278H384.14V246.752H393.716V250.672C394.686 249.365 395.956 248.339 397.524 247.592C399.092 246.808 400.865 246.416 402.844 246.416C405.196 246.416 407.286 246.92 409.116 247.928C410.982 248.936 412.438 250.373 413.484 252.24C414.566 250.523 416.041 249.123 417.908 248.04C419.774 246.957 421.809 246.416 424.012 246.416ZM439.277 262.32C439.277 259.109 439.874 256.291 441.069 253.864C442.301 251.437 443.962 249.571 446.053 248.264C448.144 246.957 450.477 246.304 453.053 246.304C455.256 246.304 457.178 246.752 458.821 247.648C460.501 248.544 461.789 249.72 462.685 251.176V246.752H472.261V278H462.685V273.576C461.752 275.032 460.445 276.208 458.765 277.104C457.122 278 455.2 278.448 452.997 278.448C450.458 278.448 448.144 277.795 446.053 276.488C443.962 275.144 442.301 273.259 441.069 270.832C439.874 268.368 439.277 265.531 439.277 262.32ZM462.685 262.376C462.685 259.987 462.013 258.101 460.669 256.72C459.362 255.339 457.757 254.648 455.853 254.648C453.949 254.648 452.325 255.339 450.981 256.72C449.674 258.064 449.021 259.931 449.021 262.32C449.021 264.709 449.674 266.613 450.981 268.032C452.325 269.413 453.949 270.104 455.853 270.104C457.757 270.104 459.362 269.413 460.669 268.032C462.013 266.651 462.685 264.765 462.685 262.376ZM496.045 278L486.525 264.896V278H476.949V236.56H486.525V259.464L495.989 246.752H507.805L494.813 262.432L507.917 278H496.045ZM514.142 243.504C512.462 243.504 511.081 243.019 509.998 242.048C508.953 241.04 508.43 239.808 508.43 238.352C508.43 236.859 508.953 235.627 509.998 234.656C511.081 233.648 512.462 233.144 514.142 233.144C515.785 233.144 517.129 233.648 518.174 234.656C519.257 235.627 519.798 236.859 519.798 238.352C519.798 239.808 519.257 241.04 518.174 242.048C517.129 243.019 515.785 243.504 514.142 243.504ZM518.902 246.752V278H509.326V246.752H518.902ZM542.642 246.416C546.3 246.416 549.212 247.611 551.378 250C553.58 252.352 554.682 255.6 554.682 259.744V278H545.162V261.032C545.162 258.941 544.62 257.317 543.538 256.16C542.455 255.003 540.999 254.424 539.17 254.424C537.34 254.424 535.884 255.003 534.802 256.16C533.719 257.317 533.178 258.941 533.178 261.032V278H523.602V246.752H533.178V250.896C534.148 249.515 535.455 248.432 537.098 247.648C538.74 246.827 540.588 246.416 542.642 246.416ZM570.968 246.304C573.171 246.304 575.093 246.752 576.736 247.648C578.416 248.544 579.704 249.72 580.6 251.176V246.752H590.176V277.944C590.176 280.819 589.597 283.413 588.44 285.728C587.32 288.08 585.584 289.947 583.232 291.328C580.917 292.709 578.024 293.4 574.552 293.4C569.923 293.4 566.171 292.299 563.296 290.096C560.421 287.931 558.779 284.981 558.368 281.248H567.832C568.131 282.443 568.84 283.376 569.96 284.048C571.08 284.757 572.461 285.112 574.104 285.112C576.083 285.112 577.651 284.533 578.808 283.376C580.003 282.256 580.6 280.445 580.6 277.944V273.52C579.667 274.976 578.379 276.171 576.736 277.104C575.093 278 573.171 278.448 570.968 278.448C568.392 278.448 566.059 277.795 563.968 276.488C561.877 275.144 560.216 273.259 558.984 270.832C557.789 268.368 557.192 265.531 557.192 262.32C557.192 259.109 557.789 256.291 558.984 253.864C560.216 251.437 561.877 249.571 563.968 248.264C566.059 246.957 568.392 246.304 570.968 246.304ZM580.6 262.376C580.6 259.987 579.928 258.101 578.584 256.72C577.277 255.339 575.672 254.648 573.768 254.648C571.864 254.648 570.24 255.339 568.896 256.72C567.589 258.064 566.936 259.931 566.936 262.32C566.936 264.709 567.589 266.613 568.896 268.032C570.24 269.413 571.864 270.104 573.768 270.104C575.672 270.104 577.277 269.413 578.584 268.032C579.928 266.651 580.6 264.765 580.6 262.376ZM620.171 254.704H615.019V278H605.443V254.704H601.971V246.752H605.443V245.856C605.443 242.011 606.544 239.099 608.747 237.12C610.95 235.104 614.179 234.096 618.435 234.096C619.144 234.096 619.667 234.115 620.003 234.152V242.272C618.174 242.16 616.886 242.421 616.139 243.056C615.392 243.691 615.019 244.829 615.019 246.472V246.752H620.171V254.704ZM636.655 278.448C633.593 278.448 630.831 277.795 628.367 276.488C625.94 275.181 624.017 273.315 622.599 270.888C621.217 268.461 620.527 265.624 620.527 262.376C620.527 259.165 621.236 256.347 622.655 253.92C624.073 251.456 626.015 249.571 628.479 248.264C630.943 246.957 633.705 246.304 636.767 246.304C639.828 246.304 642.591 246.957 645.055 248.264C647.519 249.571 649.46 251.456 650.879 253.92C652.297 256.347 653.007 259.165 653.007 262.376C653.007 265.587 652.279 268.424 650.823 270.888C649.404 273.315 647.444 275.181 644.943 276.488C642.479 277.795 639.716 278.448 636.655 278.448ZM636.655 270.16C638.484 270.16 640.033 269.488 641.303 268.144C642.609 266.8 643.263 264.877 643.263 262.376C643.263 259.875 642.628 257.952 641.359 256.608C640.127 255.264 638.596 254.592 636.767 254.592C634.9 254.592 633.351 255.264 632.119 256.608C630.887 257.915 630.271 259.837 630.271 262.376C630.271 264.877 630.868 266.8 632.063 268.144C633.295 269.488 634.825 270.16 636.655 270.16ZM665.423 251.96C666.543 250.243 667.943 248.899 669.623 247.928C671.303 246.92 673.17 246.416 675.223 246.416V256.552H672.591C670.202 256.552 668.41 257.075 667.215 258.12C666.02 259.128 665.423 260.92 665.423 263.496V278H655.847V246.752H665.423V251.96ZM717.432 246.416C721.315 246.416 724.395 247.592 726.672 249.944C728.987 252.296 730.144 255.563 730.144 259.744V278H720.624V261.032C720.624 259.016 720.083 257.467 719 256.384C717.955 255.264 716.499 254.704 714.632 254.704C712.765 254.704 711.291 255.264 710.208 256.384C709.163 257.467 708.64 259.016 708.64 261.032V278H699.12V261.032C699.12 259.016 698.579 257.467 697.496 256.384C696.451 255.264 694.995 254.704 693.128 254.704C691.261 254.704 689.787 255.264 688.704 256.384C687.659 257.467 687.136 259.016 687.136 261.032V278H677.56V246.752H687.136V250.672C688.107 249.365 689.376 248.339 690.944 247.592C692.512 246.808 694.285 246.416 696.264 246.416C698.616 246.416 700.707 246.92 702.536 247.928C704.403 248.936 705.859 250.373 706.904 252.24C707.987 250.523 709.461 249.123 711.328 248.04C713.195 246.957 715.229 246.416 717.432 246.416ZM747.313 278.448C744.588 278.448 742.161 277.981 740.033 277.048C737.905 276.115 736.225 274.845 734.993 273.24C733.761 271.597 733.071 269.768 732.921 267.752H742.385C742.497 268.835 743.001 269.712 743.897 270.384C744.793 271.056 745.895 271.392 747.201 271.392C748.396 271.392 749.311 271.168 749.945 270.72C750.617 270.235 750.953 269.619 750.953 268.872C750.953 267.976 750.487 267.323 749.553 266.912C748.62 266.464 747.108 265.979 745.017 265.456C742.777 264.933 740.911 264.392 739.417 263.832C737.924 263.235 736.636 262.32 735.553 261.088C734.471 259.819 733.929 258.12 733.929 255.992C733.929 254.2 734.415 252.576 735.385 251.12C736.393 249.627 737.849 248.451 739.753 247.592C741.695 246.733 743.991 246.304 746.641 246.304C750.561 246.304 753.641 247.275 755.881 249.216C758.159 251.157 759.465 253.733 759.801 256.944H750.953C750.804 255.861 750.319 255.003 749.497 254.368C748.713 253.733 747.668 253.416 746.361 253.416C745.241 253.416 744.383 253.64 743.785 254.088C743.188 254.499 742.889 255.077 742.889 255.824C742.889 256.72 743.356 257.392 744.289 257.84C745.26 258.288 746.753 258.736 748.769 259.184C751.084 259.781 752.969 260.379 754.425 260.976C755.881 261.536 757.151 262.469 758.233 263.776C759.353 265.045 759.932 266.763 759.969 268.928C759.969 270.757 759.447 272.4 758.401 273.856C757.393 275.275 755.919 276.395 753.977 277.216C752.073 278.037 749.852 278.448 747.313 278.448ZM785.927 278.448C783.202 278.448 780.775 277.981 778.647 277.048C776.519 276.115 774.839 274.845 773.607 273.24C772.375 271.597 771.684 269.768 771.535 267.752H780.999C781.111 268.835 781.615 269.712 782.511 270.384C783.407 271.056 784.508 271.392 785.815 271.392C787.01 271.392 787.924 271.168 788.559 270.72C789.231 270.235 789.567 269.619 789.567 268.872C789.567 267.976 789.1 267.323 788.167 266.912C787.234 266.464 785.722 265.979 783.631 265.456C781.391 264.933 779.524 264.392 778.031 263.832C776.538 263.235 775.25 262.32 774.167 261.088C773.084 259.819 772.543 258.12 772.543 255.992C772.543 254.2 773.028 252.576 773.999 251.12C775.007 249.627 776.463 248.451 778.367 247.592C780.308 246.733 782.604 246.304 785.255 246.304C789.175 246.304 792.255 247.275 794.495 249.216C796.772 251.157 798.079 253.733 798.415 256.944H789.567C789.418 255.861 788.932 255.003 788.111 254.368C787.327 253.733 786.282 253.416 784.975 253.416C783.855 253.416 782.996 253.64 782.399 254.088C781.802 254.499 781.503 255.077 781.503 255.824C781.503 256.72 781.97 257.392 782.903 257.84C783.874 258.288 785.367 258.736 787.383 259.184C789.698 259.781 791.583 260.379 793.039 260.976C794.495 261.536 795.764 262.469 796.847 263.776C797.967 265.045 798.546 266.763 798.583 268.928C798.583 270.757 798.06 272.4 797.015 273.856C796.007 275.275 794.532 276.395 792.591 277.216C790.687 278.037 788.466 278.448 785.927 278.448ZM816.426 278.448C813.364 278.448 810.602 277.795 808.138 276.488C805.711 275.181 803.788 273.315 802.37 270.888C800.988 268.461 800.298 265.624 800.298 262.376C800.298 259.165 801.007 256.347 802.426 253.92C803.844 251.456 805.786 249.571 808.25 248.264C810.714 246.957 813.476 246.304 816.538 246.304C819.599 246.304 822.362 246.957 824.826 248.264C827.29 249.571 829.231 251.456 830.65 253.92C832.068 256.347 832.778 259.165 832.778 262.376C832.778 265.587 832.05 268.424 830.594 270.888C829.175 273.315 827.215 275.181 824.714 276.488C822.25 277.795 819.487 278.448 816.426 278.448ZM816.426 270.16C818.255 270.16 819.804 269.488 821.074 268.144C822.38 266.8 823.034 264.877 823.034 262.376C823.034 259.875 822.399 257.952 821.13 256.608C819.898 255.264 818.367 254.592 816.538 254.592C814.671 254.592 813.122 255.264 811.89 256.608C810.658 257.915 810.042 259.837 810.042 262.376C810.042 264.877 810.639 266.8 811.834 268.144C813.066 269.488 814.596 270.16 816.426 270.16ZM866.474 246.752V278H856.898V273.744C855.927 275.125 854.602 276.245 852.922 277.104C851.279 277.925 849.45 278.336 847.434 278.336C845.044 278.336 842.935 277.813 841.106 276.768C839.276 275.685 837.858 274.136 836.85 272.12C835.842 270.104 835.338 267.733 835.338 265.008V246.752H844.858V263.72C844.858 265.811 845.399 267.435 846.482 268.592C847.564 269.749 849.02 270.328 850.85 270.328C852.716 270.328 854.191 269.749 855.274 268.592C856.356 267.435 856.898 265.811 856.898 263.72V246.752H866.474ZM890.152 246.416C893.811 246.416 896.723 247.611 898.888 250C901.091 252.352 902.192 255.6 902.192 259.744V278H892.672V261.032C892.672 258.941 892.131 257.317 891.048 256.16C889.966 255.003 888.51 254.424 886.68 254.424C884.851 254.424 883.395 255.003 882.312 256.16C881.23 257.317 880.688 258.941 880.688 261.032V278H871.112V246.752H880.688V250.896C881.659 249.515 882.966 248.432 884.608 247.648C886.251 246.827 888.099 246.416 890.152 246.416ZM904.703 262.32C904.703 259.109 905.3 256.291 906.495 253.864C907.727 251.437 909.388 249.571 911.479 248.264C913.569 246.957 915.903 246.304 918.479 246.304C920.532 246.304 922.399 246.733 924.079 247.592C925.796 248.451 927.14 249.608 928.111 251.064V236.56H937.687V278H928.111V273.52C927.215 275.013 925.927 276.208 924.247 277.104C922.604 278 920.681 278.448 918.479 278.448C915.903 278.448 913.569 277.795 911.479 276.488C909.388 275.144 907.727 273.259 906.495 270.832C905.3 268.368 904.703 265.531 904.703 262.32ZM928.111 262.376C928.111 259.987 927.439 258.101 926.095 256.72C924.788 255.339 923.183 254.648 921.279 254.648C919.375 254.648 917.751 255.339 916.407 256.72C915.1 258.064 914.447 259.931 914.447 262.32C914.447 264.709 915.1 266.613 916.407 268.032C917.751 269.413 919.375 270.104 921.279 270.104C923.183 270.104 924.788 269.413 926.095 268.032C927.439 266.651 928.111 264.765 928.111 262.376ZM963.874 246.304C966.076 246.304 967.999 246.752 969.642 247.648C971.322 248.544 972.61 249.72 973.506 251.176V246.752H983.082V277.944C983.082 280.819 982.503 283.413 981.346 285.728C980.226 288.08 978.49 289.947 976.138 291.328C973.823 292.709 970.93 293.4 967.458 293.4C962.828 293.4 959.076 292.299 956.202 290.096C953.327 287.931 951.684 284.981 951.274 281.248H960.738C961.036 282.443 961.746 283.376 962.866 284.048C963.986 284.757 965.367 285.112 967.01 285.112C968.988 285.112 970.556 284.533 971.714 283.376C972.908 282.256 973.506 280.445 973.506 277.944V273.52C972.572 274.976 971.284 276.171 969.642 277.104C967.999 278 966.076 278.448 963.874 278.448C961.298 278.448 958.964 277.795 956.874 276.488C954.783 275.144 953.122 273.259 951.89 270.832C950.695 268.368 950.098 265.531 950.098 262.32C950.098 259.109 950.695 256.291 951.89 253.864C953.122 251.437 954.783 249.571 956.874 248.264C958.964 246.957 961.298 246.304 963.874 246.304ZM973.506 262.376C973.506 259.987 972.834 258.101 971.49 256.72C970.183 255.339 968.578 254.648 966.674 254.648C964.77 254.648 963.146 255.339 961.802 256.72C960.495 258.064 959.842 259.931 959.842 262.32C959.842 264.709 960.495 266.613 961.802 268.032C963.146 269.413 964.77 270.104 966.674 270.104C968.578 270.104 970.183 269.413 971.49 268.032C972.834 266.651 973.506 264.765 973.506 262.376ZM1001.99 278.448C998.932 278.448 996.169 277.795 993.705 276.488C991.279 275.181 989.356 273.315 987.937 270.888C986.556 268.461 985.865 265.624 985.865 262.376C985.865 259.165 986.575 256.347 987.993 253.92C989.412 251.456 991.353 249.571 993.817 248.264C996.281 246.957 999.044 246.304 1002.11 246.304C1005.17 246.304 1007.93 246.957 1010.39 248.264C1012.86 249.571 1014.8 251.456 1016.22 253.92C1017.64 256.347 1018.35 259.165 1018.35 262.376C1018.35 265.587 1017.62 268.424 1016.16 270.888C1014.74 273.315 1012.78 275.181 1010.28 276.488C1007.82 277.795 1005.05 278.448 1001.99 278.448ZM1001.99 270.16C1003.82 270.16 1005.37 269.488 1006.64 268.144C1007.95 266.8 1008.6 264.877 1008.6 262.376C1008.6 259.875 1007.97 257.952 1006.7 256.608C1005.47 255.264 1003.93 254.592 1002.11 254.592C1000.24 254.592 998.689 255.264 997.457 256.608C996.225 257.915 995.609 259.837 995.609 262.376C995.609 264.877 996.207 266.8 997.401 268.144C998.633 269.488 1000.16 270.16 1001.99 270.16ZM1035.41 278.448C1032.35 278.448 1029.59 277.795 1027.12 276.488C1024.69 275.181 1022.77 273.315 1021.35 270.888C1019.97 268.461 1019.28 265.624 1019.28 262.376C1019.28 259.165 1019.99 256.347 1021.41 253.92C1022.83 251.456 1024.77 249.571 1027.23 248.264C1029.7 246.957 1032.46 246.304 1035.52 246.304C1038.58 246.304 1041.35 246.957 1043.81 248.264C1046.27 249.571 1048.21 251.456 1049.63 253.92C1051.05 256.347 1051.76 259.165 1051.76 262.376C1051.76 265.587 1051.03 268.424 1049.58 270.888C1048.16 273.315 1046.2 275.181 1043.7 276.488C1041.23 277.795 1038.47 278.448 1035.41 278.448ZM1035.41 270.16C1037.24 270.16 1038.79 269.488 1040.06 268.144C1041.36 266.8 1042.02 264.877 1042.02 262.376C1042.02 259.875 1041.38 257.952 1040.11 256.608C1038.88 255.264 1037.35 254.592 1035.52 254.592C1033.65 254.592 1032.11 255.264 1030.87 256.608C1029.64 257.915 1029.03 259.837 1029.03 262.376C1029.03 264.877 1029.62 266.8 1030.82 268.144C1032.05 269.488 1033.58 270.16 1035.41 270.16ZM1052.7 262.32C1052.7 259.109 1053.3 256.291 1054.49 253.864C1055.72 251.437 1057.38 249.571 1059.47 248.264C1061.56 246.957 1063.9 246.304 1066.47 246.304C1068.53 246.304 1070.39 246.733 1072.07 247.592C1073.79 248.451 1075.14 249.608 1076.11 251.064V236.56H1085.68V278H1076.11V273.52C1075.21 275.013 1073.92 276.208 1072.24 277.104C1070.6 278 1068.68 278.448 1066.47 278.448C1063.9 278.448 1061.56 277.795 1059.47 276.488C1057.38 275.144 1055.72 273.259 1054.49 270.832C1053.3 268.368 1052.7 265.531 1052.7 262.32ZM1076.11 262.376C1076.11 259.987 1075.43 258.101 1074.09 256.72C1072.78 255.339 1071.18 254.648 1069.27 254.648C1067.37 254.648 1065.75 255.339 1064.4 256.72C1063.1 258.064 1062.44 259.931 1062.44 262.32C1062.44 264.709 1063.1 266.613 1064.4 268.032C1065.75 269.413 1067.37 270.104 1069.27 270.104C1071.18 270.104 1072.78 269.413 1074.09 268.032C1075.43 266.651 1076.11 264.765 1076.11 262.376Z" fill="#322855"/>
</svg>
