<svg width="1280" height="640" viewBox="0 0 1280 640" fill="none" xmlns="http://www.w3.org/2000/svg">
<rect width="1280" height="640" rx="32" fill="#FAFAFA"/>
<rect width="1280" height="640" rx="32" fill="#FAFAFA"/>
<path d="M223.41 336.8H230.13L238.53 369.84H244.69L252.81 336.8H259.25L249.45 376H233.49L223.41 336.8ZM261.919 372.472C259.38 369.709 258.111 366.125 258.111 361.72C258.111 357.315 259.38 353.749 261.919 351.024C264.495 348.261 267.705 346.88 271.551 346.88C273.977 346.88 276.199 347.589 278.215 349.008C279.073 349.605 279.839 350.296 280.511 351.08H280.791V347.44H286.671V376H280.791V372.08H280.511C279.951 372.864 279.185 373.611 278.215 374.32C276.199 375.813 273.977 376.56 271.551 376.56C267.705 376.56 264.495 375.197 261.919 372.472ZM266.511 354.664C265.017 356.307 264.271 358.659 264.271 361.72C264.271 364.781 265.017 367.133 266.511 368.776C268.004 370.419 270.057 371.24 272.671 371.24C275.135 371.24 277.095 370.419 278.551 368.776C280.044 367.096 280.791 364.744 280.791 361.72C280.791 358.696 280.044 356.363 278.551 354.72C277.095 353.04 275.135 352.2 272.671 352.2C270.057 352.2 268.004 353.021 266.511 354.664ZM291.409 376V336.8H297.289V370.68H303.729V376H291.409ZM306.139 342.232C305.467 341.56 305.131 340.739 305.131 339.768C305.131 338.797 305.467 337.976 306.139 337.304C306.811 336.595 307.632 336.24 308.603 336.24C309.574 336.24 310.395 336.595 311.067 337.304C311.776 337.976 312.131 338.797 312.131 339.768C312.131 340.739 311.776 341.56 311.067 342.232C310.395 342.904 309.574 343.24 308.603 343.24C307.632 343.24 306.811 342.904 306.139 342.232ZM305.691 376V347.44H311.571V376H305.691ZM318.437 372.472C315.899 369.709 314.629 366.125 314.629 361.72C314.629 357.315 315.899 353.749 318.437 351.024C321.013 348.261 324.224 346.88 328.069 346.88C330.496 346.88 332.717 347.589 334.733 349.008C335.592 349.605 336.357 350.296 337.029 351.08H337.309V336.8H343.189V376H337.309V372.36H337.029C336.395 373.144 335.629 373.853 334.733 374.488C332.755 375.869 330.533 376.56 328.069 376.56C324.224 376.56 321.013 375.197 318.437 372.472ZM323.029 354.664C321.536 356.307 320.789 358.659 320.789 361.72C320.789 364.781 321.536 367.133 323.029 368.776C324.523 370.419 326.576 371.24 329.189 371.24C331.653 371.24 333.613 370.419 335.069 368.776C336.563 367.096 337.309 364.744 337.309 361.72C337.309 358.696 336.563 356.363 335.069 354.72C333.613 353.04 331.653 352.2 329.189 352.2C326.576 352.2 324.523 353.021 323.029 354.664ZM350.055 372.472C347.517 369.709 346.247 366.125 346.247 361.72C346.247 357.315 347.517 353.749 350.055 351.024C352.631 348.261 355.842 346.88 359.687 346.88C362.114 346.88 364.335 347.589 366.351 349.008C367.21 349.605 367.975 350.296 368.647 351.08H368.927V347.44H374.807V376H368.927V372.08H368.647C368.087 372.864 367.322 373.611 366.351 374.32C364.335 375.813 362.114 376.56 359.687 376.56C355.842 376.56 352.631 375.197 350.055 372.472ZM354.647 354.664C353.154 356.307 352.407 358.659 352.407 361.72C352.407 364.781 353.154 367.133 354.647 368.776C356.141 370.419 358.194 371.24 360.807 371.24C363.271 371.24 365.231 370.419 366.687 368.776C368.181 367.096 368.927 364.744 368.927 361.72C368.927 358.696 368.181 356.363 366.687 354.72C365.231 353.04 363.271 352.2 360.807 352.2C358.194 352.2 356.141 353.021 354.647 354.664ZM377.305 352.76V347.44H380.665V341.28H386.545V347.44H395.225V352.76H386.545V370.68H395.505V376H380.665V352.76H377.305ZM399.033 342.232C398.361 341.56 398.025 340.739 398.025 339.768C398.025 338.797 398.361 337.976 399.033 337.304C399.705 336.595 400.527 336.24 401.497 336.24C402.468 336.24 403.289 336.595 403.961 337.304C404.671 337.976 405.025 338.797 405.025 339.768C405.025 340.739 404.671 341.56 403.961 342.232C403.289 342.904 402.468 343.24 401.497 343.24C400.527 343.24 399.705 342.904 399.033 342.232ZM398.585 376V347.44H404.465V376H398.585ZM411.78 372.304C408.942 369.429 407.524 365.901 407.524 361.72C407.524 357.539 408.942 354.029 411.78 351.192C414.654 348.317 418.182 346.88 422.364 346.88C426.545 346.88 430.054 348.317 432.892 351.192C435.766 354.029 437.204 357.539 437.204 361.72C437.204 365.901 435.766 369.429 432.892 372.304C430.054 375.141 426.545 376.56 422.364 376.56C418.182 376.56 414.654 375.141 411.78 372.304ZM416.092 354.832C414.486 356.549 413.684 358.845 413.684 361.72C413.684 364.595 414.486 366.909 416.092 368.664C417.697 370.381 419.788 371.24 422.364 371.24C424.94 371.24 427.03 370.381 428.636 368.664C430.241 366.909 431.044 364.595 431.044 361.72C431.044 358.845 430.241 356.549 428.636 354.832C427.03 353.077 424.94 352.2 422.364 352.2C419.788 352.2 417.697 353.077 416.092 354.832ZM440.275 376V347.44H446.155V351.36H446.435C446.883 350.613 447.574 349.867 448.507 349.12C450.523 347.627 452.819 346.88 455.395 346.88C458.942 346.88 461.686 347.907 463.627 349.96C465.606 352.013 466.595 355 466.595 358.92V376H460.715V359.48C460.715 356.979 460.155 355.149 459.035 353.992C457.952 352.797 456.272 352.2 453.995 352.2C451.718 352.2 449.832 352.984 448.339 354.552C446.883 356.083 446.155 358.099 446.155 360.6V376H440.275ZM484.808 376V347.44H490.688V351.36H490.968C491.453 350.539 492.088 349.792 492.872 349.12C494.664 347.627 496.829 346.88 499.368 346.88C502.392 346.88 504.837 347.776 506.704 349.568C507.488 350.315 508.123 351.192 508.608 352.2H508.888C509.411 351.229 510.139 350.352 511.072 349.568C513.088 347.776 515.627 346.88 518.688 346.88C522.011 346.88 524.605 347.925 526.472 350.016C528.376 352.069 529.328 355.037 529.328 358.92V376H523.448V359.2C523.448 354.533 521.395 352.2 517.288 352.2C515.309 352.2 513.592 352.984 512.136 354.552C510.717 356.083 510.008 358.005 510.008 360.32V376H504.128V359.2C504.128 354.533 502.075 352.2 497.968 352.2C495.989 352.2 494.272 352.984 492.816 354.552C491.397 356.083 490.688 358.005 490.688 360.32V376H484.808ZM535.945 372.472C533.406 369.709 532.137 366.125 532.137 361.72C532.137 357.315 533.406 353.749 535.945 351.024C538.521 348.261 541.731 346.88 545.577 346.88C548.003 346.88 550.225 347.589 552.241 349.008C553.099 349.605 553.865 350.296 554.537 351.08H554.817V347.44H560.697V376H554.817V372.08H554.537C553.977 372.864 553.211 373.611 552.241 374.32C550.225 375.813 548.003 376.56 545.577 376.56C541.731 376.56 538.521 375.197 535.945 372.472ZM540.537 354.664C539.043 356.307 538.297 358.659 538.297 361.72C538.297 364.781 539.043 367.133 540.537 368.776C542.03 370.419 544.083 371.24 546.697 371.24C549.161 371.24 551.121 370.419 552.577 368.776C554.07 367.096 554.817 364.744 554.817 361.72C554.817 358.696 554.07 356.363 552.577 354.72C551.121 353.04 549.161 352.2 546.697 352.2C544.083 352.2 542.03 353.021 540.537 354.664ZM567.563 372.472C565.024 369.709 563.755 366.125 563.755 361.72C563.755 357.315 565.024 353.749 567.563 351.024C570.139 348.261 573.349 346.88 577.195 346.88C579.621 346.88 581.843 347.589 583.859 349.008C584.717 349.605 585.483 350.296 586.155 351.08H586.435V336.8H592.315V376H586.435V372.36H586.155C585.52 373.144 584.755 373.853 583.859 374.488C581.88 375.869 579.659 376.56 577.195 376.56C573.349 376.56 570.139 375.197 567.563 372.472ZM572.155 354.664C570.661 356.307 569.915 358.659 569.915 361.72C569.915 364.781 570.661 367.133 572.155 368.776C573.648 370.419 575.701 371.24 578.315 371.24C580.779 371.24 582.739 370.419 584.195 368.776C585.688 367.096 586.435 364.744 586.435 361.72C586.435 358.696 585.688 356.363 584.195 354.72C582.739 353.04 580.779 352.2 578.315 352.2C575.701 352.2 573.648 353.021 572.155 354.664ZM599.573 372.304C596.773 369.429 595.373 365.901 595.373 361.72C595.373 357.539 596.773 354.029 599.573 351.192C602.41 348.317 605.864 346.88 609.933 346.88C614.002 346.88 617.437 348.317 620.237 351.192C623.074 354.029 624.493 357.539 624.493 361.72V363.68H601.253C601.701 366.032 602.728 367.88 604.333 369.224C605.938 370.568 607.805 371.24 609.933 371.24C612.546 371.24 614.637 370.587 616.205 369.28C616.914 368.757 617.53 368.104 618.053 367.32H624.213C623.429 369.149 622.44 370.699 621.245 371.968C618.184 375.029 614.413 376.56 609.933 376.56C605.864 376.56 602.41 375.141 599.573 372.304ZM601.533 358.92H618.333C617.997 357.053 617.101 355.467 615.645 354.16C614.226 352.853 612.322 352.2 609.933 352.2C607.917 352.2 606.125 352.816 604.557 354.048C602.989 355.243 601.981 356.867 601.533 358.92ZM643.833 372.304C641.033 369.429 639.633 365.901 639.633 361.72C639.633 357.539 641.033 354.029 643.833 351.192C646.67 348.317 650.123 346.88 654.193 346.88C658.262 346.88 661.697 348.317 664.497 351.192C667.334 354.029 668.753 357.539 668.753 361.72V363.68H645.513C645.961 366.032 646.987 367.88 648.593 369.224C650.198 370.568 652.065 371.24 654.193 371.24C656.806 371.24 658.897 370.587 660.465 369.28C661.174 368.757 661.79 368.104 662.313 367.32H668.473C667.689 369.149 666.699 370.699 665.505 371.968C662.443 375.029 658.673 376.56 654.193 376.56C650.123 376.56 646.67 375.141 643.833 372.304ZM645.793 358.92H662.593C662.257 357.053 661.361 355.467 659.905 354.16C658.486 352.853 656.582 352.2 654.193 352.2C652.177 352.2 650.385 352.816 648.817 354.048C647.249 355.243 646.241 356.867 645.793 358.92ZM673.965 372.472C671.426 369.709 670.157 366.125 670.157 361.72C670.157 357.315 671.426 353.749 673.965 351.024C676.541 348.261 679.752 346.88 683.597 346.88C686.024 346.88 688.245 347.589 690.261 349.008C691.12 349.605 691.885 350.296 692.557 351.08H692.837V347.44H698.717V376H692.837V372.08H692.557C691.997 372.864 691.232 373.611 690.261 374.32C688.245 375.813 686.024 376.56 683.597 376.56C679.752 376.56 676.541 375.197 673.965 372.472ZM678.557 354.664C677.064 356.307 676.317 358.659 676.317 361.72C676.317 364.781 677.064 367.133 678.557 368.776C680.05 370.419 682.104 371.24 684.717 371.24C687.181 371.24 689.141 370.419 690.597 368.776C692.09 367.096 692.837 364.744 692.837 361.72C692.837 358.696 692.09 356.363 690.597 354.72C689.141 353.04 687.181 352.2 684.717 352.2C682.104 352.2 680.05 353.021 678.557 354.664ZM701.495 367.04H707.935C708.196 367.787 708.663 368.496 709.335 369.168C710.716 370.549 712.583 371.24 714.935 371.24C716.988 371.24 718.482 370.923 719.415 370.288C720.348 369.653 720.815 368.851 720.815 367.88C720.815 367.544 720.74 367.245 720.591 366.984C720.442 366.685 720.18 366.424 719.807 366.2C719.434 365.976 719.079 365.789 718.743 365.64C718.407 365.453 717.903 365.285 717.231 365.136C716.559 364.949 716.018 364.819 715.607 364.744C715.196 364.632 714.562 364.483 713.703 364.296C712.882 364.109 712.266 363.979 711.855 363.904C705.882 362.56 702.895 359.685 702.895 355.28C702.895 353.04 703.922 351.08 705.975 349.4C708.028 347.72 710.735 346.88 714.095 346.88C718.762 346.88 722.252 348.373 724.567 351.36C725.612 352.667 726.322 354.16 726.695 355.84H720.535C720.236 355.093 719.826 354.496 719.303 354.048C717.996 352.816 716.26 352.2 714.095 352.2C712.415 352.2 711.146 352.499 710.287 353.096C709.466 353.693 709.055 354.44 709.055 355.336C709.055 355.672 709.13 355.989 709.279 356.288C709.428 356.549 709.69 356.792 710.063 357.016C710.436 357.24 710.791 357.427 711.127 357.576C711.5 357.725 712.004 357.893 712.639 358.08C713.274 358.229 713.815 358.36 714.263 358.472C714.711 358.547 715.327 358.677 716.111 358.864C716.932 359.013 717.567 359.144 718.015 359.256C723.988 360.6 726.975 363.475 726.975 367.88C726.975 370.269 725.892 372.323 723.727 374.04C721.599 375.72 718.668 376.56 714.935 376.56C710.082 376.56 706.367 374.973 703.791 371.8C702.634 370.344 701.868 368.757 701.495 367.04ZM727.242 347.44H733.402L739.562 370.4H742.642L749.362 347.44H755.522L743.762 386.64H737.602L740.962 376H735.082L727.242 347.44ZM768.124 352.76V347.44H771.484V336.8H785.764V342.12H777.364V347.44H784.084V352.76H777.364V376H771.484V352.76H768.124ZM789.191 372.304C786.354 369.429 784.935 365.901 784.935 361.72C784.935 357.539 786.354 354.029 789.191 351.192C792.066 348.317 795.594 346.88 799.775 346.88C803.956 346.88 807.466 348.317 810.303 351.192C813.178 354.029 814.615 357.539 814.615 361.72C814.615 365.901 813.178 369.429 810.303 372.304C807.466 375.141 803.956 376.56 799.775 376.56C795.594 376.56 792.066 375.141 789.191 372.304ZM793.503 354.832C791.898 356.549 791.095 358.845 791.095 361.72C791.095 364.595 791.898 366.909 793.503 368.664C795.108 370.381 797.199 371.24 799.775 371.24C802.351 371.24 804.442 370.381 806.047 368.664C807.652 366.909 808.455 364.595 808.455 361.72C808.455 358.845 807.652 356.549 806.047 354.832C804.442 353.077 802.351 352.2 799.775 352.2C797.199 352.2 795.108 353.077 793.503 354.832ZM817.686 376V347.44H823.566V351.64H823.846C824.257 350.856 824.854 350.109 825.638 349.4C827.356 347.907 829.372 347.16 831.686 347.16H835.046V352.76H831.406C829.129 352.76 827.244 353.488 825.75 354.944C824.294 356.363 823.566 358.248 823.566 360.6V376H817.686ZM477.179 436.52V419.44H483.059V435.96C483.059 438.461 483.6 440.309 484.683 441.504C485.803 442.661 487.502 443.24 489.779 443.24C492.056 443.24 493.923 442.475 495.379 440.944C496.872 439.376 497.619 437.341 497.619 434.84V419.44H503.499V448H497.619V444.08H497.339C496.891 444.827 496.2 445.573 495.267 446.32C493.251 447.813 490.955 448.56 488.379 448.56C484.832 448.56 482.07 447.533 480.091 445.48C478.15 443.427 477.179 440.44 477.179 436.52ZM506.29 439.04H512.73C512.992 439.787 513.458 440.496 514.13 441.168C515.512 442.549 517.378 443.24 519.73 443.24C521.784 443.24 523.277 442.923 524.21 442.288C525.144 441.653 525.61 440.851 525.61 439.88C525.61 439.544 525.536 439.245 525.386 438.984C525.237 438.685 524.976 438.424 524.602 438.2C524.229 437.976 523.874 437.789 523.538 437.64C523.202 437.453 522.698 437.285 522.026 437.136C521.354 436.949 520.813 436.819 520.402 436.744C519.992 436.632 519.357 436.483 518.498 436.296C517.677 436.109 517.061 435.979 516.65 435.904C510.677 434.56 507.69 431.685 507.69 427.28C507.69 425.04 508.717 423.08 510.77 421.4C512.824 419.72 515.53 418.88 518.89 418.88C523.557 418.88 527.048 420.373 529.362 423.36C530.408 424.667 531.117 426.16 531.49 427.84H525.33C525.032 427.093 524.621 426.496 524.098 426.048C522.792 424.816 521.056 424.2 518.89 424.2C517.21 424.2 515.941 424.499 515.082 425.096C514.261 425.693 513.85 426.44 513.85 427.336C513.85 427.672 513.925 427.989 514.074 428.288C514.224 428.549 514.485 428.792 514.858 429.016C515.232 429.24 515.586 429.427 515.922 429.576C516.296 429.725 516.8 429.893 517.434 430.08C518.069 430.229 518.61 430.36 519.058 430.472C519.506 430.547 520.122 430.677 520.906 430.864C521.728 431.013 522.362 431.144 522.81 431.256C528.784 432.6 531.77 435.475 531.77 439.88C531.77 442.269 530.688 444.323 528.522 446.04C526.394 447.72 523.464 448.56 519.73 448.56C514.877 448.56 511.162 446.973 508.586 443.8C507.429 442.344 506.664 440.757 506.29 439.04ZM535.285 414.232C534.613 413.56 534.277 412.739 534.277 411.768C534.277 410.797 534.613 409.976 535.285 409.304C535.957 408.595 536.779 408.24 537.749 408.24C538.72 408.24 539.541 408.595 540.213 409.304C540.923 409.976 541.277 410.797 541.277 411.768C541.277 412.739 540.923 413.56 540.213 414.232C539.541 414.904 538.72 415.24 537.749 415.24C536.779 415.24 535.957 414.904 535.285 414.232ZM534.837 448V419.44H540.717V448H534.837ZM545.455 448V419.44H551.335V423.36H551.615C552.063 422.613 552.754 421.867 553.687 421.12C555.703 419.627 557.999 418.88 560.575 418.88C564.122 418.88 566.866 419.907 568.807 421.96C570.786 424.013 571.775 427 571.775 430.92V448H565.895V431.48C565.895 428.979 565.335 427.149 564.215 425.992C563.133 424.797 561.453 424.2 559.175 424.2C556.898 424.2 555.013 424.984 553.519 426.552C552.063 428.083 551.335 430.099 551.335 432.6V448H545.455ZM578.381 444.472C575.842 441.709 574.573 438.125 574.573 433.72C574.573 429.315 575.842 425.749 578.381 423.024C580.957 420.261 584.168 418.88 588.013 418.88C590.44 418.88 592.661 419.589 594.677 421.008C595.573 421.643 596.338 422.352 596.973 423.136H597.253V419.44H603.133V458.64H578.773V453.32H597.253V444.36H596.973C596.338 445.144 595.573 445.853 594.677 446.488C592.698 447.869 590.477 448.56 588.013 448.56C584.168 448.56 580.957 447.197 578.381 444.472ZM582.973 426.664C581.48 428.307 580.733 430.659 580.733 433.72C580.733 436.781 581.48 439.133 582.973 440.776C584.466 442.419 586.52 443.24 589.133 443.24C591.597 443.24 593.557 442.419 595.013 440.776C596.506 439.096 597.253 436.744 597.253 433.72C597.253 430.696 596.506 428.363 595.013 426.72C593.557 425.04 591.597 424.2 589.133 424.2C586.52 424.2 584.466 425.021 582.973 426.664ZM798.236 447.72C797.49 446.973 797.116 446.04 797.116 444.92C797.116 443.8 797.49 442.867 798.236 442.12C798.983 441.373 799.916 441 801.036 441C802.156 441 803.09 441.373 803.836 442.12C804.583 442.867 804.956 443.8 804.956 444.92C804.956 446.04 804.583 446.973 803.836 447.72C803.09 448.467 802.156 448.84 801.036 448.84C799.916 448.84 798.983 448.467 798.236 447.72Z" fill="#0E0E0E"/>
<path d="M851.842 376V336.8H868.922C873.551 336.8 877.229 337.995 879.954 340.384C882.679 342.773 884.042 345.779 884.042 349.4C884.042 352.275 883.146 354.813 881.354 357.016C879.599 359.181 877.135 360.656 873.962 361.44L883.762 376H876.202L866.962 362H858.282V376H851.842ZM858.282 355.84H868.922C874.522 355.84 877.322 353.693 877.322 349.4C877.322 345.107 874.522 342.96 868.922 342.96H858.282V355.84ZM889.412 372.304C886.612 369.429 885.212 365.901 885.212 361.72C885.212 357.539 886.612 354.029 889.412 351.192C892.25 348.317 895.703 346.88 899.772 346.88C903.842 346.88 907.276 348.317 910.076 351.192C912.914 354.029 914.332 357.539 914.332 361.72V363.68H891.092C891.54 366.032 892.567 367.88 894.172 369.224C895.778 370.568 897.644 371.24 899.772 371.24C902.386 371.24 904.476 370.587 906.044 369.28C906.754 368.757 907.37 368.104 907.892 367.32H914.052C913.268 369.149 912.279 370.699 911.084 371.968C908.023 375.029 904.252 376.56 899.772 376.56C895.703 376.56 892.25 375.141 889.412 372.304ZM891.372 358.92H908.172C907.836 357.053 906.94 355.467 905.484 354.16C904.066 352.853 902.162 352.2 899.772 352.2C897.756 352.2 895.964 352.816 894.396 354.048C892.828 355.243 891.82 356.867 891.372 358.92ZM916.017 364.24H922.737C922.998 365.547 923.539 366.723 924.361 367.768C926.153 370.083 928.878 371.24 932.537 371.24C935.486 371.24 937.67 370.717 939.089 369.672C940.507 368.589 941.217 367.152 941.217 365.36C941.217 363.941 940.563 362.803 939.257 361.944C937.987 361.085 936.158 360.339 933.769 359.704C929.102 358.509 925.966 357.52 924.361 356.736C919.918 354.683 917.697 351.584 917.697 347.44C917.697 344.267 919.041 341.523 921.729 339.208C924.417 336.856 927.926 335.68 932.257 335.68C938.006 335.68 942.281 337.603 945.081 341.448C946.275 343.091 947.134 344.995 947.657 347.16H940.937C940.675 346.115 940.209 345.181 939.537 344.36C937.969 342.493 935.542 341.56 932.257 341.56C929.718 341.56 927.777 342.083 926.433 343.128C925.089 344.173 924.417 345.517 924.417 347.16C924.417 349.624 926.899 351.528 931.865 352.872C932.275 352.984 933.059 353.208 934.217 353.544C935.374 353.843 936.195 354.085 936.681 354.272C937.203 354.421 937.987 354.683 939.033 355.056C940.115 355.392 940.918 355.709 941.441 356.008C941.963 356.307 942.635 356.699 943.457 357.184C944.278 357.632 944.894 358.117 945.305 358.64C945.753 359.125 946.201 359.685 946.649 360.32C947.134 360.955 947.47 361.683 947.657 362.504C947.843 363.288 947.937 364.147 947.937 365.08C947.937 368.44 946.537 371.296 943.737 373.648C940.974 375.963 937.241 377.12 932.537 377.12C926.265 377.12 921.654 374.973 918.705 370.68C917.361 368.851 916.465 366.704 916.017 364.24ZM953.958 372.36C951.233 369.56 949.87 366.013 949.87 361.72C949.87 357.427 951.233 353.88 953.958 351.08C956.684 348.28 960.081 346.88 964.15 346.88C968.705 346.88 972.42 348.616 975.294 352.088C976.526 353.693 977.385 355.411 977.87 357.24H971.71C971.449 356.307 970.964 355.467 970.254 354.72C968.798 353.04 966.764 352.2 964.15 352.2C961.836 352.2 959.894 353.077 958.326 354.832C956.796 356.587 956.03 358.883 956.03 361.72C956.03 364.557 956.796 366.853 958.326 368.608C959.894 370.363 961.836 371.24 964.15 371.24C966.838 371.24 968.948 370.4 970.478 368.72C971.15 367.973 971.654 367.133 971.99 366.2H977.87C977.385 368.104 976.526 369.84 975.294 371.408C972.457 374.843 968.742 376.56 964.15 376.56C960.081 376.56 956.684 375.16 953.958 372.36ZM980.653 376V347.44H986.533V351.64H986.813C987.224 350.856 987.821 350.109 988.605 349.4C990.322 347.907 992.338 347.16 994.653 347.16H998.013V352.76H994.373C992.096 352.76 990.21 353.488 988.717 354.944C987.261 356.363 986.533 358.248 986.533 360.6V376H980.653ZM1000.96 342.232C1000.29 341.56 999.953 340.739 999.953 339.768C999.953 338.797 1000.29 337.976 1000.96 337.304C1001.63 336.595 1002.45 336.24 1003.43 336.24C1004.4 336.24 1005.22 336.595 1005.89 337.304C1006.6 337.976 1006.95 338.797 1006.95 339.768C1006.95 340.739 1006.6 341.56 1005.89 342.232C1005.22 342.904 1004.4 343.24 1003.43 343.24C1002.45 343.24 1001.63 342.904 1000.96 342.232ZM1000.51 376V347.44H1006.39V376H1000.51ZM1011.13 386.64V347.44H1017.01V351.08H1017.29C1017.96 350.296 1018.73 349.605 1019.59 349.008C1021.6 347.589 1023.82 346.88 1026.25 346.88C1030.1 346.88 1033.29 348.261 1035.83 351.024C1038.4 353.749 1039.69 357.315 1039.69 361.72C1039.69 366.125 1038.4 369.709 1035.83 372.472C1033.29 375.197 1030.1 376.56 1026.25 376.56C1023.79 376.56 1021.57 375.869 1019.59 374.488C1018.69 373.853 1017.93 373.144 1017.29 372.36H1017.01V386.64H1011.13ZM1019.2 354.72C1017.74 356.363 1017.01 358.696 1017.01 361.72C1017.01 364.744 1017.74 367.096 1019.2 368.776C1020.69 370.419 1022.67 371.24 1025.13 371.24C1027.74 371.24 1029.8 370.419 1031.29 368.776C1032.78 367.133 1033.53 364.781 1033.53 361.72C1033.53 358.659 1032.78 356.307 1031.29 354.664C1029.8 353.021 1027.74 352.2 1025.13 352.2C1022.67 352.2 1020.69 353.04 1019.2 354.72ZM1040.51 352.76V347.44H1043.87V341.28H1049.75V347.44H1058.43V352.76H1049.75V370.68H1058.71V376H1043.87V352.76H1040.51ZM626.535 443.24C622.503 439.32 620.487 434.373 620.487 428.4C620.487 422.427 622.503 417.48 626.535 413.56C630.567 409.64 635.551 407.68 641.487 407.68C648.281 407.68 653.583 410.069 657.391 414.848C659.071 416.901 660.303 419.272 661.087 421.96H654.647C653.975 420.467 653.041 419.123 651.847 417.928C649.121 415.203 645.668 413.84 641.487 413.84C637.268 413.84 633.833 415.184 631.183 417.872C628.532 420.56 627.207 424.069 627.207 428.4C627.207 432.731 628.532 436.24 631.183 438.928C633.833 441.616 637.268 442.96 641.487 442.96C645.892 442.96 649.495 441.373 652.295 438.2C653.527 436.744 654.404 435.157 654.927 433.44H647.927V427.28H666.127V433.44H661.367C660.508 436.389 659.22 439.003 657.503 441.28C653.471 446.507 648.132 449.12 641.487 449.12C635.551 449.12 630.567 447.16 626.535 443.24ZM665.58 448L675.66 408.8H691.62L701.98 448H695.26L692.572 437.92H674.54L672.02 448H665.58ZM676.22 431.76H691.004L686.58 414.96H680.42L676.22 431.76ZM704.762 448V408.8H717.922C724.008 408.8 729.029 410.685 732.986 414.456C736.944 418.227 738.922 422.875 738.922 428.4C738.922 433.925 736.944 438.573 732.986 442.344C729.029 446.115 724.008 448 717.922 448H704.762ZM711.202 441.84H717.922C722.216 441.84 725.669 440.589 728.282 438.088C730.896 435.587 732.202 432.357 732.202 428.4C732.202 424.443 730.896 421.213 728.282 418.712C725.669 416.211 722.216 414.96 717.922 414.96H711.202V441.84ZM739.747 414.96V408.8H771.947V414.96H759.067V448H752.627V414.96H739.747ZM769.689 439.04H776.129C776.391 439.787 776.857 440.496 777.529 441.168C778.911 442.549 780.777 443.24 783.129 443.24C785.183 443.24 786.676 442.923 787.609 442.288C788.543 441.653 789.009 440.851 789.009 439.88C789.009 439.544 788.935 439.245 788.785 438.984C788.636 438.685 788.375 438.424 788.001 438.2C787.628 437.976 787.273 437.789 786.937 437.64C786.601 437.453 786.097 437.285 785.425 437.136C784.753 436.949 784.212 436.819 783.801 436.744C783.391 436.632 782.756 436.483 781.897 436.296C781.076 436.109 780.46 435.979 780.049 435.904C774.076 434.56 771.089 431.685 771.089 427.28C771.089 425.04 772.116 423.08 774.169 421.4C776.223 419.72 778.929 418.88 782.289 418.88C786.956 418.88 790.447 420.373 792.761 423.36C793.807 424.667 794.516 426.16 794.889 427.84H788.729C788.431 427.093 788.02 426.496 787.497 426.048C786.191 424.816 784.455 424.2 782.289 424.2C780.609 424.2 779.34 424.499 778.481 425.096C777.66 425.693 777.249 426.44 777.249 427.336C777.249 427.672 777.324 427.989 777.473 428.288C777.623 428.549 777.884 428.792 778.257 429.016C778.631 429.24 778.985 429.427 779.321 429.576C779.695 429.725 780.199 429.893 780.833 430.08C781.468 430.229 782.009 430.36 782.457 430.472C782.905 430.547 783.521 430.677 784.305 430.864C785.127 431.013 785.761 431.144 786.209 431.256C792.183 432.6 795.169 435.475 795.169 439.88C795.169 442.269 794.087 444.323 791.921 446.04C789.793 447.72 786.863 448.56 783.129 448.56C778.276 448.56 774.561 446.973 771.985 443.8C770.828 442.344 770.063 440.757 769.689 439.04Z" fill="#DD1350"/>
<rect x="372" y="183.363" width="101.037" height="101.037" rx="14.277" fill="#DD1350" fill-opacity="0.38"/>
<rect x="379.416" y="190.778" width="87.1328" height="87.1328" rx="14.277" fill="#DD1350"/>
<path d="M442.045 220.44L414.919 247.566L402.589 235.236" stroke="white" stroke-width="9.26944" stroke-linecap="round" stroke-linejoin="round"/>
<path d="M505.701 260V213.357H518.505V220.216H518.962C519.511 218.753 520.334 217.473 521.432 216.375C523.931 213.754 527.071 212.443 530.852 212.443H536.339V224.789H529.48C526.004 224.789 523.291 225.734 521.34 227.624C519.45 229.454 518.505 232.014 518.505 235.307V260H505.701ZM541.76 254.238C536.943 249.422 534.535 243.568 534.535 236.679C534.535 229.789 536.943 223.966 541.76 219.21C546.638 214.394 552.613 211.985 559.685 211.985C566.88 211.985 572.794 214.363 577.428 219.119C582.062 223.875 584.379 229.728 584.379 236.679V239.422H547.796C548.284 242.471 549.656 245.062 551.911 247.196C554.167 249.33 556.759 250.397 559.685 250.397C562.917 250.397 565.691 249.483 568.008 247.653C568.922 246.861 569.654 245.946 570.203 244.91H583.921C582.885 248.019 581.36 250.763 579.348 253.141C574.471 258.628 567.916 261.372 559.685 261.372C552.613 261.372 546.638 258.994 541.76 254.238ZM548.253 231.649H570.66C570.172 229.21 568.922 227.167 566.91 225.521C564.959 223.814 562.551 222.96 559.685 222.96C556.82 222.96 554.381 223.783 552.369 225.429C550.357 227.076 548.985 229.149 548.253 231.649ZM583.428 244.91H596.689C597.116 246.007 597.787 247.013 598.701 247.928C600.653 249.879 603.335 250.854 606.75 250.854C611.932 250.854 614.523 249.33 614.523 246.282C614.523 245.794 614.401 245.367 614.158 245.001C613.914 244.574 613.487 244.209 612.877 243.904C612.267 243.538 611.688 243.233 611.14 242.989C610.591 242.745 609.768 242.501 608.67 242.257C607.634 241.953 606.78 241.739 606.109 241.617C605.5 241.495 604.494 241.282 603.091 240.977C601.75 240.672 600.774 240.459 600.165 240.337C590.531 238.264 585.715 233.539 585.715 226.161C585.715 222.259 587.452 218.936 590.928 216.192C594.464 213.388 599.281 211.985 605.378 211.985C613.548 211.985 619.675 214.516 623.76 219.576C625.529 221.771 626.718 224.271 627.327 227.076H614.523C614.097 226.161 613.548 225.399 612.877 224.789C610.987 223.265 608.487 222.503 605.378 222.503C603.183 222.503 601.567 222.869 600.531 223.6C599.494 224.271 598.976 225.125 598.976 226.161C598.976 226.527 599.037 226.893 599.159 227.259C599.342 227.563 599.616 227.868 599.982 228.173C600.348 228.417 600.713 228.661 601.079 228.905C601.445 229.088 601.963 229.301 602.634 229.545C603.305 229.728 603.884 229.911 604.372 230.094C604.92 230.277 605.622 230.46 606.475 230.642C607.329 230.825 608.06 230.978 608.67 231.1C609.28 231.222 610.073 231.405 611.048 231.649C612.024 231.831 612.816 231.984 613.426 232.106C622.998 234.24 627.785 238.965 627.785 246.282C627.785 250.367 625.894 253.903 622.114 256.89C618.334 259.878 613.213 261.372 606.75 261.372C598.092 261.372 591.69 258.628 587.544 253.141C585.654 250.641 584.282 247.897 583.428 244.91ZM634.12 254.238C629.303 249.422 626.895 243.568 626.895 236.679C626.895 229.789 629.303 223.966 634.12 219.21C638.998 214.394 644.973 211.985 652.046 211.985C660.52 211.985 666.983 215.034 671.434 221.131C673.446 223.753 674.91 226.801 675.824 230.277H662.563C662.014 228.935 661.283 227.716 660.368 226.618C658.051 224.18 655.277 222.96 652.046 222.96C648.814 222.96 646.009 224.241 643.632 226.801C641.315 229.362 640.156 232.655 640.156 236.679C640.156 240.703 641.315 243.995 643.632 246.556C646.009 249.117 648.814 250.397 652.046 250.397C655.277 250.397 658.051 249.178 660.368 246.739C661.283 245.641 662.014 244.422 662.563 243.081H675.824C674.971 246.617 673.568 249.665 671.617 252.226C667.166 258.323 660.642 261.372 652.046 261.372C644.973 261.372 638.998 258.994 634.12 254.238ZM677.65 260V195.981H690.454V219.759H690.911C691.704 218.357 692.832 217.076 694.295 215.918C697.648 213.296 701.398 211.985 705.544 211.985C711.336 211.985 715.818 213.662 718.988 217.015C722.219 220.369 723.835 225.247 723.835 231.649V260H711.031V233.478C711.031 230.063 710.178 227.472 708.471 225.704C706.824 223.875 704.477 222.96 701.428 222.96C698.38 222.96 695.789 224.119 693.655 226.436C691.521 228.752 690.454 231.709 690.454 235.307V260H677.65ZM732.464 254.238C727.648 249.422 725.239 243.568 725.239 236.679C725.239 229.789 727.648 223.966 732.464 219.21C737.342 214.394 743.317 211.985 750.39 211.985C757.584 211.985 763.498 214.363 768.132 219.119C772.766 223.875 775.083 229.728 775.083 236.679V239.422H738.5C738.988 242.471 740.36 245.062 742.616 247.196C744.872 249.33 747.463 250.397 750.39 250.397C753.621 250.397 756.395 249.483 758.712 247.653C759.627 246.861 760.358 245.946 760.907 244.91H774.626C773.589 248.019 772.065 250.763 770.053 253.141C765.175 258.628 758.621 261.372 750.39 261.372C743.317 261.372 737.342 258.994 732.464 254.238ZM738.958 231.649H761.365C760.877 229.21 759.627 227.167 757.615 225.521C755.664 223.814 753.255 222.96 750.39 222.96C747.524 222.96 745.085 223.783 743.073 225.429C741.061 227.076 739.689 229.149 738.958 231.649ZM777.334 260V213.357H790.138V219.759H790.595C791.448 218.235 792.485 216.955 793.704 215.918C796.692 213.296 800.228 211.985 804.313 211.985C809.191 211.985 813.276 213.449 816.568 216.375C817.91 217.656 819.007 219.089 819.861 220.674H820.318C821.172 219.089 822.269 217.656 823.611 216.375C826.903 213.449 830.836 211.985 835.408 211.985C841.018 211.985 845.377 213.693 848.487 217.107C851.657 220.46 853.242 225.308 853.242 231.649V260H840.439V233.02C840.439 226.314 837.542 222.96 831.75 222.96C828.946 222.96 826.568 224.058 824.617 226.253C822.666 228.448 821.69 231.313 821.69 234.849V260H808.886V233.02C808.886 226.314 805.99 222.96 800.198 222.96C797.393 222.96 795.015 224.058 793.064 226.253C791.113 228.448 790.138 231.313 790.138 234.849V260H777.334ZM861.16 254.604C857.075 250.031 855.032 244.056 855.032 236.679C855.032 229.301 857.075 223.356 861.16 218.845C865.306 214.272 870.427 211.985 876.525 211.985C880.61 211.985 884.298 213.205 887.591 215.644C888.993 216.802 890.182 218.022 891.158 219.302H891.615V213.357H904.419V260H891.615V254.055H891.158C890.182 255.336 888.993 256.555 887.591 257.714C884.298 260.152 880.61 261.372 876.525 261.372C870.427 261.372 865.306 259.116 861.16 254.604ZM871.494 226.618C869.36 229.057 868.293 232.411 868.293 236.679C868.293 240.947 869.36 244.3 871.494 246.739C873.628 249.178 876.372 250.397 879.726 250.397C883.262 250.397 886.127 249.208 888.322 246.83C890.517 244.391 891.615 241.008 891.615 236.679C891.615 232.35 890.517 228.996 888.322 226.618C886.127 224.18 883.262 222.96 879.726 222.96C876.372 222.96 873.628 224.18 871.494 226.618Z" fill="#0E0E0E"/>
</svg>
